<svg xmlns="http://www.w3.org/2000/svg" width="488" height="500" fill="none"><path fill="#F2EC2F" fill-opacity=".7" d="M475.916 198.837c-11.301-50.177-35.536-96.16-72.12-132.473-31.963-31.73-72.742-54.528-117.172-62.839-46.371-8.7-93.209-.854-135.89 18.642-46.1 21.089-86.763 55.42-114.26 98.102-28.234 43.886-41.4 95.928-34.798 147.892 6.797 53.401 32.468 104.977 66.839 145.95 32.312 38.526 76.004 69.402 125.483 80.898 25.283 5.864 51.265 6.524 76.819 2.174 25.439-4.35 49.634-14.447 72.509-26.176 42.138-21.555 80.471-51.925 107.385-91.189 28.584-41.634 40.507-92.666 35.847-142.765a293 293 0 0 0-2.759-20.973c-1.204-7.223-6.446-11.923-11.301-17.049-.777-.854-2.135-.349-2.446.66-.932 2.913-1.942 5.787-2.952 8.661-1.514 4.156-1.592 7.457-.932 11.807.971 6.33 1.631 12.699 2.059 19.068.854 12.816.698 25.672-.622 38.449-2.292 22.059-8.661 44.08-18.254 63.654-19.418 39.614-50.643 71.344-87.383 95.034-39.031 25.167-83.384 44.508-130.571 42.799-45.827-1.67-89.364-22.953-123.346-53.945-36.468-33.245-63.304-76.897-78.062-123.89-14.836-47.187-11.768-97.209 6.835-142.959 17.671-43.576 50.605-82.218 90.219-107.424 37.943-24.156 83.033-39.342 128.317-37.827 41.944 1.398 82.995 16.545 117.094 40.779 38.293 27.264 66.761 66.955 83.422 110.686 4.544 11.961 8.273 24.234 11.224 36.701 1.359 5.709 10.137 3.262 8.816-2.447"/><path fill="#F2EC2F" fill-opacity=".7" d="M472.449 220.958c-3.029 3.768-4.311 9.01-6.02 13.516-2.058 5.476-4.232 10.835-6.174 16.35-3.728 10.603-8 20.972-12.467 31.303-4.388 10.097-9.399 19.807-14.448 29.594-5.32 10.291-11.534 20.545-15.845 31.302-.699 1.748 1.826 2.913 2.991 1.748 8.272-7.962 15.107-18.487 21.01-28.274 5.942-9.825 11.069-20.234 15.846-30.642 4.583-10.02 8.427-20.389 11.923-30.836 1.864-5.515 3.262-11.069 4.505-16.778 1.126-5.166 3.03-11.069 2.175-16.351-.194-1.514-2.563-2.136-3.496-.932"/><path fill="#F2EC2F" fill-opacity=".7" d="M461.244 227.178c-3.107 2.991-4.35 7.845-6.137 11.69a886 886 0 0 1-6.524 13.749c-4.311 8.971-8.933 17.748-13.749 26.447-9.709 17.477-20.894 34.566-28.701 53.013-.699 1.631 1.283 3.69 2.681 2.098 13.166-15.225 23.729-33.168 33.516-50.683 4.854-8.661 9.515-17.438 13.826-26.409 2.136-4.389 4.078-8.816 5.903-13.321 1.787-4.389 4.855-9.515 4.544-14.331-.117-2.719-3.301-4.233-5.359-2.253m3.637-26.773c-3.729.427-4.971 3.184-6.68 6.213a458 458 0 0 0-5.243 9.632 1079 1079 0 0 0-10.952 21.089 830 830 0 0 1-22.37 41.322c-1.437 2.447 1.981 5.204 3.961 3.068 10.836-11.573 18.525-25.283 25.827-39.264 3.573-6.835 6.874-13.826 10.33-20.739 1.748-3.456 3.496-6.952 5.321-10.369 1.67-3.185 3.845-5.981 2.214-9.593-.349-.777-1.515-1.437-2.408-1.359m8.891 48.826c-2.058 22.642-13.632 43.886-25.594 62.722-6.019 9.476-12.738 18.447-19.496 27.457-6.097 8.156-14.136 16.933-17.204 26.798-.505 1.631 1.514 3.301 2.99 2.291 8.855-5.903 15.573-16.195 21.826-24.661 7.146-9.632 13.865-19.652 19.963-29.982 11.651-19.768 19.534-41.44 17.864-64.664-.039-.194-.349-.194-.349.039"/><path fill="#F2EC2F" fill-opacity=".7" d="M468.22 296.306c-9.088 13.049-16.351 27.302-25.09 40.623-4.272 6.525-9.203 12.467-13.98 18.642-4.855 6.214-10.875 12.117-14.525 19.147-1.01 1.942.699 4.777 3.029 3.961 7.845-2.757 14.369-9.01 20.117-14.835 5.904-6.02 10.875-13.205 15.457-20.235 8.972-13.787 16.234-30.098 17.283-46.643.077-1.359-1.67-1.592-2.291-.66m-58.747 77.005c-2.02 1.282-4.117 2.408-6.137 3.728-2.175 1.437-4.155 3.146-6.252 4.7-4.505 3.301-8.816 6.757-13.515 9.787-9.36 6.058-18.487 12.583-27.653 18.952-1.941 1.359-.814 4.855 1.71 4.039 11.03-3.612 22.525-7.379 32.351-13.709 4.854-3.107 10.137-6.447 14.137-10.603 4.155-4.35 7.029-8.583 8.505-14.447.427-1.787-1.515-3.457-3.146-2.447m-71.88 55.999c3.573 4.893 13.204 1.32 17.709-.311 7.108-2.563 13.982-5.903 20.701-9.321 6.835-3.456 13.437-7.301 20.04-11.146 6.369-3.689 13.32-7.068 18.175-12.7.932-1.087.001-2.524-1.359-2.33-6.796 1.049-12.622 5.088-18.37 8.661-6.33 3.922-12.699 7.728-19.263 11.224-6.485 3.417-13.011 6.252-20.118 8.155-3.34.894-6.718 1.787-10.136 2.447-2.641.544-6.176 1.165-7.457 3.884-.156.466-.233 1.01.078 1.437"/><path fill="#F2EC2F" fill-opacity=".7" d="M308.771 448.717c7.457.544 15.497-2.097 22.565-4.272 8.039-2.486 15.885-4.893 23.458-8.583 7.495-3.651 14.835-7.612 22.02-11.807 3.495-2.058 7.107-4 10.564-6.174 2.835-1.826 6.02-3.457 6.369-7.069.078-.776-.505-1.709-1.165-2.058-3.068-1.592-5.903.116-8.816 1.515-3.456 1.631-6.758 3.612-10.098 5.476-7.262 4.039-14.486 8.233-21.787 12.194-6.991 3.806-13.827 8.273-21.089 11.496-7.302 3.224-15.069 4.894-22.332 8.039-.66.311-.232 1.205.311 1.243m-33.722 13.757c4.933 3.806 11.457 2.99 17.36 2.68 6.641-.311 13.205-1.282 19.73-2.641 6.408-1.321 12.738-2.99 18.991-4.932 4.466-1.36 13.399-3.069 14.564-8.545.155-.699-.117-1.242-.66-1.669-4.272-3.263-12.428.893-16.778 2.213-5.826 1.787-11.728 3.34-17.709 4.583s-12.04 2.253-18.138 2.952c-5.864.699-12.233 0-17.36 3.301-.815.582-.699 1.515 0 2.058m-18.021 8.623c1.282 2.874 5.437 4.155 8.272 4.855 4 .97 8.079 1.398 12.195 1.592 3.962.155 7.962 0 11.923-.466 3.768-.466 8.894-1.049 11.535-4.117 1.282-1.476.971-4.194-1.243-4.66-3.534-.738-7.496.621-10.991 1.126-3.69.583-7.495.699-11.224.66-3.65-.078-7.34-.388-10.952-.699-2.874-.272-6.718-.893-9.243.777-.388.155-.466.544-.272.932M250 478.564c.427 1.748 2.137 2.913 3.496 3.923.893.66 1.864 1.398 2.952 1.787.971.349 2.019.582 3.029.776 1.087.233 2.174.389 3.262.544 1.398.194 2.602.116 4-.194 2.136-.466 4.388-.583 6.602-1.049 2.758-.583 2.175-5.165-.66-4.971-1.903.117-4.078.35-5.903-.116-2.058-.505-4.117-.506-6.214-.739-.428-.038-.505-.077-.233-.038-.233-.039-.505-.078-.738-.117-.466-.077-.971-.194-1.437-.272-.971-.155-1.942-.077-2.913-.116-1.592-.078-3.301-.544-4.815-.117a.567.567 0 0 0-.428.699M88.82 71.682c-18.76 14.641-30.76 38.409-38.877 60.391-8.505 23.069-12.466 47.187-13.282 71.732-.077 2.641 3.884 2.602 4.078 0 1.787-23.574 6.409-47.226 14.642-69.441 4.04-10.835 8.933-21.438 14.68-31.496 6.02-10.525 13.166-20.312 19.108-30.915.194-.233-.117-.465-.35-.271m18.961-12.82c-8.544 3.184-13.477 10.291-17.594 18.137-4.932 9.36-8.078 19.38-10.524 29.593-4.738 19.846-6.525 40.391-7.612 60.742-.117 2.097 3.262 2.601 3.69.504 3.728-18.875 6.213-37.944 10.68-56.663 2.33-9.787 5.203-19.613 9.164-28.856 3.38-7.961 8.117-15.535 12.661-22.875.156-.272-.155-.699-.465-.583m29.002-24.191c-7.146.311-10.875 6.914-14.021 12.584-3.961 7.262-6.873 15.146-9.32 23.03-4.699 14.952-7.107 30.565-9.437 46.022-.505 3.379 4.038 4.777 5.203 1.437 4.855-13.903 8.001-28.429 12.079-42.565 2.175-7.496 4.583-14.991 8.079-21.982 2.835-5.631 7.184-10.136 9.281-16.078.427-1.127-.66-2.486-1.864-2.447m34.45-15.845c-5.243.622-8.544 4.894-11.534 8.816-3.263 4.311-6.02 9.01-8.389 13.904-5.243 10.875-8.467 22.759-11.147 34.488-5.087 22.137-6.408 44.895-8.699 67.421-.194 1.786 2.563 2.019 3.029.427 6.098-20.545 9.438-41.944 14.564-62.722 2.758-11.185 5.903-22.215 10.525-32.778 2.058-4.7 4.311-9.321 7.146-13.632 2.447-3.729 6.641-7.224 7.729-11.651.505-1.942-.933-4.544-3.224-4.273m26.172-7.378c-6.603-2.292-12.777 11.068-14.836 15.418-4.349 9.166-7.184 18.953-9.709 28.74-4.621 18.098-7.107 36.662-8.971 55.226-.233 2.175 2.834 2.175 3.533.466 6.525-16.195 9.477-34.06 13.671-50.954 2.33-9.4 5.01-18.798 8.583-27.808 1.398-3.534 3.03-7.03 5.127-10.214 1.514-2.291 4.932-5.087 4.854-7.961-.077-1.399-.932-2.486-2.252-2.913m23.97-4.423c-5.71 7.65-9.167 17.05-11.342 26.293-2.174 9.282-3.727 18.952-4.154 28.506-.117 2.37 3.728 3.612 4.699 1.282 7.107-16.817 7.029-36.662 17.554-52.08 1.204-1.748.31-4.312-1.398-5.36-1.981-1.243-4.117-.311-5.359 1.359m21.821 1.518c2.991 13.438 5.593 26.68 7.03 40.39 1.398 13.321 1.126 26.798 3.029 40.041.428 3.03 5.166 2.719 5.826 0 3.262-13.787 2.252-28.234.582-42.216-1.67-13.748-4.932-28.001-10.951-40.546-1.554-3.184-6.254-.854-5.516 2.33m22.147-.557c5.942 16.661 13.283 32.818 17.71 50.023 4.505 17.593 6.758 35.885 7.185 54.06.078 2.68 3.884 3.224 4.66.622 5.554-18.564 3.224-38.1-2.369-56.43-5.398-17.71-13.049-35.42-25.671-49.168-.582-.621-1.826.039-1.515.893m22.543 2.885c.932 5.515 3.496 10.486 5.67 15.613 2.37 5.592 4.429 11.262 6.526 16.971A314 314 0 0 1 310.8 78.99c5.476 23.147 8.427 46.721 12.311 70.14.349 2.175 4.077 2.175 4.427 0 3.845-24.39.35-49.4-5.941-73.091-3.224-12.234-7.186-24.312-11.962-36.041-2.292-5.632-4.972-11.108-7.729-16.506-2.757-5.36-5.554-10.836-10.137-14.836-1.864-1.553-4.272-.039-3.884 2.214m31.29 13.083c2.485 3.068 5.864 5.282 8.466 8.31 2.602 3.03 4.894 6.331 6.874 9.788 4.738 8.31 7.651 17.554 9.865 26.797 4.777 20.079 5.942 40.391 8.078 60.819.544 5.165 1.01 10.369 1.865 15.535.66 4.039.97 8.971 2.485 12.777.893 2.253 4.078 2.525 4.893 0 1.126-3.573.972-7.69 1.476-11.418.661-4.893.816-9.825.855-14.758.116-10.913-.699-21.71-1.981-32.506-2.486-21.167-6.486-43.304-17.671-61.868-4.777-7.923-12.855-18.292-22.836-19.185-3.223-.311-4 3.69-2.369 5.709m37.468 17.167c.582 4.31 4.234 8.466 6.603 12 3.184 4.738 6.019 9.67 8.621 14.758 5.787 11.224 11.03 22.836 15.341 34.72s8.156 24.079 10.835 36.468c1.204 5.476 2.252 11.03 3.223 16.545.699 4.078.738 10.641 3.069 14.059 2.019 2.99 5.67 2.757 7.767 0 2.835-3.69 2.292-11.302 2.097-15.807-.31-6.214-1.281-12.428-2.64-18.525-2.835-12.855-6.875-25.438-11.924-37.594-5.087-12.312-10.796-24.312-18.253-35.38-3.417-5.05-7.069-9.982-11.069-14.643-2.951-3.417-6.99-8-11.651-8.582-.971-.195-2.175.97-2.019 1.98"/><path fill="#F2EC2F" fill-opacity=".7" d="M396.292 69.315c.311 3.844 4.194 7.456 6.175 10.719 2.563 4.272 4.816 8.7 6.796 13.243 4.272 9.748 6.991 20.429 9.283 30.798 2.369 10.603 4 21.477 4.582 32.312.272 5.049.156 10.098.311 15.186.156 5.282.66 10.563.427 15.845-.155 3.884 5.709 4.622 6.719.893 1.476-5.398 2.913-10.486 3.612-16.039.66-5.515.466-11.069.155-16.622-.66-11.651-2.408-23.186-5.515-34.449-2.951-10.719-7.301-20.7-12.505-30.487-2.563-4.777-5.398-9.437-8.583-13.826-2.253-3.068-5.205-8.506-9.088-9.438-1.088-.194-2.446.622-2.369 1.864M30.953 151.842c-5.243 3.534-6.602 11.263-7.69 17.127-1.476 8.078-1.942 16.312-2.02 24.467-.155 16.506 1.67 32.856 2.641 49.323.078 1.36 2.059 1.36 2.137 0 .815-15.534-.506-31.108-.506-46.643 0-8.078.273-16.234 1.593-24.234 1.088-6.564 4.272-13.011 4.622-19.574 0-.389-.466-.661-.777-.466M78.03 79.715c-6.253 5.98-8.467 14.37-10.72 22.487-2.64 9.515-4.737 19.224-6.135 28.972-1.36 9.476-2.563 18.952-3.107 28.506-.544 9.088-1.864 18.681-.815 27.769.194 1.825 2.562 2.252 3.222.427 2.874-8.117 3.458-17.205 4.778-25.671 1.476-9.554 2.64-19.186 4.155-28.74 1.476-9.282 2.952-18.525 5.166-27.691 2.058-8.388 5.437-16.466 5.786-25.127-.038-1.165-1.515-1.67-2.33-.932m32.149-26.905c-4.583 5.32-5.903 12.933-7.69 19.574-1.903 6.99-3.69 14.02-4.893 21.167-2.486 14.525-3.884 28.972-4.738 43.652-.078 1.282 1.98 1.554 2.252.311 3.069-14.02 6.098-28.079 9.438-42.06 1.67-7.03 3.107-14.137 4.893-21.167 1.631-6.447 4.7-13.321 4.195-20.04-.078-1.592-2.176-2.874-3.457-1.437m38.256-20.004c-6.019-2.136-10.719 7.612-12.816 11.806-3.534 6.99-5.709 14.797-7.69 22.37-3.65 14.137-6.602 29.206-7.107 43.809-.078 2.058 2.99 2.951 3.961 1.087 3.03-5.787 4.467-12.311 6.059-18.642 1.981-7.961 3.689-15.962 5.709-23.885 1.903-7.456 4.156-14.835 7.263-21.942.893-2.097 8.816-13.127 4.621-14.603m32.892-14.951c-4.077 2.175-6.175 5.476-8.195 9.593-2.097 4.311-3.805 8.777-5.32 13.321-3.068 9.166-4.389 18.68-6.37 28.118-.466 2.291 2.603 3.068 3.457.971 3.496-8.544 6.409-17.283 9.089-26.137 1.32-4.272 2.757-8.544 4.582-12.622 1.787-3.923 3.69-7.418 4.777-11.613.311-1.242-.971-2.213-2.02-1.63m32.628-9.561c-2.33-.816-5.436 1.593-6.951 3.185-2.058 2.136-3.534 5.087-4.854 7.728-3.03 6.176-5.011 12.778-6.681 19.419-3.224 12.816-4.855 25.904-6.797 38.953-.349 2.33 2.68 4.04 4.04 1.71 6.563-11.302 7.728-25.517 10.563-38.061 1.476-6.486 3.185-13.127 6.137-19.108 1.165-2.369 9.204-12.195 4.543-13.826m20.547-.546c-.505 11.923-.738 23.885-1.554 35.808-.815 11.884-2.446 23.924-2.136 35.847.039 1.359 2.097 2.136 2.758.737 4.971-10.835 5.786-23.418 5.631-35.186-.156-12.428-1.049-24.817-1.592-37.206-.078-2.02-3.03-2.02-3.107 0m18.689-.16c-1.903 6.097 1.476 13.476 3.068 19.34 1.981 7.146 3.534 14.409 5.165 21.671 1.632 7.263 2.797 14.68 3.806 22.06.971 7.224.738 15.185 2.952 22.137.777 2.447 4.544 3.34 5.826.776 3.417-6.874 3.494-15.534 3.184-23.03-.311-8.078-1.709-15.884-3.69-23.729-1.98-7.65-4.932-14.914-8.078-22.137-2.563-5.826-5.398-14.331-11.496-17.36-.31-.156-.621-.04-.737.272M275.25 9.62c4.039 10.64 9.826 20.544 14.254 31.069 2.291 5.476 4.543 11.03 6.524 16.661 1.825 5.243 3.457 11.107 6.913 15.496 1.476 1.864 4.893.777 5.32-1.398 1.165-5.71-.776-11.962-2.679-17.321-2.059-5.865-4.428-11.613-7.186-17.166-5.204-10.447-10.913-21.244-19.185-29.633-1.553-1.592-4.816.039-3.961 2.291m28.567 6.009c.505 3.3 2.447 6.369 3.923 9.36a220 220 0 0 1 4.894 10.68c3.262 7.612 6.329 15.418 9.048 23.263 2.68 7.767 4.894 15.651 6.952 23.574 1.864 7.185 2.913 15.186 6.641 21.671 2.369 4.117 7.729 1.825 8.234-2.214.932-7.534-1.709-15.884-3.495-23.185-2.097-8.583-4.545-17.128-7.457-25.478-2.874-8.272-6.176-16.156-10.914-23.574-3.573-5.592-9.126-14.175-16.078-15.806-1.165-.233-1.903.699-1.748 1.708m38.378 14.767c13.554 13.632 20.856 31.768 26.681 49.828 3.301 10.175 6.097 20.544 8.544 30.953 1.903 8.194 4.311 16.156 6.447 24.312.893 3.495 5.942 2.602 6.097-.816.932-20.506-5.669-40.973-13.087-59.887-4.039-10.291-8.506-20.506-14.797-29.594-4.622-6.68-10.409-14.68-18.565-17.127-1.32-.388-2.291 1.36-1.32 2.33"/><path fill="#F2EC2F" fill-opacity=".7" d="M381.345 54.462c1.166 7.107 5.438 13.515 7.846 20.234 2.912 8.156 6.02 16.273 9.127 24.39 3.107 8.155 5.63 16.389 7.805 24.856.932 3.689 1.826 7.34 2.642 11.029.621 2.991 1.475 7.496 3.222 10.02.971 1.437 3.458 2.253 4.739.621 4.7-5.903 2.757-15.767 1.515-22.525-1.67-9.243-5.36-18.331-8.972-26.992-3.612-8.7-8.039-17.05-13.243-24.856-4-6.02-7.457-13.36-13.437-17.67-.7-.505-1.36.272-1.244.893m40.268 43.364c2.253 4.661 3.767 10.059 5.204 15.03 2.291 7.884 4.505 15.768 6.408 23.73s3.418 16.039 5.243 24.001c1.204 5.281 2.486 10.913 5.282 15.612 1.165 1.981 3.922 1.399 4.622-.621 1.941-5.476.698-12.078-.35-17.632-1.554-8.311-3.961-16.545-6.214-24.7-2.252-8.078-4.582-16.196-7.689-24.002-2.059-5.165-3.962-10.952-8.234-14.719-2.369-2.058-5.631.505-4.272 3.301"/></svg>