<svg xmlns="http://www.w3.org/2000/svg" width="2826" height="2194" fill="none" viewBox="0 0 2826 2194"><g clip-path="url(#a)"><path fill="#fff" d="M0 0h2826v2194H0z"/><path fill="#c9bcbc" d="M0 0h2826v2193.97H0z"/><circle cx="100.742" cy="100.742" r="30" fill="#a89e9e" transform="rotate(105 100.742 100.742)"/><circle cx="100.741" cy="100.743" r="25" fill="#100d26" transform="rotate(105 100.741 100.743)"/><path fill="#96aab9" d="M107.21 124.892a25.002 25.002 0 0 0 6.029-45.801 25.002 25.002 0 0 0-36.173 13.622 25.001 25.001 0 0 0 30.144 32.179m-20.754-24.497 9.338-2.507-2.508-9.338 7.805-2.084 2.508 9.339 9.338-2.508 2.083 7.805-9.338 2.508 2.507 9.338-7.805 2.083-2.507-9.338-9.338 2.507z"/><circle cx="2732" cy="100.742" r="30" fill="#a89e9e"/><circle cx="2732" cy="100.742" r="25" fill="#100d26"/><path fill="#96aab9" d="M2753.65 88.244a25 25 0 0 0-10.59-9.923 25 25 0 0 0-14.32-2.365c-4.91.646-9.51 2.73-13.22 5.991a25 25 0 0 0-7.67 12.328 25 25 0 0 0 .48 14.507 24.96 24.96 0 0 0 8.46 11.797 25 25 0 0 0 13.58 5.11 25 25 0 0 0 14.14-3.3 24.995 24.995 0 0 0 9.14-34.145m-18.29 26.387-4.84-8.371-8.37 4.839-4.03-7 8.37-4.839-4.84-8.37 7-4.033 4.84 8.371 8.37-4.839 4.03 7-8.37 4.839 4.84 8.371z"/><path fill="#100d26" d="M1105.67 242.432h9.52c-.3 3.631-1.32 6.868-3.04 9.712-1.73 2.818-4.16 5.04-7.28 6.665s-6.92 2.437-11.39 2.437c-3.42 0-6.51-.609-9.25-1.828a20.4 20.4 0 0 1-7.05-5.256c-1.95-2.285-3.45-5.04-4.49-8.264-1.02-3.225-1.52-6.83-1.52-10.817v-4.608q0-5.98 1.56-10.816c1.06-3.225 2.59-5.98 4.57-8.265a19.7 19.7 0 0 1 7.12-5.294c2.79-1.219 5.93-1.828 9.41-1.828 4.41 0 8.15.812 11.19 2.437 3.05 1.625 5.41 3.872 7.09 6.742q2.55 4.304 3.12 9.864h-9.52q-.375-3.58-1.68-6.132a8.6 8.6 0 0 0-3.73-3.885c-1.65-.914-3.81-1.371-6.47-1.371-2.19 0-4.09.406-5.72 1.219-1.62.812-2.98 2.006-4.07 3.58s-1.92 3.517-2.48 5.827c-.53 2.285-.8 4.9-.8 7.846v4.684c0 2.793.24 5.332.73 7.618.5 2.259 1.27 4.202 2.28 5.827q1.56 2.438 3.96 3.77c1.6.889 3.52 1.333 5.75 1.333 2.72 0 4.92-.431 6.59-1.295 1.7-.863 2.99-2.12 3.85-3.77.89-1.676 1.47-3.72 1.75-6.132m64.76-11.197v3.047c0 4.189-.54 7.947-1.63 11.273-1.1 3.326-2.66 6.157-4.69 8.493a20.14 20.14 0 0 1-7.23 5.37c-2.82 1.219-5.95 1.828-9.37 1.828-3.41 0-6.52-.609-9.34-1.828-2.79-1.244-5.21-3.034-7.27-5.37q-3.09-3.504-4.8-8.493c-1.12-3.326-1.67-7.084-1.67-11.273v-3.047c0-4.19.55-7.935 1.67-11.236 1.12-3.326 2.69-6.157 4.72-8.493 2.06-2.361 4.49-4.151 7.28-5.37q4.23-1.866 9.33-1.866c3.43 0 6.55.622 9.37 1.866 2.82 1.219 5.24 3.009 7.27 5.37 2.03 2.336 3.6 5.167 4.69 8.493 1.12 3.301 1.67 7.046 1.67 11.236m-9.56 3.047v-3.123c0-3.098-.3-5.828-.91-8.189-.58-2.387-1.46-4.38-2.63-5.979q-1.71-2.437-4.23-3.657-2.505-1.257-5.67-1.257t-5.64 1.257c-1.65.813-3.06 2.032-4.22 3.657-1.15 1.599-2.02 3.592-2.63 5.979-.61 2.361-.92 5.091-.92 8.189v3.123c0 3.097.31 5.839.92 8.226s1.5 4.405 2.66 6.056c1.2 1.625 2.62 2.856 4.27 3.694q2.475 1.22 5.64 1.219 3.195 0 5.67-1.219c1.65-.838 3.05-2.069 4.19-3.694 1.14-1.651 2.01-3.669 2.59-6.056.61-2.387.91-5.129.91-8.226m65.45-29.25v55.453h-9.56l-24.87-39.724v39.724h-9.56v-55.453h9.56l24.95 39.799v-39.799zm35.4 0v55.453h-9.48v-55.453zm17.41 0v7.617h-44.15v-7.617zm9.65 0h19.61c4.22 0 7.81.634 10.78 1.904 2.97 1.269 5.24 3.148 6.82 5.637q2.4 3.693 2.4 9.14 0 4.152-1.53 7.313a14.85 14.85 0 0 1-4.3 5.332q-2.775 2.133-6.63 3.313l-2.89 1.409h-17.63l-.08-7.579h13.22c2.28 0 4.18-.406 5.71-1.218 1.52-.813 2.66-1.917 3.43-3.314.78-1.422 1.18-3.021 1.18-4.799 0-1.929-.38-3.605-1.15-5.027q-1.095-2.17-3.42-3.314-2.325-1.18-5.91-1.18h-10.05v47.836h-9.56zm31.65 55.453-13.03-24.909 10.02-.038 13.22 24.452v.495zm64.04-29.25v3.047c0 4.189-.55 7.947-1.64 11.273q-1.635 4.989-4.68 8.493a20.2 20.2 0 0 1-7.24 5.37c-2.82 1.219-5.94 1.828-9.37 1.828q-5.1 0-9.33-1.828c-2.79-1.244-5.22-3.034-7.28-5.37-2.05-2.336-3.65-5.167-4.79-8.493q-1.68-4.99-1.68-11.273v-3.047q0-6.285 1.68-11.236c1.11-3.326 2.69-6.157 4.72-8.493 2.05-2.361 4.48-4.151 7.27-5.37q4.23-1.866 9.33-1.866c3.43 0 6.55.622 9.37 1.866a19.9 19.9 0 0 1 7.28 5.37q3.045 3.504 4.68 8.493 1.68 4.951 1.68 11.236m-9.56 3.047v-3.123c0-3.098-.31-5.828-.92-8.189-.58-2.387-1.46-4.38-2.62-5.979q-1.725-2.437-4.23-3.657c-1.68-.838-3.57-1.257-5.68-1.257-2.1 0-3.98.419-5.63 1.257q-2.475 1.22-4.23 3.657c-1.14 1.599-2.02 3.592-2.63 5.979-.61 2.361-.91 5.091-.91 8.189v3.123c0 3.097.3 5.839.91 8.226q.915 3.58 2.67 6.056 1.785 2.437 4.26 3.694 2.475 1.22 5.64 1.219 3.195 0 5.67-1.219c1.65-.838 3.05-2.069 4.19-3.694 1.15-1.651 2.01-3.669 2.59-6.056.61-2.387.92-5.129.92-8.226m56.19 18.624v7.579h-27.84v-7.579zm-25.17-47.874v55.453h-9.56v-55.453zm89.42 37.4h9.52c-.31 3.631-1.32 6.868-3.05 9.712-1.72 2.818-4.15 5.04-7.27 6.665s-6.92 2.437-11.39 2.437c-3.43 0-6.51-.609-9.25-1.828a20.2 20.2 0 0 1-7.05-5.256c-1.96-2.285-3.45-5.04-4.49-8.264q-1.53-4.837-1.53-10.817v-4.608q0-5.98 1.56-10.816c1.07-3.225 2.59-5.98 4.57-8.265a19.76 19.76 0 0 1 7.13-5.294c2.79-1.219 5.92-1.828 9.4-1.828 4.42 0 8.15.812 11.2 2.437q4.575 2.437 7.08 6.742c1.71 2.869 2.75 6.157 3.13 9.864h-9.52q-.39-3.58-1.68-6.132c-.84-1.701-2.08-2.996-3.73-3.885q-2.475-1.371-6.48-1.371c-2.18 0-4.08.406-5.71 1.219-1.62.812-2.98 2.006-4.07 3.58-1.1 1.574-1.92 3.517-2.48 5.827-.53 2.285-.8 4.9-.8 7.846v4.684q0 4.19.72 7.618c.51 2.259 1.27 4.202 2.29 5.827q1.56 2.438 3.96 3.77c1.6.889 3.52 1.333 5.75 1.333 2.72 0 4.91-.431 6.59-1.295 1.7-.863 2.98-2.12 3.85-3.77.88-1.676 1.47-3.72 1.75-6.132m56.84 10.474v7.579h-29.44v-7.579zm-26.74-47.874v55.453h-9.56v-55.453zm22.89 23.156v7.465h-25.59v-7.465zm3.66-23.156v7.617h-29.25v-7.617zm54.33 0v55.453h-9.56l-24.87-39.724v39.724h-9.56v-55.453h9.56l24.94 39.799v-39.799zm35.39 0v55.453h-9.48v-55.453zm17.41 0v7.617h-44.14v-7.617zm45.95 47.874v7.579h-29.44v-7.579zm-26.74-47.874v55.453h-9.56v-55.453zm22.89 23.156v7.465h-25.59v-7.465zm3.66-23.156v7.617h-29.25v-7.617zm10.34 0h19.61c4.21 0 7.81.634 10.78 1.904 2.97 1.269 5.24 3.148 6.82 5.637 1.6 2.462 2.39 5.509 2.39 9.14 0 2.768-.5 5.205-1.52 7.313a14.85 14.85 0 0 1-4.3 5.332c-1.86 1.422-4.06 2.526-6.63 3.313l-2.89 1.409h-17.64l-.07-7.579h13.21c2.29 0 4.19-.406 5.72-1.218q2.28-1.219 3.42-3.314c.79-1.422 1.18-3.021 1.18-4.799q0-2.894-1.14-5.027c-.74-1.447-1.88-2.552-3.43-3.314-1.55-.787-3.51-1.18-5.9-1.18h-10.05v47.836h-9.56zm31.65 55.453-13.03-24.909 10.02-.038 13.21 24.452v.495z"/><g clip-path="url(#b)"><path fill="#a89e9e" d="M2110 329.485H64V1992.48h2046z"/><path fill="#fff" d="M1950.24 405.203H220.953c-30.958 0-56.054 25.111-56.054 56.088V1863.48c0 30.98 25.096 56.09 56.054 56.09H1950.24c30.96 0 56.06-25.11 56.06-56.09V461.291c0-30.977-25.1-56.088-56.06-56.088"/><path fill="url(#c)" d="M1950.24 405.203c30.96 0 56.06 25.111 56.06 56.088V1863.48c0 30.98-25.1 56.09-56.06 56.09h-224.22V405.203z"/><path fill="url(#d)" d="M220.953 405.203c-30.958 0-56.054 25.111-56.054 56.088V1863.48c0 30.98 25.096 56.09 56.054 56.09h224.22V405.203z"/><path fill="#adadad" d="M164.899 1863.48c0 30.98 25.096 56.09 56.054 56.09H1949.85c19.41 0 37.44-10.05 47.66-26.57l1.78-2.88-257.19-236.22a56 56 0 0 0-37.9-14.77H464.643a56 56 0 0 0-34.748 12.08l-264.996 209.47z"/><path fill="url(#e)" d="M164.899 461.291c0-30.977 25.096-56.088 56.054-56.088H1949.85a56.05 56.05 0 0 1 47.66 26.566l1.78 2.88-257.19 236.224a56.02 56.02 0 0 1-37.9 14.768H464.643a56.03 56.03 0 0 1-34.748-12.076l-264.996-209.47z"/><g filter="url(#f)"><path fill="#013201" d="M316.92 662.858c7.772-48.199 46.432-85.684 94.802-92.093 508.7-67.402 826.938-67.534 1336.578-.027 48.47 6.42 87.17 44.014 94.88 92.325 63.34 396.707 65.11 594.207.83 989.857-8.1 49.84-49.14 87.83-99.41 92.41-512.15 46.74-829.198 44.24-1328.573-.19-50.458-4.49-91.691-42.55-99.805-92.58-62.646-386.31-64.808-583.45.698-989.702"/></g></g><path stroke="#5b5151" stroke-width="4" d="M66 331.485h2042v1659H66z"/><g clip-path="url(#g)"><path fill="#5b5151" d="M2179 329.485h571.06l5.94 3.582v986.413h-573.04l-3.96-25.07z"/><path fill="#c9bcbc" d="M2181 331.485h573v960.045h-573z"/><path stroke="#5b5151" stroke-width="4" d="M2181 331.485h573v960.045h-573z"/><circle cx="2241.24" cy="397.227" r="30" fill="#a89e9e" transform="rotate(105 2241.24 397.227)"/><circle cx="2241.24" cy="397.228" r="25" fill="#100d26" transform="rotate(105 2241.24 397.228)"/><path fill="#96aab9" d="M2247.71 421.376a25 25 0 0 0 12.33-7.664 25.04 25.04 0 0 0 5.99-13.222 25.025 25.025 0 0 0-12.29-24.914 24.997 24.997 0 0 0-36.17 13.622 25 25 0 0 0-.48 14.507 25.02 25.02 0 0 0 11.65 15.175 25.02 25.02 0 0 0 18.97 2.496m-20.75-24.496 9.33-2.508-2.5-9.338 7.8-2.083 2.51 9.338 9.34-2.507 2.08 7.805-9.34 2.507 2.51 9.338-7.81 2.084-2.5-9.338-9.34 2.507z"/><circle cx="2706.5" cy="397.227" r="30" fill="#a89e9e"/><circle cx="2706.5" cy="397.227" r="25" fill="#100d26"/><path fill="#96aab9" d="M2728.15 384.729a24.996 24.996 0 0 0-38.13-6.297 25 25 0 0 0-7.67 12.327 25 25 0 0 0 .48 14.508 24.97 24.97 0 0 0 8.46 11.797 25 25 0 0 0 13.58 5.11 25 25 0 0 0 14.14-3.3 24.996 24.996 0 0 0 9.14-34.145m-18.29 26.387-4.84-8.371-8.37 4.839-4.03-7 8.37-4.839-4.84-8.371 7-4.032 4.84 8.371 8.37-4.839 4.03 7-8.37 4.839 4.84 8.371z"/><path fill="#100d26" d="m2416.65 467.559 6.74 5.344-2.87 2.514-6.61-5.291zm6.79-10.09v1.407c0 1.933-.25 3.668-.76 5.203q-.75 2.303-2.16 3.92a9.5 9.5 0 0 1-3.36 2.478q-1.95.844-4.32.844c-1.57 0-3.01-.281-4.31-.844a9.55 9.55 0 0 1-3.35-2.478q-1.425-1.617-2.22-3.92c-.51-1.535-.77-3.27-.77-5.203v-1.407c0-1.933.26-3.662.77-5.185.52-1.535 1.24-2.842 2.18-3.92a9.4 9.4 0 0 1 3.36-2.479c1.3-.574 2.73-.861 4.3-.861 1.59 0 3.03.287 4.33.861a9.1 9.1 0 0 1 3.37 2.479c.94 1.078 1.66 2.385 2.17 3.92.51 1.523.77 3.252.77 5.185m-4.43 1.407v-1.442q0-2.144-.42-3.779c-.27-1.102-.68-2.022-1.21-2.76-.53-.75-1.18-1.312-1.96-1.687-.76-.387-1.63-.58-2.62-.58q-1.44 0-2.58.58-1.14.562-1.95 1.687-.81 1.107-1.23 2.76-.42 1.635-.42 3.779v1.442q0 2.144.42 3.796.42 1.653 1.23 2.795c.55.75 1.21 1.319 1.97 1.705.77.375 1.64.563 2.6.563.98 0 1.86-.188 2.62-.563a5.2 5.2 0 0 0 1.93-1.705q.795-1.142 1.2-2.795.42-1.652.42-3.796m24.35-13.5h4.4v17.103c0 1.945-.42 3.574-1.27 4.887-.84 1.312-1.99 2.303-3.44 2.971-1.44.656-3.06.984-4.84.984q-2.76 0-4.92-.984c-1.44-.668-2.58-1.659-3.41-2.971q-1.23-1.97-1.23-4.887v-17.103h4.39v17.103c0 1.231.22 2.244.64 3.041a3.96 3.96 0 0 0 1.79 1.74c.77.375 1.69.563 2.74.563q1.59 0 2.73-.563a3.96 3.96 0 0 0 1.79-1.74q.63-1.195.63-3.041zm27.03 22.095v3.498h-13.59v-3.498zm-12.34-22.095v25.593h-4.41v-25.593zm10.56 10.687v3.445h-11.81v-3.445zm1.69-10.687v3.515h-13.5v-3.515zm18.24 19.002c0-.528-.09-.997-.25-1.407-.15-.41-.43-.785-.83-1.125-.39-.34-.96-.668-1.68-.984-.72-.328-1.63-.662-2.75-1.002a31 31 0 0 1-3.37-1.248q-1.53-.704-2.67-1.617c-.76-.621-1.36-1.33-1.78-2.127q-.63-1.213-.63-2.795c0-1.043.22-1.992.65-2.848a6.7 6.7 0 0 1 1.88-2.215c.82-.632 1.79-1.119 2.9-1.459 1.11-.351 2.35-.527 3.69-.527 1.9 0 3.54.352 4.91 1.055q2.07 1.054 3.18 2.83c.75 1.183 1.12 2.49 1.12 3.92h-4.37c0-.844-.18-1.588-.55-2.233q-.525-.984-1.62-1.547c-.71-.375-1.62-.562-2.72-.562-1.04 0-1.91.158-2.6.475s-1.21.744-1.55 1.283a3.35 3.35 0 0 0-.51 1.828c0 .48.11.92.34 1.318q.33.58 1.02 1.09c.45.328 1.03.639 1.72.932s1.5.574 2.44.843c1.42.422 2.66.891 3.71 1.407 1.06.504 1.93 1.078 2.64 1.722.7.645 1.23 1.377 1.58 2.198.35.808.53 1.728.53 2.759 0 1.079-.22 2.051-.65 2.918a6.4 6.4 0 0 1-1.87 2.198q-1.185.896-2.88 1.388c-1.11.317-2.36.475-3.73.475-1.23 0-2.44-.164-3.64-.492a10.7 10.7 0 0 1-3.23-1.494 7.7 7.7 0 0 1-2.32-2.532c-.57-1.019-.86-2.209-.86-3.568h4.41q0 1.248.42 2.127c.3.586.7 1.066 1.22 1.441a5.4 5.4 0 0 0 1.79.809c.69.176 1.43.264 2.21.264 1.03 0 1.9-.147 2.59-.44.7-.293 1.23-.703 1.58-1.23.35-.528.53-1.137.53-1.828m19.94-19.002v25.593h-4.38v-25.593zm8.03 0v3.515h-20.37v-3.515zm17.64 19.002c0-.528-.08-.997-.25-1.407-.15-.41-.42-.785-.82-1.125s-.96-.668-1.69-.984c-.71-.328-1.63-.662-2.74-1.002a30 30 0 0 1-3.38-1.248q-1.53-.704-2.67-1.617-1.14-.931-1.77-2.127c-.43-.809-.64-1.74-.64-2.795 0-1.043.22-1.992.65-2.848a6.8 6.8 0 0 1 1.88-2.215c.82-.632 1.79-1.119 2.9-1.459 1.12-.351 2.35-.527 3.7-.527 1.89 0 3.53.352 4.9 1.055q2.07 1.054 3.18 2.83a7.2 7.2 0 0 1 1.13 3.92h-4.38q0-1.266-.54-2.233-.54-.984-1.62-1.547t-2.73-.562c-1.04 0-1.91.158-2.6.475s-1.21.744-1.55 1.283c-.33.539-.5 1.148-.5 1.828q0 .72.33 1.318.33.58 1.02 1.09c.46.328 1.03.639 1.72.932s1.51.574 2.44.843c1.42.422 2.66.891 3.71 1.407q1.59.756 2.64 1.722c.7.645 1.23 1.377 1.58 2.198.35.808.53 1.728.53 2.759 0 1.079-.22 2.051-.65 2.918-.43.856-1.06 1.588-1.86 2.198-.8.597-1.76 1.06-2.89 1.388q-1.665.475-3.72.475c-1.23 0-2.45-.164-3.64-.492a10.8 10.8 0 0 1-3.24-1.494 7.8 7.8 0 0 1-2.32-2.532c-.57-1.019-.86-2.209-.86-3.568h4.41c0 .832.14 1.541.43 2.127s.69 1.066 1.21 1.441a5.4 5.4 0 0 0 1.79.809q1.035.264 2.22.264 1.545 0 2.58-.44c.7-.293 1.23-.703 1.58-1.23.35-.528.53-1.137.53-1.828"/><g filter="url(#h)"><path fill="#f0f0df" d="M2686.5 509.469v89h-434v-89z"/><path stroke="#f1f1d2" d="M2686.5 509.469v89h-434v-89z"/><path fill="#100d26" d="M2386.71 555.606h-4.44v-2.332h4.44c.78 0 1.4-.125 1.88-.375s.82-.594 1.04-1.031c.23-.446.34-.953.34-1.524 0-.539-.11-1.043-.34-1.511a2.57 2.57 0 0 0-1.04-1.149c-.48-.289-1.1-.433-1.88-.433h-3.53v14.718h-2.95v-17.062h6.48c1.33 0 2.45.234 3.37.703.93.461 1.63 1.102 2.12 1.922.48.812.73 1.742.73 2.789 0 1.101-.25 2.047-.73 2.836-.49.789-1.19 1.394-2.12 1.816-.92.422-2.04.633-3.37.633m20.26 4.031v2.332h-8.57v-2.332zm-7.75-14.73v17.062h-2.94v-17.062zm17.62 2.273-5.1 14.789h-3.08l6.42-17.062h1.97zm4.27 14.789L2416 547.18l-.22-2.273h1.98l6.44 17.062zm-.25-6.328v2.332h-9.28v-2.332zm19.51-10.734v17.062h-2.94l-7.66-12.222v12.222h-2.94v-17.062h2.94l7.68 12.246v-12.246zm17.94 11.941v-11.941h2.93v11.941c0 1.133-.25 2.098-.73 2.895a4.76 4.76 0 0 1-1.98 1.828q-1.26.633-2.85.633c-1.08 0-2.05-.184-2.89-.551a4.3 4.3 0 0 1-1.97-1.688q-.72-1.136-.72-2.882h2.96c0 .672.1 1.214.31 1.629.22.406.53.703.92.89.4.18.86.27 1.39.27q.765 0 1.35-.34c.4-.235.71-.574.94-1.02.22-.453.34-1.007.34-1.664m20.64-3.879v.938q0 1.933-.51 3.469-.495 1.534-1.44 2.613a6.2 6.2 0 0 1-2.22 1.652c-.87.375-1.83.563-2.89.563-1.04 0-2-.188-2.87-.563a6.5 6.5 0 0 1-2.24-1.652q-.945-1.079-1.47-2.613c-.35-1.024-.52-2.18-.52-3.469v-.938c0-1.289.17-2.441.52-3.457.34-1.023.83-1.894 1.45-2.613a6.2 6.2 0 0 1 2.24-1.652c.87-.383 1.82-.575 2.87-.575q1.59 0 2.88.575c.87.375 1.62.925 2.24 1.652q.945 1.079 1.44 2.613c.35 1.016.52 2.168.52 3.457m-2.94.938v-.961c0-.953-.1-1.793-.28-2.52q-.27-1.101-.81-1.839c-.35-.5-.79-.875-1.3-1.125-.52-.258-1.1-.387-1.75-.387s-1.23.129-1.73.387c-.51.25-.95.625-1.3 1.125q-.54.738-.81 1.839c-.19.727-.28 1.567-.28 2.52v.961c0 .953.09 1.797.28 2.531.18.734.46 1.356.82 1.863.36.5.8.879 1.31 1.137.51.25 1.09.375 1.73.375.66 0 1.24-.125 1.75-.375q.765-.387 1.29-1.137c.35-.507.62-1.129.8-1.863s.28-1.578.28-2.531m16.17-9h2.93v11.402q0 1.946-.84 3.258a5.3 5.3 0 0 1-2.3 1.98c-.96.438-2.03.657-3.22.657-1.23 0-2.32-.219-3.28-.657a5.2 5.2 0 0 1-2.27-1.98c-.55-.875-.82-1.961-.82-3.258v-11.402h2.93v11.402q0 1.23.42 2.028c.28.523.68.91 1.19 1.16q.78.375 1.83.375c.7 0 1.31-.125 1.82-.375s.91-.637 1.19-1.16q.42-.797.42-2.028zm6.85 0h6.04c1.3 0 2.4.195 3.32.586.91.39 1.61.969 2.09 1.734.49.758.74 1.695.74 2.813 0 .851-.16 1.601-.47 2.25a4.54 4.54 0 0 1-1.32 1.64q-.855.657-2.04 1.02l-.89.433h-5.43l-.02-2.332h4.07c.7 0 1.28-.125 1.75-.375s.82-.589 1.06-1.019q.36-.657.36-1.477c0-.593-.12-1.109-.35-1.547a2.3 2.3 0 0 0-1.05-1.019c-.48-.242-1.09-.363-1.82-.363h-3.1v14.718h-2.94zm9.74 17.062-4.01-7.664 3.09-.011 4.06 7.523v.152zm19.64-17.062v17.062h-2.95l-7.65-12.222v12.222h-2.94v-17.062h2.94l7.68 12.246v-12.246zm15.39 14.73v2.332h-9.06v-2.332zm-8.23-14.73v17.062h-2.94v-17.062zm7.04 7.125v2.297h-7.87v-2.297zm1.13-7.125v2.344h-9v-2.344zm4.81 0 3.96 8.144 3.96-8.144h3.26l-5.74 10.781v6.281h-2.97v-6.281l-5.74-10.781z"/><path fill="#80823a" d="M2252 598.969h435v10h-435z"/></g><g filter="url(#i)"><path fill="#f0f0df" d="M2687.5 639.469v89h-435v-89z"/><path stroke="#f1f1d2" d="M2687.5 639.469v89h-435v-89z"/><path fill="#100d26" d="M2342.4 689.637v2.332h-9.06v-2.332zm-8.22-14.73v17.062h-2.95v-17.062zm7.04 7.125v2.297h-7.88v-2.297zm1.12-7.125v2.344h-9v-2.344zm5.42 0 3.62 6.223 3.63-6.223h3.38l-5.15 8.449 5.28 8.613h-3.42l-3.72-6.339-3.71 6.339h-3.43l5.29-8.613-5.17-8.449zm20.13 10.699h-4.44v-2.332h4.44c.77 0 1.4-.125 1.87-.375q.72-.375 1.05-1.031a3.4 3.4 0 0 0 .34-1.524c0-.539-.12-1.043-.34-1.511q-.33-.715-1.05-1.149c-.47-.289-1.1-.433-1.87-.433h-3.54v14.718h-2.94v-17.062h6.48q1.98 0 3.36.703c.93.461 1.64 1.102 2.12 1.922.49.812.73 1.742.73 2.789 0 1.101-.24 2.047-.73 2.836-.48.789-1.19 1.394-2.12 1.816q-1.38.633-3.36.633m20.25 4.031v2.332h-8.56v-2.332zm-7.74-14.73v17.062h-2.94v-17.062zm23.57 8.062v.938c0 1.289-.17 2.445-.5 3.469-.34 1.023-.82 1.894-1.45 2.613a6.1 6.1 0 0 1-2.22 1.652q-1.305.563-2.88.563t-2.88-.563a6.4 6.4 0 0 1-2.23-1.652c-.64-.719-1.13-1.59-1.48-2.613-.34-1.024-.52-2.18-.52-3.469v-.938c0-1.289.18-2.441.52-3.457.34-1.023.83-1.894 1.45-2.613a6.3 6.3 0 0 1 2.24-1.652c.87-.383 1.82-.575 2.87-.575q1.59 0 2.88.575c.87.375 1.62.925 2.24 1.652q.945 1.079 1.44 2.613c.35 1.016.52 2.168.52 3.457m-2.94.938v-.961c0-.953-.1-1.793-.28-2.52q-.27-1.101-.81-1.839c-.35-.5-.79-.875-1.3-1.125-.52-.258-1.1-.387-1.75-.387s-1.22.129-1.73.387c-.51.25-.94.625-1.3 1.125q-.525.738-.81 1.839c-.19.727-.28 1.567-.28 2.52v.961c0 .953.09 1.797.28 2.531s.46 1.356.82 1.863c.37.5.8.879 1.31 1.137q.765.375 1.74.375t1.74-.375q.765-.387 1.29-1.137c.35-.507.62-1.129.8-1.863s.28-1.578.28-2.531m6.6-9h6.04c1.29 0 2.4.195 3.31.586q1.38.586 2.1 1.734c.49.758.74 1.695.74 2.813 0 .851-.16 1.601-.47 2.25a4.54 4.54 0 0 1-1.32 1.64q-.855.657-2.04 1.02l-.89.433h-5.43l-.02-2.332h4.06c.71 0 1.29-.125 1.76-.375s.82-.589 1.06-1.019q.36-.657.36-1.477c0-.593-.12-1.109-.35-1.547a2.28 2.28 0 0 0-1.06-1.019c-.47-.242-1.08-.363-1.81-.363h-3.1v14.718h-2.94zm9.74 17.062-4.01-7.664 3.08-.011 4.07 7.523v.152zm17.27-2.332v2.332h-9.06v-2.332zm-8.23-14.73v17.062h-2.94v-17.062zm7.04 7.125v2.297h-7.87v-2.297zm1.13-7.125v2.344h-9v-2.344zm16.36 10.699h-4.45v-2.332h4.45c.77 0 1.39-.125 1.87-.375s.83-.594 1.04-1.031c.23-.446.34-.953.34-1.524 0-.539-.11-1.043-.34-1.511-.21-.477-.56-.86-1.04-1.149s-1.1-.433-1.87-.433h-3.54v14.718h-2.94v-17.062h6.48q1.98 0 3.36.703c.93.461 1.64 1.102 2.12 1.922.48.812.73 1.742.73 2.789 0 1.101-.25 2.047-.73 2.836s-1.19 1.394-2.12 1.816q-1.38.633-3.36.633m23.17-2.637v.938q0 1.933-.51 3.469-.495 1.534-1.44 2.613a6.2 6.2 0 0 1-2.22 1.652c-.87.375-1.83.563-2.89.563-1.04 0-2-.188-2.87-.563a6.5 6.5 0 0 1-2.24-1.652q-.945-1.079-1.47-2.613c-.35-1.024-.52-2.18-.52-3.469v-.938c0-1.289.17-2.441.52-3.457.34-1.023.83-1.894 1.45-2.613a6.2 6.2 0 0 1 2.24-1.652c.87-.383 1.82-.575 2.87-.575q1.59 0 2.88.575c.87.375 1.62.925 2.24 1.652q.945 1.079 1.44 2.613c.35 1.016.52 2.168.52 3.457m-2.94.938v-.961c0-.953-.1-1.793-.28-2.52q-.27-1.101-.81-1.839c-.35-.5-.79-.875-1.3-1.125-.52-.258-1.1-.387-1.75-.387s-1.23.129-1.73.387c-.51.25-.95.625-1.3 1.125q-.54.738-.81 1.839c-.19.727-.28 1.567-.28 2.52v.961c0 .953.09 1.797.28 2.531.18.734.46 1.356.82 1.863.36.5.8.879 1.31 1.137.51.25 1.09.375 1.73.375.66 0 1.24-.125 1.75-.375q.765-.387 1.29-1.137c.35-.507.62-1.129.8-1.863s.28-1.578.28-2.531m15.58 3.668c0-.352-.06-.664-.17-.938-.1-.273-.28-.523-.55-.75-.26-.226-.64-.445-1.12-.656q-.72-.328-1.83-.668a21 21 0 0 1-2.25-.832 8.6 8.6 0 0 1-1.78-1.078 4.7 4.7 0 0 1-1.19-1.418q-.42-.808-.42-1.863c0-.696.15-1.328.44-1.899a4.3 4.3 0 0 1 1.25-1.476 6 6 0 0 1 1.93-.973 8.2 8.2 0 0 1 2.46-.352q1.905 0 3.27.704c.93.468 1.63 1.097 2.12 1.886q.75 1.183.75 2.614h-2.91c0-.563-.12-1.059-.37-1.489-.23-.437-.59-.781-1.07-1.031s-1.09-.375-1.82-.375c-.7 0-1.27.106-1.74.316-.46.211-.8.497-1.03.856-.22.359-.34.766-.34 1.219 0 .32.08.613.23.879.14.257.37.5.68.726q.45.329 1.14.621c.47.196 1.01.383 1.63.563.95.281 1.77.594 2.48.937.7.336 1.28.719 1.75 1.149.47.429.82.918 1.06 1.465.23.539.35 1.152.35 1.839 0 .719-.14 1.368-.43 1.946-.29.57-.71 1.058-1.25 1.465q-.795.598-1.92.925c-.74.211-1.57.317-2.48.317q-1.23 0-2.43-.328a7 7 0 0 1-2.15-.996 5.1 5.1 0 0 1-1.55-1.688c-.38-.68-.58-1.473-.58-2.379h2.95c0 .555.09 1.027.28 1.418q.285.586.81.961a3.6 3.6 0 0 0 1.19.539c.46.117.95.176 1.48.176.69 0 1.26-.098 1.72-.293.47-.195.82-.469 1.06-.82.23-.352.35-.758.35-1.219m15.25 0c0-.352-.06-.664-.17-.938-.1-.273-.28-.523-.55-.75-.26-.226-.64-.445-1.12-.656q-.72-.328-1.83-.668a21 21 0 0 1-2.25-.832 8.6 8.6 0 0 1-1.78-1.078c-.51-.414-.9-.887-1.18-1.418-.29-.539-.43-1.16-.43-1.863 0-.696.15-1.328.44-1.899a4.3 4.3 0 0 1 1.25-1.476 6 6 0 0 1 1.93-.973 8.2 8.2 0 0 1 2.47-.352c1.26 0 2.35.235 3.26.704.93.468 1.63 1.097 2.13 1.886q.75 1.183.75 2.614H2502c0-.563-.12-1.059-.37-1.489-.23-.437-.59-.781-1.07-1.031s-1.09-.375-1.82-.375c-.7 0-1.27.106-1.73.316-.47.211-.81.497-1.04.856-.22.359-.34.766-.34 1.219 0 .32.08.613.23.879.15.257.37.5.68.726.3.219.68.426 1.15.621q.69.294 1.62.563c.95.281 1.77.594 2.48.937.7.336 1.29.719 1.75 1.149.47.429.83.918 1.06 1.465.23.539.35 1.152.35 1.839 0 .719-.14 1.368-.43 1.946a4.3 4.3 0 0 1-1.24 1.465c-.54.398-1.18.707-1.93.925-.74.211-1.57.317-2.48.317q-1.23 0-2.43-.328a7.1 7.1 0 0 1-2.15-.996 5.1 5.1 0 0 1-1.55-1.688q-.57-1.02-.57-2.379h2.94c0 .555.09 1.027.28 1.418q.285.586.81.961a3.6 3.6 0 0 0 1.19.539c.46.117.96.176 1.48.176.69 0 1.26-.098 1.72-.293.47-.195.82-.469 1.06-.82.23-.352.35-.758.35-1.219m9.41-12.668v17.062h-2.94v-17.062zm10.78 9.351h-4.35l-.02-2.144h3.79c.64 0 1.19-.094 1.63-.281.46-.196.8-.473 1.03-.832q.36-.552.36-1.325 0-.855-.33-1.394c-.22-.36-.56-.621-1.01-.785q-.675-.246-1.71-.246h-2.85v14.718h-2.94v-17.062h5.79c.94 0 1.77.09 2.51.269s1.37.461 1.88.844c.53.375.92.852 1.19 1.43s.41 1.265.41 2.062q0 1.055-.51 1.934c-.33.578-.83 1.051-1.49 1.418-.65.367-1.47.586-2.44.656zm-.13 7.711h-5.15l1.33-2.332h3.82c.66 0 1.22-.109 1.66-.328.45-.226.78-.535 1-.926.23-.398.34-.863.34-1.394 0-.555-.1-1.035-.29-1.442a2.06 2.06 0 0 0-.93-.949q-.63-.34-1.65-.34h-3.31l.03-2.144h4.3l.67.808c.93.032 1.7.239 2.3.622.61.382 1.07.878 1.36 1.488q.45.913.45 1.969 0 1.629-.72 2.73c-.46.734-1.14 1.293-2.02 1.676-.89.375-1.95.562-3.19.562m12.75-17.062v17.062h-2.94v-17.062zm15.07 14.73v2.332h-8.57v-2.332zm-7.75-14.73v17.062h-2.94v-17.062zm13.88 0v17.062h-2.94v-17.062zm11.05 0v17.062h-2.92v-17.062zm5.35 0v2.344h-13.58v-2.344zm6.11 0v17.062h-2.94v-17.062zm15.55 14.73v2.332h-9.06v-2.332zm-8.23-14.73v17.062h-2.94v-17.062zm7.04 7.125v2.297h-7.87v-2.297zm1.13-7.125v2.344h-9v-2.344zm12.16 12.668c0-.352-.06-.664-.17-.938-.1-.273-.28-.523-.55-.75-.26-.226-.64-.445-1.12-.656q-.72-.328-1.83-.668a21 21 0 0 1-2.25-.832 8.3 8.3 0 0 1-1.78-1.078 4.6 4.6 0 0 1-1.19-1.418q-.42-.808-.42-1.863c0-.696.15-1.328.43-1.899q.45-.855 1.26-1.476a6 6 0 0 1 1.93-.973q1.11-.351 2.46-.352 1.905 0 3.27.704c.92.468 1.63 1.097 2.12 1.886q.75 1.183.75 2.614h-2.91c0-.563-.13-1.059-.37-1.489q-.345-.656-1.08-1.031c-.47-.25-1.08-.375-1.81-.375q-1.05 0-1.74.316c-.46.211-.8.497-1.03.856-.22.359-.34.766-.34 1.219 0 .32.08.613.22.879.15.257.38.5.68.726.31.219.69.426 1.15.621.46.196 1.01.383 1.63.563.95.281 1.77.594 2.47.937.71.336 1.29.719 1.76 1.149.47.429.82.918 1.06 1.465.23.539.35 1.152.35 1.839a4.4 4.4 0 0 1-.43 1.946c-.29.57-.71 1.058-1.25 1.465q-.795.598-1.92.925c-.74.211-1.57.317-2.48.317q-1.23 0-2.43-.328a7.2 7.2 0 0 1-2.16-.996 5.2 5.2 0 0 1-1.54-1.688c-.39-.68-.58-1.473-.58-2.379h2.94c0 .555.1 1.027.29 1.418s.46.711.8.961q.525.363 1.2.539c.46.117.95.176 1.48.176.68 0 1.26-.098 1.72-.293q.705-.293 1.05-.82.36-.528.36-1.219"/><path fill="#80823a" d="M2252 728.969h435v10h-435z"/></g><g filter="url(#j)"><path fill="#f0f0df" d="M2688.5 769.469v89h-436v-89z"/><path stroke="#f1f1d2" d="M2688.5 769.469v89h-436v-89z"/><path fill="#100d26" d="M2386.84 812.969v.938c0 1.289-.17 2.445-.5 3.469-.34 1.023-.82 1.894-1.45 2.613a6.1 6.1 0 0 1-2.22 1.652q-1.305.563-2.88.563t-2.88-.563a6.4 6.4 0 0 1-2.23-1.652c-.64-.719-1.13-1.59-1.48-2.613-.34-1.024-.52-2.18-.52-3.469v-.938c0-1.289.18-2.441.52-3.457.34-1.023.83-1.894 1.45-2.613a6.3 6.3 0 0 1 2.24-1.652c.87-.383 1.82-.575 2.87-.575q1.59 0 2.88.575c.87.375 1.62.925 2.24 1.652q.945 1.079 1.44 2.613c.35 1.016.52 2.168.52 3.457m-2.94.938v-.961c0-.953-.1-1.793-.28-2.52q-.27-1.101-.81-1.839c-.35-.5-.79-.875-1.3-1.125-.52-.258-1.1-.387-1.75-.387s-1.22.129-1.73.387c-.51.25-.94.625-1.3 1.125q-.525.738-.81 1.839c-.19.727-.28 1.567-.28 2.52v.961c0 .953.09 1.797.28 2.531s.46 1.356.82 1.863c.37.5.8.879 1.31 1.137q.765.375 1.74.375t1.74-.375q.765-.387 1.29-1.137c.35-.507.62-1.129.8-1.863s.28-1.578.28-2.531m13 .351h-4.35l-.02-2.144h3.8q.96 0 1.62-.281c.46-.196.8-.473 1.04-.832.23-.368.35-.809.35-1.325q0-.855-.33-1.394c-.22-.36-.56-.621-1.01-.785q-.66-.246-1.71-.246h-2.85v14.718h-2.94v-17.062h5.79c.94 0 1.77.09 2.51.269s1.37.461 1.88.844c.53.375.92.852 1.19 1.43s.41 1.265.41 2.062q0 1.055-.51 1.934c-.33.578-.83 1.051-1.48 1.418-.66.367-1.48.586-2.45.656zm-.13 7.711h-5.14l1.32-2.332h3.82c.66 0 1.22-.109 1.66-.328.45-.226.78-.535 1-.926.23-.398.34-.863.34-1.394 0-.555-.1-1.035-.29-1.442a2.06 2.06 0 0 0-.93-.949q-.63-.34-1.65-.34h-3.31l.03-2.144h4.3l.67.808q1.395.048 2.31.622c.61.382 1.06.878 1.36 1.488.29.609.44 1.265.44 1.969 0 1.086-.24 1.996-.71 2.73s-1.15 1.293-2.03 1.676c-.88.375-1.95.562-3.19.562m18.59-4.394a2.5 2.5 0 0 0-.16-.938c-.1-.273-.29-.523-.55-.75-.27-.226-.64-.445-1.13-.656q-.705-.328-1.83-.668a21 21 0 0 1-2.25-.832 8.6 8.6 0 0 1-1.78-1.078c-.51-.414-.9-.887-1.18-1.418q-.42-.808-.42-1.863c0-.696.14-1.328.43-1.899.3-.57.72-1.062 1.25-1.476.55-.422 1.2-.746 1.94-.973q1.11-.351 2.46-.352 1.89 0 3.27.704c.92.468 1.63 1.097 2.12 1.886q.75 1.183.75 2.614h-2.92q0-.844-.36-1.489-.36-.656-1.08-1.031c-.48-.25-1.08-.375-1.82-.375-.69 0-1.27.106-1.73.316s-.81.497-1.03.856c-.23.359-.34.766-.34 1.219 0 .32.07.613.22.879.15.257.38.5.68.726.31.219.69.426 1.15.621.46.196 1 .383 1.63.563.94.281 1.77.594 2.47.937.7.336 1.29.719 1.76 1.149q.705.644 1.05 1.465c.24.539.35 1.152.35 1.839 0 .719-.14 1.368-.43 1.946-.29.57-.7 1.058-1.24 1.465q-.795.598-1.92.925-1.11.317-2.49.317c-.82 0-1.63-.11-2.42-.328a7.2 7.2 0 0 1-2.16-.996 5.2 5.2 0 0 1-1.55-1.688q-.57-1.02-.57-2.379h2.94c0 .555.09 1.027.28 1.418q.3.586.81.961.51.363 1.2.539t1.47.176c.69 0 1.26-.098 1.73-.293.46-.195.82-.469 1.05-.82.23-.352.35-.758.35-1.219m17.44 2.062v2.332h-9.05v-2.332zm-8.22-14.73v17.062h-2.94v-17.062zm7.04 7.125v2.297h-7.87v-2.297zm1.13-7.125v2.344h-9v-2.344zm3.18 0h6.03c1.3 0 2.4.195 3.32.586q1.365.586 2.1 1.734c.49.758.73 1.695.73 2.813 0 .851-.15 1.601-.46 2.25a4.7 4.7 0 0 1-1.33 1.64q-.855.657-2.04 1.02l-.89.433h-5.42l-.03-2.332h4.07c.7 0 1.29-.125 1.76-.375q.705-.375 1.05-1.019.36-.657.36-1.477c0-.593-.11-1.109-.35-1.547a2.2 2.2 0 0 0-1.05-1.019c-.48-.242-1.08-.363-1.82-.363h-3.09v14.718h-2.94zm9.74 17.062-4.01-7.664 3.08-.011 4.07 7.523v.152zm11.71-3.117 4.49-13.945h3.24l-6.12 17.062h-2.19zm-4.15-13.945 4.45 13.945.61 3.117h-2.2l-6.1-17.062zm25.68 14.73v2.332h-9.06v-2.332zm-8.23-14.73v17.062h-2.94v-17.062zm7.05 7.125v2.297h-7.88v-2.297zm1.12-7.125v2.344h-9v-2.344zm16.34 0v17.062h-2.92v-17.062zm5.35 0v2.344h-13.58v-2.344zm14.14 14.73v2.332h-9.06v-2.332zm-8.23-14.73v17.062h-2.94v-17.062zm7.05 7.125v2.297h-7.88v-2.297zm1.12-7.125v2.344h-9v-2.344zm9.83 2.273-5.1 14.789h-3.08l6.42-17.062h1.97zm4.26 14.789-5.11-14.789-.22-2.273h1.98l6.45 17.062zm-.24-6.328v2.332h-9.29v-2.332zm7.16-10.734h2.63l4.93 13.16 4.92-13.16h2.63l-6.52 17.062h-2.09zm-1.19 0h2.49l.44 11.39v5.672h-2.93zm15 0h2.5v17.062H2549v-5.672zm15.69 12.668a2.5 2.5 0 0 0-.16-.938c-.1-.273-.29-.523-.55-.75-.27-.226-.64-.445-1.13-.656q-.705-.328-1.83-.668a21 21 0 0 1-2.25-.832 8.6 8.6 0 0 1-1.78-1.078c-.5-.414-.9-.887-1.18-1.418q-.42-.808-.42-1.863c0-.696.14-1.328.43-1.899.3-.57.72-1.062 1.25-1.476.55-.422 1.2-.746 1.94-.973q1.11-.351 2.46-.352c1.27 0 2.35.235 3.27.704s1.63 1.097 2.12 1.886q.75 1.183.75 2.614h-2.92q0-.844-.36-1.489a2.47 2.47 0 0 0-1.08-1.031c-.48-.25-1.08-.375-1.82-.375-.69 0-1.27.106-1.73.316s-.8.497-1.03.856-.34.766-.34 1.219c0 .32.07.613.22.879.15.257.38.5.68.726.31.219.69.426 1.15.621.46.196 1 .383 1.63.563.94.281 1.77.594 2.47.937.7.336 1.29.719 1.76 1.149q.705.644 1.05 1.465.36.808.36 1.839c0 .719-.15 1.368-.44 1.946-.29.57-.7 1.058-1.24 1.465q-.795.598-1.92.925-1.11.317-2.49.317c-.82 0-1.63-.11-2.42-.328a7.2 7.2 0 0 1-2.16-.996 5.2 5.2 0 0 1-1.55-1.688q-.57-1.02-.57-2.379h2.94c0 .555.1 1.027.28 1.418q.3.586.81.961c.35.242.74.422 1.2.539q.69.176 1.47.176c.69 0 1.26-.098 1.73-.293.46-.195.82-.469 1.05-.82.23-.352.35-.758.35-1.219"/><path fill="#80823a" d="M2252 858.969h437v10h-437z"/></g><g filter="url(#k)"><path fill="#f0f0df" d="M2687.5 899.469v89h-435v-89z"/><path stroke="#f1f1d2" d="M2687.5 899.469v89h-435v-89z"/><path fill="#100d26" d="M2347.84 943.251v6.515q-.375.481-1.14 1.055c-.51.375-1.18.699-2.03.973q-1.26.41-3.15.41-1.605 0-2.94-.539a6.5 6.5 0 0 1-2.31-1.606c-.64-.703-1.14-1.558-1.49-2.566-.35-1.016-.53-2.172-.53-3.469v-1.184q0-1.933.48-3.445.495-1.523 1.41-2.578a5.9 5.9 0 0 1 2.2-1.594c.87-.367 1.85-.551 2.95-.551 1.39 0 2.55.235 3.46.704.93.461 1.64 1.101 2.14 1.921s.81 1.758.95 2.813h-2.89a4.3 4.3 0 0 0-.55-1.594 2.76 2.76 0 0 0-1.15-1.101q-.735-.41-1.92-.41c-.68 0-1.28.128-1.79.386q-.78.387-1.29 1.137c-.34.5-.59 1.109-.76 1.828s-.26 1.539-.26 2.461v1.207c0 .938.1 1.77.29 2.496q.315 1.09.87 1.84c.38.5.85.879 1.4 1.137.54.25 1.16.375 1.85.375q1.005 0 1.65-.164.645-.176 1.02-.411.39-.246.6-.468v-3.387h-3.55v-2.191zm15.14 6.386v2.332h-9.06v-2.332zm-8.22-14.73v17.062h-2.95v-17.062zm7.04 7.125v2.297h-7.88v-2.297zm1.12-7.125v2.344h-9v-2.344zm10.44 0v17.062h-2.92v-17.062zm5.35 0v2.344h-13.58v-2.344zm15.56 0v17.062h-2.91v-17.062zm5.36 0v2.344h-13.58v-2.344zm14.14 14.73v2.332h-9.06v-2.332zm-8.23-14.73v17.062h-2.94v-17.062zm7.04 7.125v2.297h-7.87v-2.297zm1.13-7.125v2.344h-9v-2.344zm9.82 2.273-5.09 14.789h-3.08l6.42-17.062h1.97zm4.27 14.789-5.11-14.789-.22-2.273h1.98l6.44 17.062zm-.25-6.328v2.332h-9.28v-2.332zm7.17-10.734h2.62l4.94 13.16 4.92-13.16h2.63l-6.52 17.062h-2.09zm-1.2 0h2.5l.43 11.39v5.672h-2.93zm15 0h2.51v17.062h-2.94v-5.672zm24.59 14.73v2.332h-9.06v-2.332zm-8.23-14.73v17.062h-2.94v-17.062zm7.05 7.125v2.297h-7.88v-2.297zm1.12-7.125v2.344h-9v-2.344zm5.42 0 3.62 6.223 3.62-6.223h3.39l-5.16 8.449 5.29 8.613h-3.42l-3.72-6.339-3.71 6.339h-3.44l5.3-8.613-5.17-8.449zm20.13 10.699h-4.45v-2.332h4.45c.77 0 1.39-.125 1.87-.375s.82-.594 1.04-1.031c.23-.446.34-.953.34-1.524 0-.539-.11-1.043-.34-1.511a2.57 2.57 0 0 0-1.04-1.149c-.48-.289-1.1-.433-1.87-.433h-3.54v14.718h-2.94v-17.062h6.48q1.98 0 3.36.703c.93.461 1.64 1.102 2.12 1.922.48.812.73 1.742.73 2.789 0 1.101-.25 2.047-.73 2.836s-1.19 1.394-2.12 1.816q-1.38.633-3.36.633m20.73 4.031v2.332h-9.06v-2.332zm-8.23-14.73v17.062h-2.94v-17.062zm7.05 7.125v2.297h-7.88v-2.297zm1.12-7.125v2.344h-9v-2.344zm3.18 0h6.04c1.3 0 2.4.195 3.32.586.91.39 1.61.969 2.09 1.734.5.758.74 1.695.74 2.813 0 .851-.15 1.601-.47 2.25a4.54 4.54 0 0 1-1.32 1.64q-.855.657-2.04 1.02l-.89.433h-5.43l-.02-2.332h4.07c.7 0 1.28-.125 1.75-.375s.82-.589 1.06-1.019q.36-.657.36-1.477c0-.593-.12-1.109-.35-1.547a2.3 2.3 0 0 0-1.05-1.019c-.48-.242-1.09-.363-1.82-.363h-3.09v14.718h-2.95zm9.74 17.062-4.01-7.664 3.09-.011 4.06 7.523v.152zm9.24-17.062v17.062h-2.94v-17.062zm15.55 14.73v2.332h-9.06v-2.332zm-8.23-14.73v17.062h-2.94v-17.062zm7.04 7.125v2.297h-7.87v-2.297zm1.13-7.125v2.344h-9v-2.344zm16.71 0v17.062h-2.94l-7.65-12.222v12.222h-2.94v-17.062h2.94l7.68 12.246v-12.246zm14.31 11.508h2.93c-.1 1.117-.41 2.113-.94 2.988-.53.867-1.28 1.551-2.24 2.051s-2.13.75-3.5.75q-1.59 0-2.85-.563a6.2 6.2 0 0 1-2.17-1.617q-.9-1.055-1.38-2.543c-.32-.992-.47-2.101-.47-3.328v-1.418q0-1.84.48-3.328c.33-.992.8-1.84 1.4-2.543a6.04 6.04 0 0 1 2.2-1.629c.86-.375 1.82-.563 2.89-.563q2.04 0 3.45.75c.93.5 1.66 1.192 2.18 2.075q.78 1.324.96 3.035h-2.93c-.08-.735-.25-1.363-.52-1.887a2.66 2.66 0 0 0-1.15-1.195c-.5-.281-1.17-.422-1.99-.422-.67 0-1.26.125-1.76.375s-.91.617-1.25 1.102c-.34.484-.59 1.082-.76 1.792-.17.704-.25 1.508-.25 2.415v1.441c0 .859.08 1.641.22 2.344.16.695.39 1.293.71 1.793s.72.886 1.22 1.16q.735.41 1.77.41c.83 0 1.51-.133 2.02-.398.53-.266.92-.653 1.19-1.161q.405-.773.54-1.886m17.48 3.222v2.332h-9.05v-2.332zm-8.22-14.73v17.062h-2.94v-17.062zm7.04 7.125v2.297h-7.87v-2.297zm1.13-7.125v2.344h-9v-2.344z"/><path fill="#80823a" d="M2252 988.969h435v10h-435z"/></g><g filter="url(#l)"><path fill="#f0f0df" d="M2686.5 1029.47v89h-434v-89z"/><path stroke="#f1f1d2" d="M2686.5 1029.47v89h-434v-89z"/><path fill="#100d26" d="M2378.69 1081.97h-3.64l.02-2.33h3.62c1.06 0 1.94-.23 2.65-.69q1.08-.705 1.62-1.98c.36-.86.55-1.89.55-3.07v-.93c0-.92-.11-1.74-.32-2.45-.2-.71-.51-1.31-.91-1.79-.4-.49-.89-.85-1.48-1.1-.58-.25-1.25-.38-2-.38h-3.82v-2.34h3.82c1.13 0 2.16.19 3.1.57s1.75.92 2.43 1.63c.69.71 1.21 1.56 1.58 2.55.37 1 .55 2.11.55 3.33v.91c0 1.22-.18 2.33-.55 3.32-.37 1-.89 1.85-1.58 2.56-.69.7-1.51 1.24-2.46 1.63-.95.37-2.01.56-3.18.56m-2.01-17.06v17.06h-2.95v-17.06zm24.62 14.73v2.33h-9.06v-2.33zm-8.22-14.73v17.06h-2.95v-17.06zm7.04 7.12v2.3h-7.88v-2.3zm1.12-7.12v2.34h-9v-2.34zm9.03 13.94 4.49-13.94h3.25l-6.12 17.06h-2.19zm-4.15-13.94 4.46 13.94.61 3.12h-2.21l-6.09-17.06zm25.68 14.73v2.33h-9.05v-2.33zm-8.22-14.73v17.06h-2.94v-17.06zm7.04 7.12v2.3h-7.87v-2.3zm1.13-7.12v2.34h-9v-2.34zm13.86 14.73v2.33h-8.56v-2.33zm-7.74-14.73v17.06h-2.94v-17.06zm23.57 8.06v.94c0 1.29-.17 2.44-.5 3.47-.34 1.02-.82 1.89-1.45 2.61a6.04 6.04 0 0 1-2.22 1.65c-.87.38-1.83.56-2.88.56s-2.01-.18-2.88-.56c-.86-.38-1.6-.93-2.23-1.65-.64-.72-1.13-1.59-1.48-2.61-.34-1.03-.52-2.18-.52-3.47v-.94c0-1.29.18-2.44.52-3.46s.83-1.89 1.45-2.61c.64-.73 1.38-1.28 2.24-1.65.87-.39 1.82-.58 2.87-.58 1.06 0 2.02.19 2.88.58.87.37 1.62.92 2.24 1.65q.945 1.08 1.44 2.61c.35 1.02.52 2.17.52 3.46m-2.94.94v-.96c0-.96-.1-1.8-.28-2.52-.18-.74-.45-1.35-.81-1.84-.35-.5-.79-.88-1.3-1.13-.52-.26-1.1-.39-1.75-.39s-1.22.13-1.73.39c-.51.25-.94.63-1.3 1.13-.36.49-.62 1.1-.81 1.84-.19.72-.28 1.56-.28 2.52v.96c0 .95.09 1.79.28 2.53.19.73.46 1.35.82 1.86.37.5.8.88 1.31 1.14.51.25 1.09.37 1.74.37s1.23-.12 1.74-.37q.765-.39 1.29-1.14c.35-.51.62-1.13.8-1.86.18-.74.28-1.58.28-2.53m13.08 1.7h-4.44v-2.34h4.44c.78 0 1.4-.12 1.88-.37.47-.25.82-.59 1.04-1.03.23-.45.34-.96.34-1.53 0-.53-.11-1.04-.34-1.51-.22-.47-.57-.86-1.04-1.15-.48-.28-1.1-.43-1.88-.43h-3.54v14.72h-2.94v-17.06h6.48c1.32 0 2.44.23 3.36.7q1.395.69 2.13 1.92.72 1.215.72 2.79c0 1.1-.24 2.05-.72 2.84-.49.79-1.2 1.39-2.13 1.81-.92.43-2.04.64-3.36.64m25.24 1.96c0-.35-.05-.66-.16-.93-.1-.28-.29-.53-.55-.75-.27-.23-.64-.45-1.13-.66-.47-.22-1.08-.44-1.83-.67a20 20 0 0 1-2.25-.83c-.68-.31-1.27-.67-1.78-1.08-.5-.41-.9-.88-1.18-1.42-.28-.53-.42-1.16-.42-1.86 0-.69.14-1.33.43-1.9q.45-.855 1.26-1.47c.54-.43 1.19-.75 1.93-.98a8.3 8.3 0 0 1 2.46-.35c1.27 0 2.36.24 3.27.71.92.46 1.63 1.09 2.12 1.88.5.79.75 1.66.75 2.62h-2.92c0-.57-.12-1.06-.36-1.49-.24-.44-.59-.78-1.08-1.03-.48-.25-1.08-.38-1.82-.38-.69 0-1.27.11-1.73.32s-.8.49-1.03.85-.34.77-.34 1.22c0 .32.07.61.22.88.15.26.38.5.68.73.31.22.69.42 1.15.62.46.19 1 .38 1.63.56.94.28 1.77.59 2.47.94.7.33 1.29.72 1.76 1.15s.82.91 1.05 1.46c.24.54.36 1.15.36 1.84 0 .72-.15 1.37-.44 1.95-.29.57-.7 1.06-1.24 1.46q-.795.6-1.92.93c-.74.21-1.57.31-2.49.31-.82 0-1.63-.11-2.42-.32-.79-.22-1.51-.56-2.16-1a5.2 5.2 0 0 1-1.55-1.69c-.38-.68-.57-1.47-.57-2.38h2.94c0 .56.1 1.03.28 1.42q.3.585.81.96c.35.24.74.42 1.2.54q.69.18 1.47.18c.69 0 1.27-.1 1.73-.3.47-.19.82-.46 1.05-.82.24-.35.35-.75.35-1.22m9.22-12.66v17.06h-2.94v-17.06zm10.25 0-6.91 8.21-3.94 4.17-.51-2.91 2.81-3.47 4.97-6zm-3.16 17.06-5.61-8.09 2.02-2 7.08 10.09zm8.99-17.06v17.06h-2.94v-17.06zm15.07 14.73v2.33h-8.57v-2.33zm-7.75-14.73v17.06h-2.94v-17.06zm21.43 14.73v2.33h-8.57v-2.33zm-7.75-14.73v17.06h-2.94v-17.06zm19.72 12.66c0-.35-.06-.66-.17-.93a1.7 1.7 0 0 0-.55-.75c-.26-.23-.64-.45-1.12-.66-.48-.22-1.09-.44-1.83-.67a20 20 0 0 1-2.25-.83c-.68-.31-1.27-.67-1.78-1.08s-.9-.88-1.19-1.42c-.28-.53-.42-1.16-.42-1.86 0-.69.15-1.33.44-1.9s.71-1.06 1.25-1.47c.55-.43 1.19-.75 1.93-.98.75-.23 1.57-.35 2.46-.35 1.27 0 2.36.24 3.27.71.93.46 1.63 1.09 2.12 1.88.5.79.75 1.66.75 2.62h-2.91c0-.57-.12-1.06-.37-1.49-.23-.44-.59-.78-1.07-1.03s-1.09-.38-1.82-.38c-.7 0-1.27.11-1.74.32-.46.21-.8.49-1.03.85-.22.36-.34.77-.34 1.22 0 .32.08.61.23.88.14.26.37.5.68.73.3.22.68.42 1.14.62.47.19 1.01.38 1.63.56.95.28 1.77.59 2.48.94.7.33 1.28.72 1.75 1.15s.82.91 1.06 1.46c.23.54.35 1.15.35 1.84 0 .72-.14 1.37-.43 1.95-.29.57-.71 1.06-1.25 1.46q-.795.6-1.92.93c-.74.21-1.57.31-2.48.31-.82 0-1.63-.11-2.43-.32-.79-.22-1.51-.56-2.15-1a5.1 5.1 0 0 1-1.55-1.69c-.38-.68-.58-1.47-.58-2.38h2.95c0 .56.09 1.03.28 1.42q.285.585.81.96c.34.24.74.42 1.19.54.46.12.95.18 1.48.18.69 0 1.26-.1 1.72-.3.47-.19.82-.46 1.06-.82.23-.35.35-.75.35-1.22"/><path fill="#80823a" d="M2252 1118.97h435v10h-435z"/></g><circle cx="2241.24" cy="1225.71" r="30" fill="#a89e9e" transform="rotate(105 2241.24 1225.71)"/><circle cx="2241.24" cy="1225.71" r="25" fill="#100d26" transform="rotate(105 2241.24 1225.71)"/><path fill="#96aab9" d="M2247.71 1249.86c4.78-1.28 9.07-3.95 12.33-7.66a25.05 25.05 0 0 0 5.99-13.22c.64-4.91-.18-9.89-2.37-14.33a25.03 25.03 0 0 0-9.92-10.59c-4.28-2.47-9.2-3.62-14.14-3.29-4.93.32-9.66 2.1-13.58 5.11a24.96 24.96 0 0 0-8.45 11.8 25 25 0 0 0-.48 14.51c1.72 6.4 5.91 11.86 11.65 15.17a24.96 24.96 0 0 0 18.97 2.5m-20.75-24.5 9.33-2.5-2.5-9.34 7.8-2.08 2.51 9.33 9.34-2.5 2.08 7.8-9.34 2.51 2.51 9.34-7.81 2.08-2.5-9.34-9.34 2.51z"/><circle cx="2706.5" cy="1225.71" r="30" fill="#a89e9e"/><circle cx="2706.5" cy="1225.71" r="25" fill="#100d26"/><path fill="#96aab9" d="M2728.15 1213.21a25.03 25.03 0 0 0-10.59-9.92 24.94 24.94 0 0 0-14.32-2.36c-4.91.64-9.51 2.73-13.22 5.99a25 25 0 0 0-7.67 12.32c-1.28 4.78-1.11 9.83.48 14.51s4.53 8.79 8.46 11.8c3.92 3.01 8.65 4.79 13.58 5.11 4.94.32 9.85-.83 14.14-3.3 5.74-3.32 9.92-8.78 11.64-15.18 1.71-6.4.82-13.23-2.5-18.97m-18.29 26.39-4.84-8.37-8.37 4.84-4.03-7 8.37-4.84-4.84-8.37 7-4.03 4.84 8.37 8.37-4.84 4.03 7-8.37 4.84 4.84 8.37z"/></g><circle cx="100.742" cy="2093.22" r="30" fill="#a89e9e" transform="rotate(105 100.742 2093.22)"/><circle cx="100.741" cy="2093.22" r="25" fill="#100d26" transform="rotate(105 100.741 2093.22)"/><path fill="#96aab9" d="M107.21 2117.37a24.98 24.98 0 0 0 18.317-20.88c.646-4.91-.177-9.89-2.365-14.32a24.98 24.98 0 0 0-24.06-13.89 24.97 24.97 0 0 0-13.584 5.11 25.06 25.06 0 0 0-8.452 11.8 25.01 25.01 0 0 0 11.177 29.69 25 25 0 0 0 18.967 2.49m-20.754-24.49 9.338-2.51-2.508-9.34 7.805-2.08 2.508 9.34 9.338-2.51 2.083 7.8-9.338 2.51 2.507 9.34-7.805 2.08-2.507-9.34-9.338 2.51z"/><circle cx="2732" cy="2093.22" r="30" fill="#a89e9e"/><circle cx="2732" cy="2093.22" r="25" fill="#100d26"/><path fill="#96aab9" d="M2753.65 2080.73a25 25 0 0 0-10.59-9.93 25.03 25.03 0 0 0-14.32-2.36c-4.91.64-9.51 2.73-13.22 5.99a24.97 24.97 0 0 0-7.19 26.83c1.59 4.69 4.53 8.79 8.46 11.8 3.92 3.01 8.65 4.79 13.58 5.11 4.94.32 9.85-.83 14.14-3.3 5.74-3.32 9.92-8.78 11.64-15.18 1.71-6.4.82-13.22-2.5-18.96m-18.29 26.38-4.84-8.37-8.37 4.84-4.03-7 8.37-4.84-4.84-8.37 7-4.03 4.84 8.37 8.37-4.84 4.03 7-8.37 4.84 4.84 8.37z"/></g><defs><filter id="f" width="1739.68" height="1376.01" x="210.143" y="461.792" color-interpolation-filters="sRGB" filterUnits="userSpaceOnUse"><feFlood flood-opacity="0" result="BackgroundImageFix"/><feColorMatrix in="SourceAlpha" result="hardAlpha" values="0 0 0 0 0 0 0 0 0 0 0 0 0 0 0 0 0 0 127 0"/><feOffset/><feGaussianBlur stdDeviation=".695"/><feColorMatrix values="0 0 0 0 0.878431 0 0 0 0 1 0 0 0 0 0.878431 0 0 0 1 0"/><feBlend in2="BackgroundImageFix" result="effect1_dropShadow_3_173"/><feColorMatrix in="SourceAlpha" result="hardAlpha" values="0 0 0 0 0 0 0 0 0 0 0 0 0 0 0 0 0 0 127 0"/><feOffset/><feGaussianBlur stdDeviation="1.39"/><feColorMatrix values="0 0 0 0 0.878431 0 0 0 0 1 0 0 0 0 0.878431 0 0 0 1 0"/><feBlend in2="effect1_dropShadow_3_173" result="effect2_dropShadow_3_173"/><feColorMatrix in="SourceAlpha" result="hardAlpha" values="0 0 0 0 0 0 0 0 0 0 0 0 0 0 0 0 0 0 127 0"/><feOffset/><feGaussianBlur stdDeviation="4.864"/><feColorMatrix values="0 0 0 0 0.878431 0 0 0 0 1 0 0 0 0 0.878431 0 0 0 1 0"/><feBlend in2="effect2_dropShadow_3_173" result="effect3_dropShadow_3_173"/><feColorMatrix in="SourceAlpha" result="hardAlpha" values="0 0 0 0 0 0 0 0 0 0 0 0 0 0 0 0 0 0 127 0"/><feOffset/><feGaussianBlur stdDeviation="9.728"/><feColorMatrix values="0 0 0 0 0.878431 0 0 0 0 1 0 0 0 0 0.878431 0 0 0 1 0"/><feBlend in2="effect3_dropShadow_3_173" result="effect4_dropShadow_3_173"/><feColorMatrix in="SourceAlpha" result="hardAlpha" values="0 0 0 0 0 0 0 0 0 0 0 0 0 0 0 0 0 0 127 0"/><feOffset/><feGaussianBlur stdDeviation="16.677"/><feColorMatrix values="0 0 0 0 0.878431 0 0 0 0 1 0 0 0 0 0.878431 0 0 0 1 0"/><feBlend in2="effect4_dropShadow_3_173" result="effect5_dropShadow_3_173"/><feColorMatrix in="SourceAlpha" result="hardAlpha" values="0 0 0 0 0 0 0 0 0 0 0 0 0 0 0 0 0 0 127 0"/><feOffset/><feGaussianBlur stdDeviation="29.184"/><feColorMatrix values="0 0 0 0 0.878431 0 0 0 0 1 0 0 0 0 0.878431 0 0 0 1 0"/><feBlend in2="effect5_dropShadow_3_173" result="effect6_dropShadow_3_173"/><feBlend in="SourceGraphic" in2="effect6_dropShadow_3_173" result="shape"/></filter><filter id="h" width="568.661" height="233.661" x="2185.17" y="442.139" color-interpolation-filters="sRGB" filterUnits="userSpaceOnUse"><feFlood flood-opacity="0" result="BackgroundImageFix"/><feColorMatrix in="SourceAlpha" result="hardAlpha" values="0 0 0 0 0 0 0 0 0 0 0 0 0 0 0 0 0 0 127 0"/><feOffset/><feGaussianBlur stdDeviation=".796"/><feColorMatrix values="0 0 0 0 0.623529 0 0 0 0 0.556863 0 0 0 0 0.556863 0 0 0 1 0"/><feBlend in2="BackgroundImageFix" result="effect1_dropShadow_3_173"/><feColorMatrix in="SourceAlpha" result="hardAlpha" values="0 0 0 0 0 0 0 0 0 0 0 0 0 0 0 0 0 0 127 0"/><feOffset/><feGaussianBlur stdDeviation="1.591"/><feColorMatrix values="0 0 0 0 0.623529 0 0 0 0 0.556863 0 0 0 0 0.556863 0 0 0 1 0"/><feBlend in2="effect1_dropShadow_3_173" result="effect2_dropShadow_3_173"/><feColorMatrix in="SourceAlpha" result="hardAlpha" values="0 0 0 0 0 0 0 0 0 0 0 0 0 0 0 0 0 0 127 0"/><feOffset/><feGaussianBlur stdDeviation="5.569"/><feColorMatrix values="0 0 0 0 0.623529 0 0 0 0 0.556863 0 0 0 0 0.556863 0 0 0 1 0"/><feBlend in2="effect2_dropShadow_3_173" result="effect3_dropShadow_3_173"/><feColorMatrix in="SourceAlpha" result="hardAlpha" values="0 0 0 0 0 0 0 0 0 0 0 0 0 0 0 0 0 0 127 0"/><feOffset/><feGaussianBlur stdDeviation="11.138"/><feColorMatrix values="0 0 0 0 0.623529 0 0 0 0 0.556863 0 0 0 0 0.556863 0 0 0 1 0"/><feBlend in2="effect3_dropShadow_3_173" result="effect4_dropShadow_3_173"/><feColorMatrix in="SourceAlpha" result="hardAlpha" values="0 0 0 0 0 0 0 0 0 0 0 0 0 0 0 0 0 0 127 0"/><feOffset/><feGaussianBlur stdDeviation="19.094"/><feColorMatrix values="0 0 0 0 0.623529 0 0 0 0 0.556863 0 0 0 0 0.556863 0 0 0 1 0"/><feBlend in2="effect4_dropShadow_3_173" result="effect5_dropShadow_3_173"/><feColorMatrix in="SourceAlpha" result="hardAlpha" values="0 0 0 0 0 0 0 0 0 0 0 0 0 0 0 0 0 0 127 0"/><feOffset/><feGaussianBlur stdDeviation="33.415"/><feColorMatrix values="0 0 0 0 0.623529 0 0 0 0 0.556863 0 0 0 0 0.556863 0 0 0 1 0"/><feBlend in2="effect5_dropShadow_3_173" result="effect6_dropShadow_3_173"/><feBlend in="SourceGraphic" in2="effect6_dropShadow_3_173" result="shape"/></filter><filter id="i" width="569.661" height="233.661" x="2185.17" y="572.139" color-interpolation-filters="sRGB" filterUnits="userSpaceOnUse"><feFlood flood-opacity="0" result="BackgroundImageFix"/><feColorMatrix in="SourceAlpha" result="hardAlpha" values="0 0 0 0 0 0 0 0 0 0 0 0 0 0 0 0 0 0 127 0"/><feOffset/><feGaussianBlur stdDeviation=".796"/><feColorMatrix values="0 0 0 0 0.623529 0 0 0 0 0.556863 0 0 0 0 0.556863 0 0 0 1 0"/><feBlend in2="BackgroundImageFix" result="effect1_dropShadow_3_173"/><feColorMatrix in="SourceAlpha" result="hardAlpha" values="0 0 0 0 0 0 0 0 0 0 0 0 0 0 0 0 0 0 127 0"/><feOffset/><feGaussianBlur stdDeviation="1.591"/><feColorMatrix values="0 0 0 0 0.623529 0 0 0 0 0.556863 0 0 0 0 0.556863 0 0 0 1 0"/><feBlend in2="effect1_dropShadow_3_173" result="effect2_dropShadow_3_173"/><feColorMatrix in="SourceAlpha" result="hardAlpha" values="0 0 0 0 0 0 0 0 0 0 0 0 0 0 0 0 0 0 127 0"/><feOffset/><feGaussianBlur stdDeviation="5.569"/><feColorMatrix values="0 0 0 0 0.623529 0 0 0 0 0.556863 0 0 0 0 0.556863 0 0 0 1 0"/><feBlend in2="effect2_dropShadow_3_173" result="effect3_dropShadow_3_173"/><feColorMatrix in="SourceAlpha" result="hardAlpha" values="0 0 0 0 0 0 0 0 0 0 0 0 0 0 0 0 0 0 127 0"/><feOffset/><feGaussianBlur stdDeviation="11.138"/><feColorMatrix values="0 0 0 0 0.623529 0 0 0 0 0.556863 0 0 0 0 0.556863 0 0 0 1 0"/><feBlend in2="effect3_dropShadow_3_173" result="effect4_dropShadow_3_173"/><feColorMatrix in="SourceAlpha" result="hardAlpha" values="0 0 0 0 0 0 0 0 0 0 0 0 0 0 0 0 0 0 127 0"/><feOffset/><feGaussianBlur stdDeviation="19.094"/><feColorMatrix values="0 0 0 0 0.623529 0 0 0 0 0.556863 0 0 0 0 0.556863 0 0 0 1 0"/><feBlend in2="effect4_dropShadow_3_173" result="effect5_dropShadow_3_173"/><feColorMatrix in="SourceAlpha" result="hardAlpha" values="0 0 0 0 0 0 0 0 0 0 0 0 0 0 0 0 0 0 127 0"/><feOffset/><feGaussianBlur stdDeviation="33.415"/><feColorMatrix values="0 0 0 0 0.623529 0 0 0 0 0.556863 0 0 0 0 0.556863 0 0 0 1 0"/><feBlend in2="effect5_dropShadow_3_173" result="effect6_dropShadow_3_173"/><feBlend in="SourceGraphic" in2="effect6_dropShadow_3_173" result="shape"/></filter><filter id="j" width="570.661" height="233.661" x="2185.17" y="702.139" color-interpolation-filters="sRGB" filterUnits="userSpaceOnUse"><feFlood flood-opacity="0" result="BackgroundImageFix"/><feColorMatrix in="SourceAlpha" result="hardAlpha" values="0 0 0 0 0 0 0 0 0 0 0 0 0 0 0 0 0 0 127 0"/><feOffset/><feGaussianBlur stdDeviation=".796"/><feColorMatrix values="0 0 0 0 0.623529 0 0 0 0 0.556863 0 0 0 0 0.556863 0 0 0 1 0"/><feBlend in2="BackgroundImageFix" result="effect1_dropShadow_3_173"/><feColorMatrix in="SourceAlpha" result="hardAlpha" values="0 0 0 0 0 0 0 0 0 0 0 0 0 0 0 0 0 0 127 0"/><feOffset/><feGaussianBlur stdDeviation="1.591"/><feColorMatrix values="0 0 0 0 0.623529 0 0 0 0 0.556863 0 0 0 0 0.556863 0 0 0 1 0"/><feBlend in2="effect1_dropShadow_3_173" result="effect2_dropShadow_3_173"/><feColorMatrix in="SourceAlpha" result="hardAlpha" values="0 0 0 0 0 0 0 0 0 0 0 0 0 0 0 0 0 0 127 0"/><feOffset/><feGaussianBlur stdDeviation="5.569"/><feColorMatrix values="0 0 0 0 0.623529 0 0 0 0 0.556863 0 0 0 0 0.556863 0 0 0 1 0"/><feBlend in2="effect2_dropShadow_3_173" result="effect3_dropShadow_3_173"/><feColorMatrix in="SourceAlpha" result="hardAlpha" values="0 0 0 0 0 0 0 0 0 0 0 0 0 0 0 0 0 0 127 0"/><feOffset/><feGaussianBlur stdDeviation="11.138"/><feColorMatrix values="0 0 0 0 0.623529 0 0 0 0 0.556863 0 0 0 0 0.556863 0 0 0 1 0"/><feBlend in2="effect3_dropShadow_3_173" result="effect4_dropShadow_3_173"/><feColorMatrix in="SourceAlpha" result="hardAlpha" values="0 0 0 0 0 0 0 0 0 0 0 0 0 0 0 0 0 0 127 0"/><feOffset/><feGaussianBlur stdDeviation="19.094"/><feColorMatrix values="0 0 0 0 0.623529 0 0 0 0 0.556863 0 0 0 0 0.556863 0 0 0 1 0"/><feBlend in2="effect4_dropShadow_3_173" result="effect5_dropShadow_3_173"/><feColorMatrix in="SourceAlpha" result="hardAlpha" values="0 0 0 0 0 0 0 0 0 0 0 0 0 0 0 0 0 0 127 0"/><feOffset/><feGaussianBlur stdDeviation="33.415"/><feColorMatrix values="0 0 0 0 0.623529 0 0 0 0 0.556863 0 0 0 0 0.556863 0 0 0 1 0"/><feBlend in2="effect5_dropShadow_3_173" result="effect6_dropShadow_3_173"/><feBlend in="SourceGraphic" in2="effect6_dropShadow_3_173" result="shape"/></filter><filter id="k" width="569.661" height="233.661" x="2185.17" y="832.139" color-interpolation-filters="sRGB" filterUnits="userSpaceOnUse"><feFlood flood-opacity="0" result="BackgroundImageFix"/><feColorMatrix in="SourceAlpha" result="hardAlpha" values="0 0 0 0 0 0 0 0 0 0 0 0 0 0 0 0 0 0 127 0"/><feOffset/><feGaussianBlur stdDeviation=".796"/><feColorMatrix values="0 0 0 0 0.623529 0 0 0 0 0.556863 0 0 0 0 0.556863 0 0 0 1 0"/><feBlend in2="BackgroundImageFix" result="effect1_dropShadow_3_173"/><feColorMatrix in="SourceAlpha" result="hardAlpha" values="0 0 0 0 0 0 0 0 0 0 0 0 0 0 0 0 0 0 127 0"/><feOffset/><feGaussianBlur stdDeviation="1.591"/><feColorMatrix values="0 0 0 0 0.623529 0 0 0 0 0.556863 0 0 0 0 0.556863 0 0 0 1 0"/><feBlend in2="effect1_dropShadow_3_173" result="effect2_dropShadow_3_173"/><feColorMatrix in="SourceAlpha" result="hardAlpha" values="0 0 0 0 0 0 0 0 0 0 0 0 0 0 0 0 0 0 127 0"/><feOffset/><feGaussianBlur stdDeviation="5.569"/><feColorMatrix values="0 0 0 0 0.623529 0 0 0 0 0.556863 0 0 0 0 0.556863 0 0 0 1 0"/><feBlend in2="effect2_dropShadow_3_173" result="effect3_dropShadow_3_173"/><feColorMatrix in="SourceAlpha" result="hardAlpha" values="0 0 0 0 0 0 0 0 0 0 0 0 0 0 0 0 0 0 127 0"/><feOffset/><feGaussianBlur stdDeviation="11.138"/><feColorMatrix values="0 0 0 0 0.623529 0 0 0 0 0.556863 0 0 0 0 0.556863 0 0 0 1 0"/><feBlend in2="effect3_dropShadow_3_173" result="effect4_dropShadow_3_173"/><feColorMatrix in="SourceAlpha" result="hardAlpha" values="0 0 0 0 0 0 0 0 0 0 0 0 0 0 0 0 0 0 127 0"/><feOffset/><feGaussianBlur stdDeviation="19.094"/><feColorMatrix values="0 0 0 0 0.623529 0 0 0 0 0.556863 0 0 0 0 0.556863 0 0 0 1 0"/><feBlend in2="effect4_dropShadow_3_173" result="effect5_dropShadow_3_173"/><feColorMatrix in="SourceAlpha" result="hardAlpha" values="0 0 0 0 0 0 0 0 0 0 0 0 0 0 0 0 0 0 127 0"/><feOffset/><feGaussianBlur stdDeviation="33.415"/><feColorMatrix values="0 0 0 0 0.623529 0 0 0 0 0.556863 0 0 0 0 0.556863 0 0 0 1 0"/><feBlend in2="effect5_dropShadow_3_173" result="effect6_dropShadow_3_173"/><feBlend in="SourceGraphic" in2="effect6_dropShadow_3_173" result="shape"/></filter><filter id="l" width="568.661" height="233.661" x="2185.17" y="962.139" color-interpolation-filters="sRGB" filterUnits="userSpaceOnUse"><feFlood flood-opacity="0" result="BackgroundImageFix"/><feColorMatrix in="SourceAlpha" result="hardAlpha" values="0 0 0 0 0 0 0 0 0 0 0 0 0 0 0 0 0 0 127 0"/><feOffset/><feGaussianBlur stdDeviation=".796"/><feColorMatrix values="0 0 0 0 0.623529 0 0 0 0 0.556863 0 0 0 0 0.556863 0 0 0 1 0"/><feBlend in2="BackgroundImageFix" result="effect1_dropShadow_3_173"/><feColorMatrix in="SourceAlpha" result="hardAlpha" values="0 0 0 0 0 0 0 0 0 0 0 0 0 0 0 0 0 0 127 0"/><feOffset/><feGaussianBlur stdDeviation="1.591"/><feColorMatrix values="0 0 0 0 0.623529 0 0 0 0 0.556863 0 0 0 0 0.556863 0 0 0 1 0"/><feBlend in2="effect1_dropShadow_3_173" result="effect2_dropShadow_3_173"/><feColorMatrix in="SourceAlpha" result="hardAlpha" values="0 0 0 0 0 0 0 0 0 0 0 0 0 0 0 0 0 0 127 0"/><feOffset/><feGaussianBlur stdDeviation="5.569"/><feColorMatrix values="0 0 0 0 0.623529 0 0 0 0 0.556863 0 0 0 0 0.556863 0 0 0 1 0"/><feBlend in2="effect2_dropShadow_3_173" result="effect3_dropShadow_3_173"/><feColorMatrix in="SourceAlpha" result="hardAlpha" values="0 0 0 0 0 0 0 0 0 0 0 0 0 0 0 0 0 0 127 0"/><feOffset/><feGaussianBlur stdDeviation="11.138"/><feColorMatrix values="0 0 0 0 0.623529 0 0 0 0 0.556863 0 0 0 0 0.556863 0 0 0 1 0"/><feBlend in2="effect3_dropShadow_3_173" result="effect4_dropShadow_3_173"/><feColorMatrix in="SourceAlpha" result="hardAlpha" values="0 0 0 0 0 0 0 0 0 0 0 0 0 0 0 0 0 0 127 0"/><feOffset/><feGaussianBlur stdDeviation="19.094"/><feColorMatrix values="0 0 0 0 0.623529 0 0 0 0 0.556863 0 0 0 0 0.556863 0 0 0 1 0"/><feBlend in2="effect4_dropShadow_3_173" result="effect5_dropShadow_3_173"/><feColorMatrix in="SourceAlpha" result="hardAlpha" values="0 0 0 0 0 0 0 0 0 0 0 0 0 0 0 0 0 0 127 0"/><feOffset/><feGaussianBlur stdDeviation="33.415"/><feColorMatrix values="0 0 0 0 0.623529 0 0 0 0 0.556863 0 0 0 0 0.556863 0 0 0 1 0"/><feBlend in2="effect5_dropShadow_3_173" result="effect6_dropShadow_3_173"/><feBlend in="SourceGraphic" in2="effect6_dropShadow_3_173" result="shape"/></filter><linearGradient id="c" x1="1939.03" x2="1939.03" y1="1919.57" y2="405.203" gradientUnits="userSpaceOnUse"><stop stop-color="#938e8e"/><stop offset=".531" stop-color="#bbb2b2"/><stop offset="1" stop-color="#938e8e"/></linearGradient><linearGradient id="d" x1="237.77" x2="226.546" y1="1919.57" y2="433.247" gradientUnits="userSpaceOnUse"><stop stop-color="#989090"/><stop offset=".531" stop-color="#dcdcdc"/><stop offset="1" stop-color="#989090"/></linearGradient><linearGradient id="e" x1="1911.01" x2="184.517" y1="503.357" y2="528.566" gradientUnits="userSpaceOnUse"><stop stop-color="#4a4949"/><stop offset=".479" stop-color="#887f7f"/><stop offset="1" stop-color="#4a4949"/></linearGradient><clipPath id="a"><path fill="#fff" d="M0 0h2826v2194H0z"/></clipPath><clipPath id="b"><path fill="#fff" d="M64 329.485h2046v1663H64z"/></clipPath><clipPath id="g"><path fill="#fff" d="M2179 329.485h583v990h-583z"/></clipPath></defs></svg>