<svg width="2826" height="2194" viewBox="0 0 2826 2194" fill="none" xmlns="http://www.w3.org/2000/svg">
<g clip-path="url(#clip0_3_173)">
<rect width="2826" height="2194" fill="white"/>
<rect width="2826" height="2193.97" fill="#C9BCBC"/>
<circle cx="100.742" cy="100.742" r="30" transform="rotate(105 100.742 100.742)" fill="#A89E9E"/>
<circle cx="100.741" cy="100.743" r="25" transform="rotate(105 100.741 100.743)" fill="#100D26"/>
<path d="M107.21 124.892C111.986 123.612 116.276 120.945 119.537 117.227C122.797 113.509 124.882 108.908 125.527 104.006C126.173 99.1031 125.35 94.1192 123.162 89.6843C120.975 85.2495 117.521 81.5629 113.239 79.0909C108.956 76.6189 104.036 75.4725 99.1021 75.7967C94.1678 76.1209 89.4405 77.9011 85.518 80.9122C81.5955 83.9233 78.6541 88.03 77.0658 92.7129C75.4775 97.3958 75.3136 102.445 76.5949 107.221C78.3124 113.623 82.5024 119.081 88.2434 122.395C93.9845 125.709 100.807 126.607 107.21 124.892V124.892ZM86.4555 100.395L95.7936 97.8878L93.2863 88.5497L101.091 86.4665L103.599 95.8046L112.937 93.2974L115.02 101.102L105.682 103.61L108.189 112.948L100.384 115.031L97.8767 105.693L88.5386 108.2L86.4555 100.395Z" fill="#96AAB9"/>
<circle cx="2732" cy="100.742" r="30" fill="#A89E9E"/>
<circle cx="2732" cy="100.742" r="25" fill="#100D26"/>
<path d="M2753.65 88.2441C2751.18 83.9614 2747.49 80.5081 2743.06 78.3209C2738.62 76.1337 2733.64 75.3108 2728.74 75.9563C2723.83 76.6018 2719.23 78.6867 2715.52 81.9474C2711.8 85.208 2709.13 89.4979 2707.85 94.2745C2706.57 99.0511 2706.74 104.1 2708.33 108.782C2709.92 113.464 2712.86 117.57 2716.79 120.579C2720.71 123.589 2725.44 125.367 2730.37 125.689C2735.31 126.011 2740.22 124.863 2744.51 122.389C2750.25 119.073 2754.43 113.613 2756.15 107.21C2757.86 100.807 2756.97 93.985 2753.65 88.2441V88.2441ZM2735.36 114.631L2730.52 106.26L2722.15 111.099L2718.12 104.099L2726.49 99.2602L2721.65 90.8892L2728.65 86.857L2733.49 95.228L2741.86 90.3892L2745.89 97.3892L2737.52 102.228L2742.36 110.599L2735.36 114.631Z" fill="#96AAB9"/>
<path d="M1105.67 242.432H1115.19C1114.89 246.063 1113.87 249.3 1112.15 252.144C1110.42 254.962 1107.99 257.184 1104.87 258.809C1101.75 260.434 1097.95 261.246 1093.48 261.246C1090.06 261.246 1086.97 260.637 1084.23 259.418C1081.49 258.174 1079.14 256.422 1077.18 254.162C1075.23 251.877 1073.73 249.122 1072.69 245.898C1071.67 242.673 1071.17 239.068 1071.17 235.081V230.473C1071.17 226.487 1071.69 222.881 1072.73 219.657C1073.79 216.432 1075.32 213.677 1077.3 211.392C1079.28 209.081 1081.65 207.317 1084.42 206.098C1087.21 204.879 1090.35 204.27 1093.83 204.27C1098.24 204.27 1101.98 205.082 1105.02 206.707C1108.07 208.332 1110.43 210.579 1112.11 213.449C1113.81 216.318 1114.85 219.606 1115.23 223.313H1105.71C1105.46 220.926 1104.9 218.882 1104.03 217.181C1103.2 215.48 1101.95 214.185 1100.3 213.296C1098.65 212.382 1096.49 211.925 1093.83 211.925C1091.64 211.925 1089.74 212.331 1088.11 213.144C1086.49 213.956 1085.13 215.15 1084.04 216.724C1082.95 218.298 1082.12 220.241 1081.56 222.551C1081.03 224.836 1080.76 227.451 1080.76 230.397V235.081C1080.76 237.874 1081 240.413 1081.49 242.699C1081.99 244.958 1082.76 246.901 1083.77 248.526C1084.81 250.151 1086.13 251.408 1087.73 252.296C1089.33 253.185 1091.25 253.629 1093.48 253.629C1096.2 253.629 1098.4 253.198 1100.07 252.334C1101.77 251.471 1103.06 250.214 1103.92 248.564C1104.81 246.888 1105.39 244.844 1105.67 242.432ZM1170.43 231.235V234.282C1170.43 238.471 1169.89 242.229 1168.8 245.555C1167.7 248.881 1166.14 251.712 1164.11 254.048C1162.11 256.384 1159.69 258.174 1156.88 259.418C1154.06 260.637 1150.93 261.246 1147.51 261.246C1144.1 261.246 1140.99 260.637 1138.17 259.418C1135.38 258.174 1132.96 256.384 1130.9 254.048C1128.84 251.712 1127.24 248.881 1126.1 245.555C1124.98 242.229 1124.43 238.471 1124.43 234.282V231.235C1124.43 227.045 1124.98 223.3 1126.1 219.999C1127.22 216.673 1128.79 213.842 1130.82 211.506C1132.88 209.145 1135.31 207.355 1138.1 206.136C1140.92 204.892 1144.03 204.27 1147.43 204.27C1150.86 204.27 1153.98 204.892 1156.8 206.136C1159.62 207.355 1162.04 209.145 1164.07 211.506C1166.1 213.842 1167.67 216.673 1168.76 219.999C1169.88 223.3 1170.43 227.045 1170.43 231.235ZM1160.87 234.282V231.159C1160.87 228.061 1160.57 225.331 1159.96 222.97C1159.38 220.583 1158.5 218.59 1157.33 216.991C1156.19 215.366 1154.78 214.147 1153.1 213.334C1151.43 212.496 1149.54 212.077 1147.43 212.077C1145.32 212.077 1143.44 212.496 1141.79 213.334C1140.14 214.147 1138.73 215.366 1137.57 216.991C1136.42 218.59 1135.55 220.583 1134.94 222.97C1134.33 225.331 1134.02 228.061 1134.02 231.159V234.282C1134.02 237.379 1134.33 240.121 1134.94 242.508C1135.55 244.895 1136.44 246.913 1137.6 248.564C1138.8 250.189 1140.22 251.42 1141.87 252.258C1143.52 253.071 1145.4 253.477 1147.51 253.477C1149.64 253.477 1151.53 253.071 1153.18 252.258C1154.83 251.42 1156.23 250.189 1157.37 248.564C1158.51 246.913 1159.38 244.895 1159.96 242.508C1160.57 240.121 1160.87 237.379 1160.87 234.282ZM1226.32 205.032V260.485H1216.76L1191.89 220.761V260.485H1182.33V205.032H1191.89L1216.84 244.831V205.032H1226.32ZM1261.72 205.032V260.485H1252.24V205.032H1261.72ZM1279.13 205.032V212.649H1234.98V205.032H1279.13ZM1288.78 205.032H1308.39C1312.61 205.032 1316.2 205.666 1319.17 206.936C1322.14 208.205 1324.41 210.084 1325.99 212.573C1327.59 215.035 1328.39 218.082 1328.39 221.713C1328.39 224.481 1327.88 226.918 1326.86 229.026C1325.85 231.133 1324.41 232.91 1322.56 234.358C1320.71 235.78 1318.5 236.884 1315.93 237.671L1313.04 239.08H1295.41L1295.33 231.501H1308.55C1310.83 231.501 1312.73 231.095 1314.26 230.283C1315.78 229.47 1316.92 228.366 1317.69 226.969C1318.47 225.547 1318.87 223.948 1318.87 222.17C1318.87 220.241 1318.49 218.565 1317.72 217.143C1316.99 215.696 1315.85 214.591 1314.3 213.829C1312.75 213.042 1310.78 212.649 1308.39 212.649H1298.34V260.485H1288.78V205.032ZM1320.43 260.485L1307.4 235.576L1317.42 235.538L1330.64 259.99V260.485H1320.43ZM1384.47 231.235V234.282C1384.47 238.471 1383.92 242.229 1382.83 245.555C1381.74 248.881 1380.18 251.712 1378.15 254.048C1376.14 256.384 1373.73 258.174 1370.91 259.418C1368.09 260.637 1364.97 261.246 1361.54 261.246C1358.14 261.246 1355.03 260.637 1352.21 259.418C1349.42 258.174 1346.99 256.384 1344.93 254.048C1342.88 251.712 1341.28 248.881 1340.14 245.555C1339.02 242.229 1338.46 238.471 1338.46 234.282V231.235C1338.46 227.045 1339.02 223.3 1340.14 219.999C1341.25 216.673 1342.83 213.842 1344.86 211.506C1346.91 209.145 1349.34 207.355 1352.13 206.136C1354.95 204.892 1358.06 204.27 1361.46 204.27C1364.89 204.27 1368.01 204.892 1370.83 206.136C1373.65 207.355 1376.08 209.145 1378.11 211.506C1380.14 213.842 1381.7 216.673 1382.79 219.999C1383.91 223.3 1384.47 227.045 1384.47 231.235ZM1374.91 234.282V231.159C1374.91 228.061 1374.6 225.331 1373.99 222.97C1373.41 220.583 1372.53 218.59 1371.37 216.991C1370.22 215.366 1368.81 214.147 1367.14 213.334C1365.46 212.496 1363.57 212.077 1361.46 212.077C1359.36 212.077 1357.48 212.496 1355.83 213.334C1354.18 214.147 1352.77 215.366 1351.6 216.991C1350.46 218.59 1349.58 220.583 1348.97 222.97C1348.36 225.331 1348.06 228.061 1348.06 231.159V234.282C1348.06 237.379 1348.36 240.121 1348.97 242.508C1349.58 244.895 1350.47 246.913 1351.64 248.564C1352.83 250.189 1354.25 251.42 1355.9 252.258C1357.55 253.071 1359.43 253.477 1361.54 253.477C1363.67 253.477 1365.56 253.071 1367.21 252.258C1368.86 251.42 1370.26 250.189 1371.4 248.564C1372.55 246.913 1373.41 244.895 1373.99 242.508C1374.6 240.121 1374.91 237.379 1374.91 234.282ZM1431.1 252.906V260.485H1403.26V252.906H1431.1ZM1405.93 205.032V260.485H1396.37V205.032H1405.93ZM1495.35 242.432H1504.87C1504.56 246.063 1503.55 249.3 1501.82 252.144C1500.1 254.962 1497.67 257.184 1494.55 258.809C1491.43 260.434 1487.63 261.246 1483.16 261.246C1479.73 261.246 1476.65 260.637 1473.91 259.418C1471.16 258.174 1468.81 256.422 1466.86 254.162C1464.9 251.877 1463.41 249.122 1462.37 245.898C1461.35 242.673 1460.84 239.068 1460.84 235.081V230.473C1460.84 226.487 1461.36 222.881 1462.4 219.657C1463.47 216.432 1464.99 213.677 1466.97 211.392C1468.95 209.081 1471.33 207.317 1474.1 206.098C1476.89 204.879 1480.02 204.27 1483.5 204.27C1487.92 204.27 1491.65 205.082 1494.7 206.707C1497.75 208.332 1500.11 210.579 1501.78 213.449C1503.49 216.318 1504.53 219.606 1504.91 223.313H1495.39C1495.13 220.926 1494.57 218.882 1493.71 217.181C1492.87 215.48 1491.63 214.185 1489.98 213.296C1488.33 212.382 1486.17 211.925 1483.5 211.925C1481.32 211.925 1479.42 212.331 1477.79 213.144C1476.17 213.956 1474.81 215.15 1473.72 216.724C1472.62 218.298 1471.8 220.241 1471.24 222.551C1470.71 224.836 1470.44 227.451 1470.44 230.397V235.081C1470.44 237.874 1470.68 240.413 1471.16 242.699C1471.67 244.958 1472.43 246.901 1473.45 248.526C1474.49 250.151 1475.81 251.408 1477.41 252.296C1479.01 253.185 1480.93 253.629 1483.16 253.629C1485.88 253.629 1488.07 253.198 1489.75 252.334C1491.45 251.471 1492.73 250.214 1493.6 248.564C1494.48 246.888 1495.07 244.844 1495.35 242.432ZM1552.19 252.906V260.485H1522.75V252.906H1552.19ZM1525.45 205.032V260.485H1515.89V205.032H1525.45ZM1548.34 228.188V235.653H1522.75V228.188H1548.34ZM1552 205.032V212.649H1522.75V205.032H1552ZM1606.33 205.032V260.485H1596.77L1571.9 220.761V260.485H1562.34V205.032H1571.9L1596.84 244.831V205.032H1606.33ZM1641.72 205.032V260.485H1632.24V205.032H1641.72ZM1659.13 205.032V212.649H1614.99V205.032H1659.13ZM1705.08 252.906V260.485H1675.64V252.906H1705.08ZM1678.34 205.032V260.485H1668.78V205.032H1678.34ZM1701.23 228.188V235.653H1675.64V228.188H1701.23ZM1704.89 205.032V212.649H1675.64V205.032H1704.89ZM1715.23 205.032H1734.84C1739.05 205.032 1742.65 205.666 1745.62 206.936C1748.59 208.205 1750.86 210.084 1752.44 212.573C1754.04 215.035 1754.83 218.082 1754.83 221.713C1754.83 224.481 1754.33 226.918 1753.31 229.026C1752.3 231.133 1750.86 232.91 1749.01 234.358C1747.15 235.78 1744.95 236.884 1742.38 237.671L1739.49 239.08H1721.85L1721.78 231.501H1734.99C1737.28 231.501 1739.18 231.095 1740.71 230.283C1742.23 229.47 1743.37 228.366 1744.13 226.969C1744.92 225.547 1745.31 223.948 1745.31 222.17C1745.31 220.241 1744.93 218.565 1744.17 217.143C1743.43 215.696 1742.29 214.591 1740.74 213.829C1739.19 213.042 1737.23 212.649 1734.84 212.649H1724.79V260.485H1715.23V205.032ZM1746.88 260.485L1733.85 235.576L1743.87 235.538L1757.08 259.99V260.485H1746.88Z" fill="#100D26"/>
<g clip-path="url(#clip1_3_173)">
<path d="M2110 329.485H64V1992.48H2110V329.485Z" fill="#A89E9E"/>
<path d="M1950.24 405.203H220.953C189.995 405.203 164.899 430.314 164.899 461.291V1863.48C164.899 1894.46 189.995 1919.57 220.953 1919.57H1950.24C1981.2 1919.57 2006.3 1894.46 2006.3 1863.48V461.291C2006.3 430.314 1981.2 405.203 1950.24 405.203Z" fill="white"/>
<path d="M1950.24 405.203C1981.2 405.203 2006.3 430.314 2006.3 461.291V1863.48C2006.3 1894.46 1981.2 1919.57 1950.24 1919.57H1726.02V405.203H1950.24Z" fill="url(#paint0_linear_3_173)"/>
<path d="M220.953 405.203C189.995 405.203 164.899 430.314 164.899 461.291V1863.48C164.899 1894.46 189.995 1919.57 220.953 1919.57H445.173V405.203H220.953Z" fill="url(#paint1_linear_3_173)"/>
<path d="M164.899 1863.48C164.899 1894.46 189.995 1919.57 220.953 1919.57H1949.85C1969.26 1919.57 1987.29 1909.52 1997.51 1893L1999.29 1890.12L1742.1 1653.9C1731.76 1644.4 1718.24 1639.13 1704.2 1639.13H464.643C452.031 1639.13 439.791 1643.38 429.895 1651.21L164.899 1860.68V1863.48Z" fill="#ADADAD"/>
<path d="M164.899 461.291C164.899 430.314 189.995 405.203 220.953 405.203H1949.85C1969.26 405.203 1987.29 415.253 1997.51 431.769L1999.29 434.649L1742.1 670.873C1731.76 680.371 1718.24 685.641 1704.2 685.641H464.643C452.031 685.641 439.791 681.387 429.895 673.565L164.899 464.095V461.291Z" fill="url(#paint2_linear_3_173)"/>
<g filter="url(#filter0_dddddd_3_173)">
<path d="M316.92 662.858C324.692 614.659 363.352 577.174 411.722 570.765C920.422 503.363 1238.66 503.231 1748.3 570.738C1796.77 577.158 1835.47 614.752 1843.18 663.063C1906.52 1059.77 1908.29 1257.27 1844.01 1652.92C1835.91 1702.76 1794.87 1740.75 1744.6 1745.33C1232.45 1792.07 915.402 1789.57 416.027 1745.14C365.569 1740.65 324.336 1702.59 316.222 1652.56C253.576 1266.25 251.414 1069.11 316.92 662.858Z" fill="#013201"/>
</g>
</g>
<rect x="66" y="331.485" width="2042" height="1659" stroke="#5B5151" stroke-width="4"/>
<g clip-path="url(#clip2_3_173)">
<path d="M2179 329.485H2750.06L2756 333.067V1319.48H2182.96L2179 1294.41V329.485Z" fill="#5B5151"/>
<rect x="2181" y="331.485" width="573" height="960.045" fill="#C9BCBC"/>
<rect x="2181" y="331.485" width="573" height="960.045" stroke="#5B5151" stroke-width="4"/>
<circle cx="2241.24" cy="397.227" r="30" transform="rotate(105 2241.24 397.227)" fill="#A89E9E"/>
<circle cx="2241.24" cy="397.228" r="25" transform="rotate(105 2241.24 397.228)" fill="#100D26"/>
<path d="M2247.71 421.376C2252.49 420.097 2256.78 417.43 2260.04 413.712C2263.3 409.994 2265.38 405.393 2266.03 400.49C2266.67 395.588 2265.85 390.604 2263.66 386.169C2261.47 381.734 2258.02 378.048 2253.74 375.576C2249.46 373.104 2244.54 371.957 2239.6 372.281C2234.67 372.606 2229.94 374.386 2226.02 377.397C2222.1 380.408 2219.15 384.515 2217.57 389.198C2215.98 393.88 2215.81 398.929 2217.09 403.705C2218.81 410.108 2223 415.566 2228.74 418.88C2234.48 422.193 2241.31 423.091 2247.71 421.376V421.376ZM2226.96 396.88L2236.29 394.372L2233.79 385.034L2241.59 382.951L2244.1 392.289L2253.44 389.782L2255.52 397.587L2246.18 400.094L2248.69 409.432L2240.88 411.516L2238.38 402.178L2229.04 404.685L2226.96 396.88Z" fill="#96AAB9"/>
<circle cx="2706.5" cy="397.227" r="30" fill="#A89E9E"/>
<circle cx="2706.5" cy="397.227" r="25" fill="#100D26"/>
<path d="M2728.15 384.729C2725.68 380.446 2721.99 376.993 2717.56 374.806C2713.12 372.618 2708.14 371.795 2703.24 372.441C2698.33 373.086 2693.73 375.171 2690.02 378.432C2686.3 381.693 2683.63 385.983 2682.35 390.759C2681.07 395.536 2681.24 400.584 2682.83 405.267C2684.42 409.949 2687.36 414.054 2691.29 417.064C2695.21 420.073 2699.94 421.852 2704.87 422.174C2709.81 422.496 2714.72 421.348 2719.01 418.874C2724.75 415.558 2728.93 410.098 2730.65 403.695C2732.36 397.292 2731.47 390.47 2728.15 384.729V384.729ZM2709.86 411.116L2705.02 402.745L2696.65 407.584L2692.62 400.584L2700.99 395.745L2696.15 387.374L2703.15 383.342L2707.99 391.713L2716.36 386.874L2720.39 393.874L2712.02 398.713L2716.86 407.084L2709.86 411.116Z" fill="#96AAB9"/>
<path d="M2416.65 467.559L2423.39 472.903L2420.52 475.417L2413.91 470.126L2416.65 467.559ZM2423.44 457.469V458.876C2423.44 460.809 2423.19 462.544 2422.68 464.079C2422.18 465.614 2421.46 466.921 2420.52 467.999C2419.58 469.077 2418.46 469.903 2417.16 470.477C2415.86 471.04 2414.42 471.321 2412.84 471.321C2411.27 471.321 2409.83 471.04 2408.53 470.477C2407.24 469.903 2406.12 469.077 2405.18 467.999C2404.23 466.921 2403.49 465.614 2402.96 464.079C2402.45 462.544 2402.19 460.809 2402.19 458.876V457.469C2402.19 455.536 2402.45 453.807 2402.96 452.284C2403.48 450.749 2404.2 449.442 2405.14 448.364C2406.09 447.274 2407.21 446.448 2408.5 445.885C2409.8 445.311 2411.23 445.024 2412.8 445.024C2414.39 445.024 2415.83 445.311 2417.13 445.885C2418.44 446.448 2419.57 447.274 2420.5 448.364C2421.44 449.442 2422.16 450.749 2422.67 452.284C2423.18 453.807 2423.44 455.536 2423.44 457.469ZM2419.01 458.876V457.434C2419.01 456.005 2418.87 454.745 2418.59 453.655C2418.32 452.553 2417.91 451.633 2417.38 450.895C2416.85 450.145 2416.2 449.583 2415.42 449.208C2414.66 448.821 2413.79 448.628 2412.8 448.628C2411.84 448.628 2410.98 448.821 2410.22 449.208C2409.46 449.583 2408.81 450.145 2408.27 450.895C2407.73 451.633 2407.32 452.553 2407.04 453.655C2406.76 454.745 2406.62 456.005 2406.62 457.434V458.876C2406.62 460.305 2406.76 461.571 2407.04 462.672C2407.32 463.774 2407.73 464.706 2408.27 465.467C2408.82 466.217 2409.48 466.786 2410.24 467.172C2411.01 467.547 2411.88 467.735 2412.84 467.735C2413.82 467.735 2414.7 467.547 2415.46 467.172C2416.22 466.786 2416.87 466.217 2417.39 465.467C2417.92 464.706 2418.32 463.774 2418.59 462.672C2418.87 461.571 2419.01 460.305 2419.01 458.876ZM2443.36 445.376H2447.76V462.479C2447.76 464.424 2447.34 466.053 2446.49 467.366C2445.65 468.678 2444.5 469.669 2443.05 470.337C2441.61 470.993 2439.99 471.321 2438.21 471.321C2436.37 471.321 2434.73 470.993 2433.29 470.337C2431.85 469.669 2430.71 468.678 2429.88 467.366C2429.06 466.053 2428.65 464.424 2428.65 462.479V445.376H2433.04V462.479C2433.04 463.71 2433.26 464.723 2433.68 465.52C2434.1 466.305 2434.7 466.885 2435.47 467.26C2436.24 467.635 2437.16 467.823 2438.21 467.823C2439.27 467.823 2440.18 467.635 2440.94 467.26C2441.71 466.885 2442.31 466.305 2442.73 465.52C2443.15 464.723 2443.36 463.71 2443.36 462.479V445.376ZM2470.39 467.471V470.969H2456.8V467.471H2470.39ZM2458.05 445.376V470.969H2453.64V445.376H2458.05ZM2468.61 456.063V459.508H2456.8V456.063H2468.61ZM2470.3 445.376V448.891H2456.8V445.376H2470.3ZM2488.54 464.378C2488.54 463.85 2488.45 463.381 2488.29 462.971C2488.14 462.561 2487.86 462.186 2487.46 461.846C2487.07 461.506 2486.5 461.178 2485.78 460.862C2485.06 460.534 2484.15 460.2 2483.03 459.86C2481.82 459.485 2480.69 459.069 2479.66 458.612C2478.64 458.143 2477.75 457.604 2476.99 456.995C2476.23 456.374 2475.63 455.665 2475.21 454.868C2474.79 454.059 2474.58 453.128 2474.58 452.073C2474.58 451.03 2474.8 450.081 2475.23 449.225C2475.68 448.37 2476.3 447.631 2477.11 447.01C2477.93 446.378 2478.9 445.891 2480.01 445.551C2481.12 445.2 2482.36 445.024 2483.7 445.024C2485.6 445.024 2487.24 445.376 2488.61 446.079C2489.99 446.782 2491.05 447.725 2491.79 448.909C2492.54 450.092 2492.91 451.399 2492.91 452.829H2488.54C2488.54 451.985 2488.36 451.241 2487.99 450.596C2487.64 449.94 2487.1 449.424 2486.37 449.049C2485.66 448.674 2484.75 448.487 2483.65 448.487C2482.61 448.487 2481.74 448.645 2481.05 448.962C2480.36 449.278 2479.84 449.706 2479.5 450.245C2479.16 450.784 2478.99 451.393 2478.99 452.073C2478.99 452.553 2479.1 452.993 2479.33 453.391C2479.55 453.778 2479.89 454.141 2480.35 454.481C2480.8 454.809 2481.38 455.12 2482.07 455.413C2482.76 455.706 2483.57 455.987 2484.51 456.256C2485.93 456.678 2487.17 457.147 2488.22 457.663C2489.28 458.167 2490.15 458.741 2490.86 459.385C2491.56 460.03 2492.09 460.762 2492.44 461.583C2492.79 462.391 2492.97 463.311 2492.97 464.342C2492.97 465.421 2492.75 466.393 2492.32 467.26C2491.88 468.116 2491.26 468.848 2490.45 469.458C2489.66 470.055 2488.7 470.518 2487.57 470.846C2486.46 471.163 2485.21 471.321 2483.84 471.321C2482.61 471.321 2481.4 471.157 2480.2 470.829C2479.02 470.501 2477.94 470.003 2476.97 469.335C2476 468.655 2475.22 467.811 2474.65 466.803C2474.08 465.784 2473.79 464.594 2473.79 463.235H2478.2C2478.2 464.067 2478.34 464.776 2478.62 465.362C2478.92 465.948 2479.32 466.428 2479.84 466.803C2480.35 467.167 2480.95 467.436 2481.63 467.612C2482.32 467.788 2483.06 467.876 2483.84 467.876C2484.87 467.876 2485.74 467.729 2486.43 467.436C2487.13 467.143 2487.66 466.733 2488.01 466.206C2488.36 465.678 2488.54 465.069 2488.54 464.378ZM2508.48 445.376V470.969H2504.1V445.376H2508.48ZM2516.51 445.376V448.891H2496.14V445.376H2516.51ZM2534.15 464.378C2534.15 463.85 2534.07 463.381 2533.9 462.971C2533.75 462.561 2533.48 462.186 2533.08 461.846C2532.68 461.506 2532.12 461.178 2531.39 460.862C2530.68 460.534 2529.76 460.2 2528.65 459.86C2527.43 459.485 2526.3 459.069 2525.27 458.612C2524.25 458.143 2523.36 457.604 2522.6 456.995C2521.84 456.374 2521.25 455.665 2520.83 454.868C2520.4 454.059 2520.19 453.128 2520.19 452.073C2520.19 451.03 2520.41 450.081 2520.84 449.225C2521.29 448.37 2521.92 447.631 2522.72 447.01C2523.54 446.378 2524.51 445.891 2525.62 445.551C2526.74 445.2 2527.97 445.024 2529.32 445.024C2531.21 445.024 2532.85 445.376 2534.22 446.079C2535.6 446.782 2536.66 447.725 2537.4 448.909C2538.15 450.092 2538.53 451.399 2538.53 452.829H2534.15C2534.15 451.985 2533.97 451.241 2533.61 450.596C2533.25 449.94 2532.71 449.424 2531.99 449.049C2531.27 448.674 2530.36 448.487 2529.26 448.487C2528.22 448.487 2527.35 448.645 2526.66 448.962C2525.97 449.278 2525.45 449.706 2525.11 450.245C2524.78 450.784 2524.61 451.393 2524.61 452.073C2524.61 452.553 2524.72 452.993 2524.94 453.391C2525.16 453.778 2525.5 454.141 2525.96 454.481C2526.42 454.809 2526.99 455.12 2527.68 455.413C2528.37 455.706 2529.19 455.987 2530.12 456.256C2531.54 456.678 2532.78 457.147 2533.83 457.663C2534.89 458.167 2535.77 458.741 2536.47 459.385C2537.17 460.03 2537.7 460.762 2538.05 461.583C2538.4 462.391 2538.58 463.311 2538.58 464.342C2538.58 465.421 2538.36 466.393 2537.93 467.26C2537.5 468.116 2536.87 468.848 2536.07 469.458C2535.27 470.055 2534.31 470.518 2533.18 470.846C2532.07 471.163 2530.83 471.321 2529.46 471.321C2528.23 471.321 2527.01 471.157 2525.82 470.829C2524.63 470.501 2523.56 470.003 2522.58 469.335C2521.61 468.655 2520.84 467.811 2520.26 466.803C2519.69 465.784 2519.4 464.594 2519.4 463.235H2523.81C2523.81 464.067 2523.95 464.776 2524.24 465.362C2524.53 465.948 2524.93 466.428 2525.45 466.803C2525.96 467.167 2526.56 467.436 2527.24 467.612C2527.93 467.788 2528.67 467.876 2529.46 467.876C2530.49 467.876 2531.35 467.729 2532.04 467.436C2532.74 467.143 2533.27 466.733 2533.62 466.206C2533.97 465.678 2534.15 465.069 2534.15 464.378Z" fill="#100D26"/>
<g filter="url(#filter1_dddddd_3_173)">
<path d="M2686.5 509.469V598.469H2252.5V509.469H2686.5Z" fill="#F0F0DF"/>
<path d="M2686.5 509.469V598.469H2252.5V509.469H2686.5Z" stroke="#F1F1D2"/>
<path d="M2386.71 555.606H2382.27V553.274H2386.71C2387.49 553.274 2388.11 553.149 2388.59 552.899C2389.07 552.649 2389.41 552.305 2389.63 551.868C2389.86 551.422 2389.97 550.915 2389.97 550.344C2389.97 549.805 2389.86 549.301 2389.63 548.833C2389.41 548.356 2389.07 547.973 2388.59 547.684C2388.11 547.395 2387.49 547.251 2386.71 547.251H2383.18V561.969H2380.23V544.907H2386.71C2388.04 544.907 2389.16 545.141 2390.08 545.61C2391.01 546.071 2391.71 546.712 2392.2 547.532C2392.68 548.344 2392.93 549.274 2392.93 550.321C2392.93 551.422 2392.68 552.368 2392.2 553.157C2391.71 553.946 2391.01 554.551 2390.08 554.973C2389.16 555.395 2388.04 555.606 2386.71 555.606ZM2406.97 559.637V561.969H2398.4V559.637H2406.97ZM2399.22 544.907V561.969H2396.28V544.907H2399.22ZM2416.84 547.18L2411.74 561.969H2408.66L2415.08 544.907H2417.05L2416.84 547.18ZM2421.11 561.969L2416 547.18L2415.78 544.907H2417.76L2424.2 561.969H2421.11ZM2420.86 555.641V557.973H2411.58V555.641H2420.86ZM2440.37 544.907V561.969H2437.43L2429.77 549.747V561.969H2426.83V544.907H2429.77L2437.45 557.153V544.907H2440.37ZM2458.31 556.848V544.907H2461.24V556.848C2461.24 557.981 2460.99 558.946 2460.51 559.743C2460.03 560.54 2459.37 561.149 2458.53 561.571C2457.69 561.993 2456.74 562.204 2455.68 562.204C2454.6 562.204 2453.63 562.02 2452.79 561.653C2451.95 561.286 2451.3 560.723 2450.82 559.965C2450.34 559.208 2450.1 558.247 2450.1 557.083H2453.06C2453.06 557.755 2453.16 558.297 2453.37 558.712C2453.59 559.118 2453.9 559.415 2454.29 559.602C2454.69 559.782 2455.15 559.872 2455.68 559.872C2456.19 559.872 2456.64 559.758 2457.03 559.532C2457.43 559.297 2457.74 558.958 2457.97 558.512C2458.19 558.059 2458.31 557.505 2458.31 556.848ZM2478.95 552.969V553.907C2478.95 555.196 2478.78 556.352 2478.44 557.376C2478.11 558.399 2477.63 559.27 2477 559.989C2476.39 560.708 2475.64 561.258 2474.78 561.641C2473.91 562.016 2472.95 562.204 2471.89 562.204C2470.85 562.204 2469.89 562.016 2469.02 561.641C2468.16 561.258 2467.42 560.708 2466.78 559.989C2466.15 559.27 2465.66 558.399 2465.31 557.376C2464.96 556.352 2464.79 555.196 2464.79 553.907V552.969C2464.79 551.68 2464.96 550.528 2465.31 549.512C2465.65 548.489 2466.14 547.618 2466.76 546.899C2467.39 546.172 2468.14 545.622 2469 545.247C2469.87 544.864 2470.82 544.672 2471.87 544.672C2472.93 544.672 2473.89 544.864 2474.75 545.247C2475.62 545.622 2476.37 546.172 2476.99 546.899C2477.62 547.618 2478.1 548.489 2478.43 549.512C2478.78 550.528 2478.95 551.68 2478.95 552.969ZM2476.01 553.907V552.946C2476.01 551.993 2475.91 551.153 2475.73 550.426C2475.55 549.692 2475.28 549.079 2474.92 548.587C2474.57 548.087 2474.13 547.712 2473.62 547.462C2473.1 547.204 2472.52 547.075 2471.87 547.075C2471.22 547.075 2470.64 547.204 2470.14 547.462C2469.63 547.712 2469.19 548.087 2468.84 548.587C2468.48 549.079 2468.21 549.692 2468.03 550.426C2467.84 551.153 2467.75 551.993 2467.75 552.946V553.907C2467.75 554.86 2467.84 555.704 2468.03 556.438C2468.21 557.172 2468.49 557.794 2468.85 558.301C2469.21 558.801 2469.65 559.18 2470.16 559.438C2470.67 559.688 2471.25 559.813 2471.89 559.813C2472.55 559.813 2473.13 559.688 2473.64 559.438C2474.15 559.18 2474.58 558.801 2474.93 558.301C2475.28 557.794 2475.55 557.172 2475.73 556.438C2475.91 555.704 2476.01 554.86 2476.01 553.907ZM2492.18 544.907H2495.11V556.309C2495.11 557.606 2494.83 558.692 2494.27 559.567C2493.71 560.442 2492.94 561.102 2491.97 561.547C2491.01 561.985 2489.94 562.204 2488.75 562.204C2487.52 562.204 2486.43 561.985 2485.47 561.547C2484.51 561.102 2483.75 560.442 2483.2 559.567C2482.65 558.692 2482.38 557.606 2482.38 556.309V544.907H2485.31V556.309C2485.31 557.13 2485.45 557.805 2485.73 558.337C2486.01 558.86 2486.41 559.247 2486.92 559.497C2487.44 559.747 2488.05 559.872 2488.75 559.872C2489.45 559.872 2490.06 559.747 2490.57 559.497C2491.08 559.247 2491.48 558.86 2491.76 558.337C2492.04 557.805 2492.18 557.13 2492.18 556.309V544.907ZM2499.03 544.907H2505.07C2506.37 544.907 2507.47 545.102 2508.39 545.493C2509.3 545.883 2510 546.462 2510.48 547.227C2510.97 547.985 2511.22 548.922 2511.22 550.04C2511.22 550.891 2511.06 551.641 2510.75 552.29C2510.44 552.938 2510 553.485 2509.43 553.93C2508.86 554.368 2508.18 554.708 2507.39 554.95L2506.5 555.383H2501.07L2501.05 553.051H2505.12C2505.82 553.051 2506.4 552.926 2506.87 552.676C2507.34 552.426 2507.69 552.087 2507.93 551.657C2508.17 551.219 2508.29 550.727 2508.29 550.18C2508.29 549.587 2508.17 549.071 2507.94 548.633C2507.71 548.188 2507.36 547.848 2506.89 547.614C2506.41 547.372 2505.8 547.251 2505.07 547.251H2501.97V561.969H2499.03V544.907ZM2508.77 561.969L2504.76 554.305L2507.85 554.294L2511.91 561.817V561.969H2508.77ZM2528.41 544.907V561.969H2525.46L2517.81 549.747V561.969H2514.87V544.907H2517.81L2525.49 557.153V544.907H2528.41ZM2543.8 559.637V561.969H2534.74V559.637H2543.8ZM2535.57 544.907V561.969H2532.63V544.907H2535.57ZM2542.61 552.032V554.329H2534.74V552.032H2542.61ZM2543.74 544.907V547.251H2534.74V544.907H2543.74ZM2548.55 544.907L2552.51 553.051L2556.47 544.907H2559.73L2553.99 555.688V561.969H2551.02V555.688L2545.28 544.907H2548.55Z" fill="#100D26"/>
<path d="M2252 598.969H2687V608.969H2252V598.969Z" fill="#80823A"/>
</g>
<g filter="url(#filter2_dddddd_3_173)">
<path d="M2687.5 639.469V728.469H2252.5V639.469H2687.5Z" fill="#F0F0DF"/>
<path d="M2687.5 639.469V728.469H2252.5V639.469H2687.5Z" stroke="#F1F1D2"/>
<path d="M2342.4 689.637V691.969H2333.34V689.637H2342.4ZM2334.18 674.907V691.969H2331.23V674.907H2334.18ZM2341.22 682.032V684.329H2333.34V682.032H2341.22ZM2342.34 674.907V677.251H2333.34V674.907H2342.34ZM2347.76 674.907L2351.38 681.13L2355.01 674.907H2358.39L2353.24 683.356L2358.52 691.969H2355.1L2351.38 685.63L2347.67 691.969H2344.24L2349.53 683.356L2344.36 674.907H2347.76ZM2367.89 685.606H2363.45V683.274H2367.89C2368.66 683.274 2369.29 683.149 2369.76 682.899C2370.24 682.649 2370.59 682.305 2370.81 681.868C2371.03 681.422 2371.15 680.915 2371.15 680.344C2371.15 679.805 2371.03 679.301 2370.81 678.833C2370.59 678.356 2370.24 677.973 2369.76 677.684C2369.29 677.395 2368.66 677.251 2367.89 677.251H2364.35V691.969H2361.41V674.907H2367.89C2369.21 674.907 2370.33 675.141 2371.25 675.61C2372.18 676.071 2372.89 676.712 2373.37 677.532C2373.86 678.344 2374.1 679.274 2374.1 680.321C2374.1 681.422 2373.86 682.368 2373.37 683.157C2372.89 683.946 2372.18 684.551 2371.25 684.973C2370.33 685.395 2369.21 685.606 2367.89 685.606ZM2388.14 689.637V691.969H2379.58V689.637H2388.14ZM2380.4 674.907V691.969H2377.46V674.907H2380.4ZM2403.97 682.969V683.907C2403.97 685.196 2403.8 686.352 2403.47 687.376C2403.13 688.399 2402.65 689.27 2402.02 689.989C2401.41 690.708 2400.67 691.258 2399.8 691.641C2398.93 692.016 2397.97 692.204 2396.92 692.204C2395.87 692.204 2394.91 692.016 2394.04 691.641C2393.18 691.258 2392.44 690.708 2391.81 689.989C2391.17 689.27 2390.68 688.399 2390.33 687.376C2389.99 686.352 2389.81 685.196 2389.81 683.907V682.969C2389.81 681.68 2389.99 680.528 2390.33 679.512C2390.67 678.489 2391.16 677.618 2391.78 676.899C2392.42 676.172 2393.16 675.622 2394.02 675.247C2394.89 674.864 2395.84 674.672 2396.89 674.672C2397.95 674.672 2398.91 674.864 2399.77 675.247C2400.64 675.622 2401.39 676.172 2402.01 676.899C2402.64 677.618 2403.12 678.489 2403.45 679.512C2403.8 680.528 2403.97 681.68 2403.97 682.969ZM2401.03 683.907V682.946C2401.03 681.993 2400.93 681.153 2400.75 680.426C2400.57 679.692 2400.3 679.079 2399.94 678.587C2399.59 678.087 2399.15 677.712 2398.64 677.462C2398.12 677.204 2397.54 677.075 2396.89 677.075C2396.24 677.075 2395.67 677.204 2395.16 677.462C2394.65 677.712 2394.22 678.087 2393.86 678.587C2393.51 679.079 2393.24 679.692 2393.05 680.426C2392.86 681.153 2392.77 681.993 2392.77 682.946V683.907C2392.77 684.86 2392.86 685.704 2393.05 686.438C2393.24 687.172 2393.51 687.794 2393.87 688.301C2394.24 688.801 2394.67 689.18 2395.18 689.438C2395.69 689.688 2396.27 689.813 2396.92 689.813C2397.57 689.813 2398.15 689.688 2398.66 689.438C2399.17 689.18 2399.6 688.801 2399.95 688.301C2400.3 687.794 2400.57 687.172 2400.75 686.438C2400.93 685.704 2401.03 684.86 2401.03 683.907ZM2407.63 674.907H2413.67C2414.96 674.907 2416.07 675.102 2416.98 675.493C2417.9 675.883 2418.6 676.462 2419.08 677.227C2419.57 677.985 2419.82 678.922 2419.82 680.04C2419.82 680.891 2419.66 681.641 2419.35 682.29C2419.04 682.938 2418.6 683.485 2418.03 683.93C2417.46 684.368 2416.78 684.708 2415.99 684.95L2415.1 685.383H2409.67L2409.65 683.051H2413.71C2414.42 683.051 2415 682.926 2415.47 682.676C2415.94 682.426 2416.29 682.087 2416.53 681.657C2416.77 681.219 2416.89 680.727 2416.89 680.18C2416.89 679.587 2416.77 679.071 2416.54 678.633C2416.31 678.188 2415.96 677.848 2415.48 677.614C2415.01 677.372 2414.4 677.251 2413.67 677.251H2410.57V691.969H2407.63V674.907ZM2417.37 691.969L2413.36 684.305L2416.44 684.294L2420.51 691.817V691.969H2417.37ZM2434.64 689.637V691.969H2425.58V689.637H2434.64ZM2426.41 674.907V691.969H2423.47V674.907H2426.41ZM2433.45 682.032V684.329H2425.58V682.032H2433.45ZM2434.58 674.907V677.251H2425.58V674.907H2434.58ZM2450.94 685.606H2446.49V683.274H2450.94C2451.71 683.274 2452.33 683.149 2452.81 682.899C2453.29 682.649 2453.64 682.305 2453.85 681.868C2454.08 681.422 2454.19 680.915 2454.19 680.344C2454.19 679.805 2454.08 679.301 2453.85 678.833C2453.64 678.356 2453.29 677.973 2452.81 677.684C2452.33 677.395 2451.71 677.251 2450.94 677.251H2447.4V691.969H2444.46V674.907H2450.94C2452.26 674.907 2453.38 675.141 2454.3 675.61C2455.23 676.071 2455.94 676.712 2456.42 677.532C2456.9 678.344 2457.15 679.274 2457.15 680.321C2457.15 681.422 2456.9 682.368 2456.42 683.157C2455.94 683.946 2455.23 684.551 2454.3 684.973C2453.38 685.395 2452.26 685.606 2450.94 685.606ZM2474.11 682.969V683.907C2474.11 685.196 2473.94 686.352 2473.6 687.376C2473.27 688.399 2472.79 689.27 2472.16 689.989C2471.55 690.708 2470.8 691.258 2469.94 691.641C2469.07 692.016 2468.11 692.204 2467.05 692.204C2466.01 692.204 2465.05 692.016 2464.18 691.641C2463.32 691.258 2462.58 690.708 2461.94 689.989C2461.31 689.27 2460.82 688.399 2460.47 687.376C2460.12 686.352 2459.95 685.196 2459.95 683.907V682.969C2459.95 681.68 2460.12 680.528 2460.47 679.512C2460.81 678.489 2461.3 677.618 2461.92 676.899C2462.55 676.172 2463.3 675.622 2464.16 675.247C2465.03 674.864 2465.98 674.672 2467.03 674.672C2468.09 674.672 2469.05 674.864 2469.91 675.247C2470.78 675.622 2471.53 676.172 2472.15 676.899C2472.78 677.618 2473.26 678.489 2473.59 679.512C2473.94 680.528 2474.11 681.68 2474.11 682.969ZM2471.17 683.907V682.946C2471.17 681.993 2471.07 681.153 2470.89 680.426C2470.71 679.692 2470.44 679.079 2470.08 678.587C2469.73 678.087 2469.29 677.712 2468.78 677.462C2468.26 677.204 2467.68 677.075 2467.03 677.075C2466.38 677.075 2465.8 677.204 2465.3 677.462C2464.79 677.712 2464.35 678.087 2464 678.587C2463.64 679.079 2463.37 679.692 2463.19 680.426C2463 681.153 2462.91 681.993 2462.91 682.946V683.907C2462.91 684.86 2463 685.704 2463.19 686.438C2463.37 687.172 2463.65 687.794 2464.01 688.301C2464.37 688.801 2464.81 689.18 2465.32 689.438C2465.83 689.688 2466.41 689.813 2467.05 689.813C2467.71 689.813 2468.29 689.688 2468.8 689.438C2469.31 689.18 2469.74 688.801 2470.09 688.301C2470.44 687.794 2470.71 687.172 2470.89 686.438C2471.07 685.704 2471.17 684.86 2471.17 683.907ZM2486.75 687.575C2486.75 687.223 2486.69 686.911 2486.58 686.637C2486.48 686.364 2486.3 686.114 2486.03 685.887C2485.77 685.661 2485.39 685.442 2484.91 685.231C2484.43 685.012 2483.82 684.79 2483.08 684.563C2482.27 684.313 2481.52 684.036 2480.83 683.731C2480.15 683.419 2479.56 683.059 2479.05 682.653C2478.54 682.239 2478.15 681.766 2477.86 681.235C2477.58 680.696 2477.44 680.075 2477.44 679.372C2477.44 678.676 2477.59 678.044 2477.88 677.473C2478.17 676.903 2478.59 676.411 2479.13 675.997C2479.68 675.575 2480.32 675.251 2481.06 675.024C2481.81 674.79 2482.63 674.672 2483.52 674.672C2484.79 674.672 2485.88 674.907 2486.79 675.376C2487.72 675.844 2488.42 676.473 2488.91 677.262C2489.41 678.051 2489.66 678.922 2489.66 679.876H2486.75C2486.75 679.313 2486.63 678.817 2486.38 678.387C2486.15 677.95 2485.79 677.606 2485.31 677.356C2484.83 677.106 2484.22 676.981 2483.49 676.981C2482.79 676.981 2482.22 677.087 2481.75 677.297C2481.29 677.508 2480.95 677.794 2480.72 678.153C2480.5 678.512 2480.38 678.919 2480.38 679.372C2480.38 679.692 2480.46 679.985 2480.61 680.251C2480.75 680.508 2480.98 680.751 2481.29 680.977C2481.59 681.196 2481.97 681.403 2482.43 681.598C2482.9 681.794 2483.44 681.981 2484.06 682.161C2485.01 682.442 2485.83 682.755 2486.54 683.098C2487.24 683.434 2487.82 683.817 2488.29 684.247C2488.76 684.676 2489.11 685.165 2489.35 685.712C2489.58 686.251 2489.7 686.864 2489.7 687.551C2489.7 688.27 2489.56 688.919 2489.27 689.497C2488.98 690.067 2488.56 690.555 2488.02 690.962C2487.49 691.36 2486.85 691.669 2486.1 691.887C2485.36 692.098 2484.53 692.204 2483.62 692.204C2482.8 692.204 2481.99 692.094 2481.19 691.876C2480.4 691.657 2479.68 691.325 2479.04 690.88C2478.39 690.426 2477.87 689.864 2477.49 689.192C2477.11 688.512 2476.91 687.719 2476.91 686.813H2479.86C2479.86 687.368 2479.95 687.84 2480.14 688.231C2480.33 688.622 2480.6 688.942 2480.95 689.192C2481.29 689.434 2481.69 689.614 2482.14 689.731C2482.6 689.848 2483.09 689.907 2483.62 689.907C2484.31 689.907 2484.88 689.809 2485.34 689.614C2485.81 689.419 2486.16 689.145 2486.4 688.794C2486.63 688.442 2486.75 688.036 2486.75 687.575ZM2502 687.575C2502 687.223 2501.94 686.911 2501.83 686.637C2501.73 686.364 2501.55 686.114 2501.28 685.887C2501.02 685.661 2500.64 685.442 2500.16 685.231C2499.68 685.012 2499.07 684.79 2498.33 684.563C2497.52 684.313 2496.77 684.036 2496.08 683.731C2495.4 683.419 2494.81 683.059 2494.3 682.653C2493.79 682.239 2493.4 681.766 2493.12 681.235C2492.83 680.696 2492.69 680.075 2492.69 679.372C2492.69 678.676 2492.84 678.044 2493.13 677.473C2493.42 676.903 2493.84 676.411 2494.38 675.997C2494.93 675.575 2495.57 675.251 2496.31 675.024C2497.06 674.79 2497.88 674.672 2498.78 674.672C2500.04 674.672 2501.13 674.907 2502.04 675.376C2502.97 675.844 2503.67 676.473 2504.17 677.262C2504.67 678.051 2504.92 678.922 2504.92 679.876H2502C2502 679.313 2501.88 678.817 2501.63 678.387C2501.4 677.95 2501.04 677.606 2500.56 677.356C2500.08 677.106 2499.47 676.981 2498.74 676.981C2498.04 676.981 2497.47 677.087 2497.01 677.297C2496.54 677.508 2496.2 677.794 2495.97 678.153C2495.75 678.512 2495.63 678.919 2495.63 679.372C2495.63 679.692 2495.71 679.985 2495.86 680.251C2496.01 680.508 2496.23 680.751 2496.54 680.977C2496.84 681.196 2497.22 681.403 2497.69 681.598C2498.15 681.794 2498.69 681.981 2499.31 682.161C2500.26 682.442 2501.08 682.755 2501.79 683.098C2502.49 683.434 2503.08 683.817 2503.54 684.247C2504.01 684.676 2504.37 685.165 2504.6 685.712C2504.83 686.251 2504.95 686.864 2504.95 687.551C2504.95 688.27 2504.81 688.919 2504.52 689.497C2504.23 690.067 2503.81 690.555 2503.28 690.962C2502.74 691.36 2502.1 691.669 2501.35 691.887C2500.61 692.098 2499.78 692.204 2498.87 692.204C2498.05 692.204 2497.24 692.094 2496.44 691.876C2495.65 691.657 2494.94 691.325 2494.29 690.88C2493.64 690.426 2493.12 689.864 2492.74 689.192C2492.36 688.512 2492.17 687.719 2492.17 686.813H2495.11C2495.11 687.368 2495.2 687.84 2495.39 688.231C2495.58 688.622 2495.85 688.942 2496.2 689.192C2496.54 689.434 2496.94 689.614 2497.39 689.731C2497.85 689.848 2498.35 689.907 2498.87 689.907C2499.56 689.907 2500.13 689.809 2500.59 689.614C2501.06 689.419 2501.41 689.145 2501.65 688.794C2501.88 688.442 2502 688.036 2502 687.575ZM2511.41 674.907V691.969H2508.47V674.907H2511.41ZM2522.19 684.258H2517.84L2517.82 682.114H2521.61C2522.25 682.114 2522.8 682.02 2523.24 681.833C2523.7 681.637 2524.04 681.36 2524.27 681.001C2524.51 680.633 2524.63 680.192 2524.63 679.676C2524.63 679.106 2524.52 678.641 2524.3 678.282C2524.08 677.922 2523.74 677.661 2523.29 677.497C2522.84 677.333 2522.27 677.251 2521.58 677.251H2518.73V691.969H2515.79V674.907H2521.58C2522.52 674.907 2523.35 674.997 2524.09 675.176C2524.83 675.356 2525.46 675.637 2525.97 676.02C2526.5 676.395 2526.89 676.872 2527.16 677.45C2527.43 678.028 2527.57 678.715 2527.57 679.512C2527.57 680.215 2527.4 680.86 2527.06 681.446C2526.73 682.024 2526.23 682.497 2525.57 682.864C2524.92 683.231 2524.1 683.45 2523.13 683.52L2522.19 684.258ZM2522.06 691.969H2516.91L2518.24 689.637H2522.06C2522.72 689.637 2523.28 689.528 2523.72 689.309C2524.17 689.083 2524.5 688.774 2524.72 688.383C2524.95 687.985 2525.06 687.52 2525.06 686.989C2525.06 686.434 2524.96 685.954 2524.77 685.547C2524.57 685.133 2524.26 684.817 2523.84 684.598C2523.42 684.372 2522.87 684.258 2522.19 684.258H2518.88L2518.91 682.114H2523.21L2523.88 682.922C2524.81 682.954 2525.58 683.161 2526.18 683.544C2526.79 683.926 2527.25 684.422 2527.54 685.032C2527.84 685.641 2527.99 686.297 2527.99 687.001C2527.99 688.087 2527.75 688.997 2527.27 689.731C2526.81 690.465 2526.13 691.024 2525.25 691.407C2524.36 691.782 2523.3 691.969 2522.06 691.969ZM2534.81 674.907V691.969H2531.87V674.907H2534.81ZM2549.88 689.637V691.969H2541.31V689.637H2549.88ZM2542.13 674.907V691.969H2539.19V674.907H2542.13ZM2556.01 674.907V691.969H2553.07V674.907H2556.01ZM2567.06 674.907V691.969H2564.14V674.907H2567.06ZM2572.41 674.907V677.251H2558.83V674.907H2572.41ZM2578.52 674.907V691.969H2575.58V674.907H2578.52ZM2594.07 689.637V691.969H2585.01V689.637H2594.07ZM2585.84 674.907V691.969H2582.9V674.907H2585.84ZM2592.88 682.032V684.329H2585.01V682.032H2592.88ZM2594.01 674.907V677.251H2585.01V674.907H2594.01ZM2606.17 687.575C2606.17 687.223 2606.11 686.911 2606 686.637C2605.9 686.364 2605.72 686.114 2605.45 685.887C2605.19 685.661 2604.81 685.442 2604.33 685.231C2603.85 685.012 2603.24 684.79 2602.5 684.563C2601.69 684.313 2600.94 684.036 2600.25 683.731C2599.57 683.419 2598.97 683.059 2598.47 682.653C2597.96 682.239 2597.56 681.766 2597.28 681.235C2597 680.696 2596.86 680.075 2596.86 679.372C2596.86 678.676 2597.01 678.044 2597.29 677.473C2597.59 676.903 2598.01 676.411 2598.55 675.997C2599.1 675.575 2599.74 675.251 2600.48 675.024C2601.22 674.79 2602.04 674.672 2602.94 674.672C2604.21 674.672 2605.3 674.907 2606.21 675.376C2607.13 675.844 2607.84 676.473 2608.33 677.262C2608.83 678.051 2609.08 678.922 2609.08 679.876H2606.17C2606.17 679.313 2606.04 678.817 2605.8 678.387C2605.57 677.95 2605.21 677.606 2604.72 677.356C2604.25 677.106 2603.64 676.981 2602.91 676.981C2602.21 676.981 2601.63 677.087 2601.17 677.297C2600.71 677.508 2600.37 677.794 2600.14 678.153C2599.92 678.512 2599.8 678.919 2599.8 679.372C2599.8 679.692 2599.88 679.985 2600.02 680.251C2600.17 680.508 2600.4 680.751 2600.7 680.977C2601.01 681.196 2601.39 681.403 2601.85 681.598C2602.31 681.794 2602.86 681.981 2603.48 682.161C2604.43 682.442 2605.25 682.755 2605.95 683.098C2606.66 683.434 2607.24 683.817 2607.71 684.247C2608.18 684.676 2608.53 685.165 2608.77 685.712C2609 686.251 2609.12 686.864 2609.12 687.551C2609.12 688.27 2608.97 688.919 2608.69 689.497C2608.4 690.067 2607.98 690.555 2607.44 690.962C2606.91 691.36 2606.27 691.669 2605.52 691.887C2604.78 692.098 2603.95 692.204 2603.04 692.204C2602.22 692.204 2601.41 692.094 2600.61 691.876C2599.82 691.657 2599.1 691.325 2598.45 690.88C2597.81 690.426 2597.29 689.864 2596.91 689.192C2596.52 688.512 2596.33 687.719 2596.33 686.813H2599.27C2599.27 687.368 2599.37 687.84 2599.56 688.231C2599.75 688.622 2600.02 688.942 2600.36 689.192C2600.71 689.434 2601.11 689.614 2601.56 689.731C2602.02 689.848 2602.51 689.907 2603.04 689.907C2603.72 689.907 2604.3 689.809 2604.76 689.614C2605.23 689.419 2605.58 689.145 2605.81 688.794C2606.05 688.442 2606.17 688.036 2606.17 687.575Z" fill="#100D26"/>
<path d="M2252 728.969H2687V738.969H2252V728.969Z" fill="#80823A"/>
</g>
<g filter="url(#filter3_dddddd_3_173)">
<path d="M2688.5 769.469V858.469H2252.5V769.469H2688.5Z" fill="#F0F0DF"/>
<path d="M2688.5 769.469V858.469H2252.5V769.469H2688.5Z" stroke="#F1F1D2"/>
<path d="M2386.84 812.969V813.907C2386.84 815.196 2386.67 816.352 2386.34 817.376C2386 818.399 2385.52 819.27 2384.89 819.989C2384.28 820.708 2383.54 821.258 2382.67 821.641C2381.8 822.016 2380.84 822.204 2379.79 822.204C2378.74 822.204 2377.78 822.016 2376.91 821.641C2376.05 821.258 2375.31 820.708 2374.68 819.989C2374.04 819.27 2373.55 818.399 2373.2 817.376C2372.86 816.352 2372.68 815.196 2372.68 813.907V812.969C2372.68 811.68 2372.86 810.528 2373.2 809.512C2373.54 808.489 2374.03 807.618 2374.65 806.899C2375.29 806.172 2376.03 805.622 2376.89 805.247C2377.76 804.864 2378.71 804.672 2379.76 804.672C2380.82 804.672 2381.78 804.864 2382.64 805.247C2383.51 805.622 2384.26 806.172 2384.88 806.899C2385.51 807.618 2385.99 808.489 2386.32 809.512C2386.67 810.528 2386.84 811.68 2386.84 812.969ZM2383.9 813.907V812.946C2383.9 811.993 2383.8 811.153 2383.62 810.426C2383.44 809.692 2383.17 809.079 2382.81 808.587C2382.46 808.087 2382.02 807.712 2381.51 807.462C2380.99 807.204 2380.41 807.075 2379.76 807.075C2379.11 807.075 2378.54 807.204 2378.03 807.462C2377.52 807.712 2377.09 808.087 2376.73 808.587C2376.38 809.079 2376.11 809.692 2375.92 810.426C2375.73 811.153 2375.64 811.993 2375.64 812.946V813.907C2375.64 814.86 2375.73 815.704 2375.92 816.438C2376.11 817.172 2376.38 817.794 2376.74 818.301C2377.11 818.801 2377.54 819.18 2378.05 819.438C2378.56 819.688 2379.14 819.813 2379.79 819.813C2380.44 819.813 2381.02 819.688 2381.53 819.438C2382.04 819.18 2382.47 818.801 2382.82 818.301C2383.17 817.794 2383.44 817.172 2383.62 816.438C2383.8 815.704 2383.9 814.86 2383.9 813.907ZM2396.9 814.258H2392.55L2392.53 812.114H2396.33C2396.97 812.114 2397.51 812.02 2397.95 811.833C2398.41 811.637 2398.75 811.36 2398.99 811.001C2399.22 810.633 2399.34 810.192 2399.34 809.676C2399.34 809.106 2399.23 808.641 2399.01 808.282C2398.79 807.922 2398.45 807.661 2398 807.497C2397.56 807.333 2396.99 807.251 2396.29 807.251H2393.44V821.969H2390.5V804.907H2396.29C2397.23 804.907 2398.06 804.997 2398.8 805.176C2399.54 805.356 2400.17 805.637 2400.68 806.02C2401.21 806.395 2401.6 806.872 2401.87 807.45C2402.14 808.028 2402.28 808.715 2402.28 809.512C2402.28 810.215 2402.11 810.86 2401.77 811.446C2401.44 812.024 2400.94 812.497 2400.29 812.864C2399.63 813.231 2398.81 813.45 2397.84 813.52L2396.9 814.258ZM2396.77 821.969H2391.63L2392.95 819.637H2396.77C2397.43 819.637 2397.99 819.528 2398.43 819.309C2398.88 819.083 2399.21 818.774 2399.43 818.383C2399.66 817.985 2399.77 817.52 2399.77 816.989C2399.77 816.434 2399.67 815.954 2399.48 815.547C2399.28 815.133 2398.97 814.817 2398.55 814.598C2398.13 814.372 2397.58 814.258 2396.9 814.258H2393.59L2393.62 812.114H2397.92L2398.59 812.922C2399.52 812.954 2400.29 813.161 2400.9 813.544C2401.51 813.926 2401.96 814.422 2402.26 815.032C2402.55 815.641 2402.7 816.297 2402.7 817.001C2402.7 818.087 2402.46 818.997 2401.99 819.731C2401.52 820.465 2400.84 821.024 2399.96 821.407C2399.08 821.782 2398.01 821.969 2396.77 821.969ZM2415.36 817.575C2415.36 817.223 2415.31 816.911 2415.2 816.637C2415.1 816.364 2414.91 816.114 2414.65 815.887C2414.38 815.661 2414.01 815.442 2413.52 815.231C2413.05 815.012 2412.44 814.79 2411.69 814.563C2410.88 814.313 2410.13 814.036 2409.44 813.731C2408.76 813.419 2408.17 813.059 2407.66 812.653C2407.15 812.239 2406.76 811.766 2406.48 811.235C2406.2 810.696 2406.06 810.075 2406.06 809.372C2406.06 808.676 2406.2 808.044 2406.49 807.473C2406.79 806.903 2407.21 806.411 2407.74 805.997C2408.29 805.575 2408.94 805.251 2409.68 805.024C2410.42 804.79 2411.24 804.672 2412.14 804.672C2413.4 804.672 2414.49 804.907 2415.41 805.376C2416.33 805.844 2417.04 806.473 2417.53 807.262C2418.03 808.051 2418.28 808.922 2418.28 809.876H2415.36C2415.36 809.313 2415.24 808.817 2415 808.387C2414.76 807.95 2414.4 807.606 2413.92 807.356C2413.44 807.106 2412.84 806.981 2412.1 806.981C2411.41 806.981 2410.83 807.087 2410.37 807.297C2409.91 807.508 2409.56 807.794 2409.34 808.153C2409.11 808.512 2409 808.919 2409 809.372C2409 809.692 2409.07 809.985 2409.22 810.251C2409.37 810.508 2409.6 810.751 2409.9 810.977C2410.21 811.196 2410.59 811.403 2411.05 811.598C2411.51 811.794 2412.05 811.981 2412.68 812.161C2413.62 812.442 2414.45 812.755 2415.15 813.098C2415.85 813.434 2416.44 813.817 2416.91 814.247C2417.38 814.676 2417.73 815.165 2417.96 815.712C2418.2 816.251 2418.31 816.864 2418.31 817.551C2418.31 818.27 2418.17 818.919 2417.88 819.497C2417.59 820.067 2417.18 820.555 2416.64 820.962C2416.11 821.36 2415.47 821.669 2414.72 821.887C2413.98 822.098 2413.15 822.204 2412.23 822.204C2411.41 822.204 2410.6 822.094 2409.81 821.876C2409.02 821.657 2408.3 821.325 2407.65 820.88C2407 820.426 2406.49 819.864 2406.1 819.192C2405.72 818.512 2405.53 817.719 2405.53 816.813H2408.47C2408.47 817.368 2408.56 817.84 2408.75 818.231C2408.95 818.622 2409.22 818.942 2409.56 819.192C2409.9 819.434 2410.3 819.614 2410.76 819.731C2411.22 819.848 2411.71 819.907 2412.23 819.907C2412.92 819.907 2413.49 819.809 2413.96 819.614C2414.42 819.419 2414.78 819.145 2415.01 818.794C2415.24 818.442 2415.36 818.036 2415.36 817.575ZM2432.8 819.637V821.969H2423.75V819.637H2432.8ZM2424.58 804.907V821.969H2421.64V804.907H2424.58ZM2431.62 812.032V814.329H2423.75V812.032H2431.62ZM2432.75 804.907V807.251H2423.75V804.907H2432.75ZM2435.93 804.907H2441.96C2443.26 804.907 2444.36 805.102 2445.28 805.493C2446.19 805.883 2446.89 806.462 2447.38 807.227C2447.87 807.985 2448.11 808.922 2448.11 810.04C2448.11 810.891 2447.96 811.641 2447.65 812.29C2447.33 812.938 2446.89 813.485 2446.32 813.93C2445.75 814.368 2445.07 814.708 2444.28 814.95L2443.39 815.383H2437.97L2437.94 813.051H2442.01C2442.71 813.051 2443.3 812.926 2443.77 812.676C2444.24 812.426 2444.59 812.087 2444.82 811.657C2445.06 811.219 2445.18 810.727 2445.18 810.18C2445.18 809.587 2445.07 809.071 2444.83 808.633C2444.61 808.188 2444.26 807.848 2443.78 807.614C2443.3 807.372 2442.7 807.251 2441.96 807.251H2438.87V821.969H2435.93V804.907ZM2445.67 821.969L2441.66 814.305L2444.74 814.294L2448.81 821.817V821.969H2445.67ZM2457.38 818.852L2461.87 804.907H2465.11L2458.99 821.969H2456.8L2457.38 818.852ZM2453.23 804.907L2457.68 818.852L2458.29 821.969H2456.09L2449.99 804.907H2453.23ZM2478.91 819.637V821.969H2469.85V819.637H2478.91ZM2470.68 804.907V821.969H2467.74V804.907H2470.68ZM2477.73 812.032V814.329H2469.85V812.032H2477.73ZM2478.85 804.907V807.251H2469.85V804.907H2478.85ZM2495.19 804.907V821.969H2492.27V804.907H2495.19ZM2500.54 804.907V807.251H2486.96V804.907H2500.54ZM2514.68 819.637V821.969H2505.62V819.637H2514.68ZM2506.45 804.907V821.969H2503.51V804.907H2506.45ZM2513.5 812.032V814.329H2505.62V812.032H2513.5ZM2514.62 804.907V807.251H2505.62V804.907H2514.62ZM2524.45 807.18L2519.35 821.969H2516.27L2522.69 804.907H2524.66L2524.45 807.18ZM2528.71 821.969L2523.6 807.18L2523.38 804.907H2525.36L2531.81 821.969H2528.71ZM2528.47 815.641V817.973H2519.18V815.641H2528.47ZM2535.63 804.907H2538.26L2543.19 818.067L2548.11 804.907H2550.74L2544.22 821.969H2542.13L2535.63 804.907ZM2534.44 804.907H2536.93L2537.37 816.297V821.969H2534.44V804.907ZM2549.44 804.907H2551.94V821.969H2549V816.297L2549.44 804.907ZM2565.13 817.575C2565.13 817.223 2565.08 816.911 2564.97 816.637C2564.87 816.364 2564.68 816.114 2564.42 815.887C2564.15 815.661 2563.78 815.442 2563.29 815.231C2562.82 815.012 2562.21 814.79 2561.46 814.563C2560.65 814.313 2559.9 814.036 2559.21 813.731C2558.53 813.419 2557.94 813.059 2557.43 812.653C2556.93 812.239 2556.53 811.766 2556.25 811.235C2555.97 810.696 2555.83 810.075 2555.83 809.372C2555.83 808.676 2555.97 808.044 2556.26 807.473C2556.56 806.903 2556.98 806.411 2557.51 805.997C2558.06 805.575 2558.71 805.251 2559.45 805.024C2560.19 804.79 2561.01 804.672 2561.91 804.672C2563.18 804.672 2564.26 804.907 2565.18 805.376C2566.1 805.844 2566.81 806.473 2567.3 807.262C2567.8 808.051 2568.05 808.922 2568.05 809.876H2565.13C2565.13 809.313 2565.01 808.817 2564.77 808.387C2564.53 807.95 2564.18 807.606 2563.69 807.356C2563.21 807.106 2562.61 806.981 2561.87 806.981C2561.18 806.981 2560.6 807.087 2560.14 807.297C2559.68 807.508 2559.34 807.794 2559.11 808.153C2558.88 808.512 2558.77 808.919 2558.77 809.372C2558.77 809.692 2558.84 809.985 2558.99 810.251C2559.14 810.508 2559.37 810.751 2559.67 810.977C2559.98 811.196 2560.36 811.403 2560.82 811.598C2561.28 811.794 2561.82 811.981 2562.45 812.161C2563.39 812.442 2564.22 812.755 2564.92 813.098C2565.62 813.434 2566.21 813.817 2566.68 814.247C2567.15 814.676 2567.5 815.165 2567.73 815.712C2567.97 816.251 2568.09 816.864 2568.09 817.551C2568.09 818.27 2567.94 818.919 2567.65 819.497C2567.36 820.067 2566.95 820.555 2566.41 820.962C2565.88 821.36 2565.24 821.669 2564.49 821.887C2563.75 822.098 2562.92 822.204 2562 822.204C2561.18 822.204 2560.37 822.094 2559.58 821.876C2558.79 821.657 2558.07 821.325 2557.42 820.88C2556.77 820.426 2556.26 819.864 2555.87 819.192C2555.49 818.512 2555.3 817.719 2555.3 816.813H2558.24C2558.24 817.368 2558.34 817.84 2558.52 818.231C2558.72 818.622 2558.99 818.942 2559.33 819.192C2559.68 819.434 2560.07 819.614 2560.53 819.731C2560.99 819.848 2561.48 819.907 2562 819.907C2562.69 819.907 2563.26 819.809 2563.73 819.614C2564.19 819.419 2564.55 819.145 2564.78 818.794C2565.01 818.442 2565.13 818.036 2565.13 817.575Z" fill="#100D26"/>
<path d="M2252 858.969H2689V868.969H2252V858.969Z" fill="#80823A"/>
</g>
<g filter="url(#filter4_dddddd_3_173)">
<path d="M2687.5 899.469V988.469H2252.5V899.469H2687.5Z" fill="#F0F0DF"/>
<path d="M2687.5 899.469V988.469H2252.5V899.469H2687.5Z" stroke="#F1F1D2"/>
<path d="M2347.84 943.251V949.766C2347.59 950.087 2347.21 950.438 2346.7 950.821C2346.19 951.196 2345.52 951.52 2344.67 951.794C2343.83 952.067 2342.78 952.204 2341.52 952.204C2340.45 952.204 2339.47 952.024 2338.58 951.665C2337.69 951.297 2336.92 950.762 2336.27 950.059C2335.63 949.356 2335.13 948.501 2334.78 947.493C2334.43 946.477 2334.25 945.321 2334.25 944.024V942.84C2334.25 941.551 2334.41 940.403 2334.73 939.395C2335.06 938.38 2335.53 937.52 2336.14 936.817C2336.75 936.114 2337.48 935.583 2338.34 935.223C2339.21 934.856 2340.19 934.672 2341.29 934.672C2342.68 934.672 2343.84 934.907 2344.75 935.376C2345.68 935.837 2346.39 936.477 2346.89 937.297C2347.39 938.118 2347.7 939.055 2347.84 940.11H2344.95C2344.86 939.516 2344.68 938.985 2344.4 938.516C2344.14 938.047 2343.75 937.68 2343.25 937.415C2342.76 937.141 2342.12 937.005 2341.33 937.005C2340.65 937.005 2340.05 937.133 2339.54 937.391C2339.02 937.649 2338.59 938.028 2338.25 938.528C2337.91 939.028 2337.66 939.637 2337.49 940.356C2337.32 941.075 2337.23 941.895 2337.23 942.817V944.024C2337.23 944.962 2337.33 945.794 2337.52 946.52C2337.73 947.247 2338.02 947.86 2338.39 948.36C2338.77 948.86 2339.24 949.239 2339.79 949.497C2340.33 949.747 2340.95 949.872 2341.64 949.872C2342.31 949.872 2342.86 949.817 2343.29 949.708C2343.72 949.59 2344.06 949.454 2344.31 949.297C2344.57 949.133 2344.77 948.977 2344.91 948.829V945.442H2341.36V943.251H2347.84ZM2362.98 949.637V951.969H2353.92V949.637H2362.98ZM2354.76 934.907V951.969H2351.81V934.907H2354.76ZM2361.8 942.032V944.329H2353.92V942.032H2361.8ZM2362.92 934.907V937.251H2353.92V934.907H2362.92ZM2373.36 934.907V951.969H2370.44V934.907H2373.36ZM2378.71 934.907V937.251H2365.13V934.907H2378.71ZM2394.27 934.907V951.969H2391.36V934.907H2394.27ZM2399.63 934.907V937.251H2386.05V934.907H2399.63ZM2413.77 949.637V951.969H2404.71V949.637H2413.77ZM2405.54 934.907V951.969H2402.6V934.907H2405.54ZM2412.58 942.032V944.329H2404.71V942.032H2412.58ZM2413.71 934.907V937.251H2404.71V934.907H2413.71ZM2423.53 937.18L2418.44 951.969H2415.36L2421.78 934.907H2423.75L2423.53 937.18ZM2427.8 951.969L2422.69 937.18L2422.47 934.907H2424.45L2430.89 951.969H2427.8ZM2427.55 945.641V947.973H2418.27V945.641H2427.55ZM2434.72 934.907H2437.34L2442.28 948.067L2447.2 934.907H2449.83L2443.31 951.969H2441.22L2434.72 934.907ZM2433.52 934.907H2436.02L2436.45 946.297V951.969H2433.52V934.907ZM2448.52 934.907H2451.03V951.969H2448.09V946.297L2448.52 934.907ZM2473.11 949.637V951.969H2464.05V949.637H2473.11ZM2464.88 934.907V951.969H2461.94V934.907H2464.88ZM2471.93 942.032V944.329H2464.05V942.032H2471.93ZM2473.05 934.907V937.251H2464.05V934.907H2473.05ZM2478.47 934.907L2482.09 941.13L2485.71 934.907H2489.1L2483.94 943.356L2489.23 951.969H2485.81L2482.09 945.63L2478.38 951.969H2474.94L2480.24 943.356L2475.07 934.907H2478.47ZM2498.6 945.606H2494.15V943.274H2498.6C2499.37 943.274 2499.99 943.149 2500.47 942.899C2500.95 942.649 2501.29 942.305 2501.51 941.868C2501.74 941.422 2501.85 940.915 2501.85 940.344C2501.85 939.805 2501.74 939.301 2501.51 938.833C2501.29 938.356 2500.95 937.973 2500.47 937.684C2499.99 937.395 2499.37 937.251 2498.6 937.251H2495.06V951.969H2492.12V934.907H2498.6C2499.92 934.907 2501.04 935.141 2501.96 935.61C2502.89 936.071 2503.6 936.712 2504.08 937.532C2504.56 938.344 2504.81 939.274 2504.81 940.321C2504.81 941.422 2504.56 942.368 2504.08 943.157C2503.6 943.946 2502.89 944.551 2501.96 944.973C2501.04 945.395 2499.92 945.606 2498.6 945.606ZM2519.33 949.637V951.969H2510.27V949.637H2519.33ZM2511.1 934.907V951.969H2508.16V934.907H2511.1ZM2518.15 942.032V944.329H2510.27V942.032H2518.15ZM2519.27 934.907V937.251H2510.27V934.907H2519.27ZM2522.45 934.907H2528.49C2529.79 934.907 2530.89 935.102 2531.81 935.493C2532.72 935.883 2533.42 936.462 2533.9 937.227C2534.4 937.985 2534.64 938.922 2534.64 940.04C2534.64 940.891 2534.49 941.641 2534.17 942.29C2533.86 942.938 2533.42 943.485 2532.85 943.93C2532.28 944.368 2531.6 944.708 2530.81 944.95L2529.92 945.383H2524.49L2524.47 943.051H2528.54C2529.24 943.051 2529.82 942.926 2530.29 942.676C2530.76 942.426 2531.11 942.087 2531.35 941.657C2531.59 941.219 2531.71 940.727 2531.71 940.18C2531.71 939.587 2531.59 939.071 2531.36 938.633C2531.13 938.188 2530.78 937.848 2530.31 937.614C2529.83 937.372 2529.22 937.251 2528.49 937.251H2525.4V951.969H2522.45V934.907ZM2532.19 951.969L2528.18 944.305L2531.27 944.294L2535.33 951.817V951.969H2532.19ZM2541.43 934.907V951.969H2538.49V934.907H2541.43ZM2556.98 949.637V951.969H2547.92V949.637H2556.98ZM2548.75 934.907V951.969H2545.81V934.907H2548.75ZM2555.79 942.032V944.329H2547.92V942.032H2555.79ZM2556.92 934.907V937.251H2547.92V934.907H2556.92ZM2573.63 934.907V951.969H2570.69L2563.04 939.747V951.969H2560.1V934.907H2563.04L2570.72 947.153V934.907H2573.63ZM2587.94 946.415H2590.87C2590.77 947.532 2590.46 948.528 2589.93 949.403C2589.4 950.27 2588.65 950.954 2587.69 951.454C2586.73 951.954 2585.56 952.204 2584.19 952.204C2583.13 952.204 2582.18 952.016 2581.34 951.641C2580.49 951.258 2579.77 950.719 2579.17 950.024C2578.57 949.321 2578.11 948.473 2577.79 947.481C2577.47 946.489 2577.32 945.38 2577.32 944.153V942.735C2577.32 941.508 2577.48 940.399 2577.8 939.407C2578.13 938.415 2578.6 937.567 2579.2 936.864C2579.81 936.153 2580.54 935.61 2581.4 935.235C2582.26 934.86 2583.22 934.672 2584.29 934.672C2585.65 934.672 2586.8 934.922 2587.74 935.422C2588.67 935.922 2589.4 936.614 2589.92 937.497C2590.44 938.38 2590.76 939.391 2590.88 940.532H2587.95C2587.87 939.797 2587.7 939.169 2587.43 938.645C2587.17 938.122 2586.79 937.723 2586.28 937.45C2585.78 937.169 2585.11 937.028 2584.29 937.028C2583.62 937.028 2583.03 937.153 2582.53 937.403C2582.03 937.653 2581.62 938.02 2581.28 938.505C2580.94 938.989 2580.69 939.587 2580.52 940.297C2580.35 941.001 2580.27 941.805 2580.27 942.712V944.153C2580.27 945.012 2580.35 945.794 2580.49 946.497C2580.65 947.192 2580.88 947.79 2581.2 948.29C2581.52 948.79 2581.92 949.176 2582.42 949.45C2582.91 949.723 2583.5 949.86 2584.19 949.86C2585.02 949.86 2585.7 949.727 2586.21 949.462C2586.74 949.196 2587.13 948.809 2587.4 948.301C2587.67 947.786 2587.85 947.157 2587.94 946.415ZM2605.42 949.637V951.969H2596.37V949.637H2605.42ZM2597.2 934.907V951.969H2594.26V934.907H2597.2ZM2604.24 942.032V944.329H2596.37V942.032H2604.24ZM2605.37 934.907V937.251H2596.37V934.907H2605.37Z" fill="#100D26"/>
<path d="M2252 988.969H2687V998.969H2252V988.969Z" fill="#80823A"/>
</g>
<g filter="url(#filter5_dddddd_3_173)">
<path d="M2686.5 1029.47V1118.47H2252.5V1029.47H2686.5Z" fill="#F0F0DF"/>
<path d="M2686.5 1029.47V1118.47H2252.5V1029.47H2686.5Z" stroke="#F1F1D2"/>
<path d="M2378.69 1081.97H2375.05L2375.07 1079.64H2378.69C2379.75 1079.64 2380.63 1079.41 2381.34 1078.95C2382.06 1078.48 2382.6 1077.82 2382.96 1076.97C2383.32 1076.11 2383.51 1075.08 2383.51 1073.9V1072.97C2383.51 1072.05 2383.4 1071.23 2383.19 1070.52C2382.99 1069.81 2382.68 1069.21 2382.28 1068.73C2381.88 1068.24 2381.39 1067.88 2380.8 1067.63C2380.22 1067.38 2379.55 1067.25 2378.8 1067.25H2374.98V1064.91H2378.8C2379.93 1064.91 2380.96 1065.1 2381.9 1065.48C2382.84 1065.86 2383.65 1066.4 2384.33 1067.11C2385.02 1067.82 2385.54 1068.67 2385.91 1069.66C2386.28 1070.66 2386.46 1071.77 2386.46 1072.99V1073.9C2386.46 1075.12 2386.28 1076.23 2385.91 1077.22C2385.54 1078.22 2385.02 1079.07 2384.33 1079.78C2383.64 1080.48 2382.82 1081.02 2381.87 1081.41C2380.92 1081.78 2379.86 1081.97 2378.69 1081.97ZM2376.68 1064.91V1081.97H2373.73V1064.91H2376.68ZM2401.3 1079.64V1081.97H2392.24V1079.64H2401.3ZM2393.08 1064.91V1081.97H2390.13V1064.91H2393.08ZM2400.12 1072.03V1074.33H2392.24V1072.03H2400.12ZM2401.24 1064.91V1067.25H2392.24V1064.91H2401.24ZM2410.27 1078.85L2414.76 1064.91H2418.01L2411.89 1081.97H2409.7L2410.27 1078.85ZM2406.12 1064.91L2410.58 1078.85L2411.19 1081.97H2408.98L2402.89 1064.91H2406.12ZM2431.8 1079.64V1081.97H2422.75V1079.64H2431.8ZM2423.58 1064.91V1081.97H2420.64V1064.91H2423.58ZM2430.62 1072.03V1074.33H2422.75V1072.03H2430.62ZM2431.75 1064.91V1067.25H2422.75V1064.91H2431.75ZM2445.61 1079.64V1081.97H2437.05V1079.64H2445.61ZM2437.87 1064.91V1081.97H2434.93V1064.91H2437.87ZM2461.44 1072.97V1073.91C2461.44 1075.2 2461.27 1076.35 2460.94 1077.38C2460.6 1078.4 2460.12 1079.27 2459.49 1079.99C2458.88 1080.71 2458.14 1081.26 2457.27 1081.64C2456.4 1082.02 2455.44 1082.2 2454.39 1082.2C2453.34 1082.2 2452.38 1082.02 2451.51 1081.64C2450.65 1081.26 2449.91 1080.71 2449.28 1079.99C2448.64 1079.27 2448.15 1078.4 2447.8 1077.38C2447.46 1076.35 2447.28 1075.2 2447.28 1073.91V1072.97C2447.28 1071.68 2447.46 1070.53 2447.8 1069.51C2448.14 1068.49 2448.63 1067.62 2449.25 1066.9C2449.89 1066.17 2450.63 1065.62 2451.49 1065.25C2452.36 1064.86 2453.31 1064.67 2454.36 1064.67C2455.42 1064.67 2456.38 1064.86 2457.24 1065.25C2458.11 1065.62 2458.86 1066.17 2459.48 1066.9C2460.11 1067.62 2460.59 1068.49 2460.92 1069.51C2461.27 1070.53 2461.44 1071.68 2461.44 1072.97ZM2458.5 1073.91V1072.95C2458.5 1071.99 2458.4 1071.15 2458.22 1070.43C2458.04 1069.69 2457.77 1069.08 2457.41 1068.59C2457.06 1068.09 2456.62 1067.71 2456.11 1067.46C2455.59 1067.2 2455.01 1067.07 2454.36 1067.07C2453.71 1067.07 2453.14 1067.2 2452.63 1067.46C2452.12 1067.71 2451.69 1068.09 2451.33 1068.59C2450.97 1069.08 2450.71 1069.69 2450.52 1070.43C2450.33 1071.15 2450.24 1071.99 2450.24 1072.95V1073.91C2450.24 1074.86 2450.33 1075.7 2450.52 1076.44C2450.71 1077.17 2450.98 1077.79 2451.34 1078.3C2451.71 1078.8 2452.14 1079.18 2452.65 1079.44C2453.16 1079.69 2453.74 1079.81 2454.39 1079.81C2455.04 1079.81 2455.62 1079.69 2456.13 1079.44C2456.64 1079.18 2457.07 1078.8 2457.42 1078.3C2457.77 1077.79 2458.04 1077.17 2458.22 1076.44C2458.4 1075.7 2458.5 1074.86 2458.5 1073.91ZM2471.58 1075.61H2467.14V1073.27H2471.58C2472.36 1073.27 2472.98 1073.15 2473.46 1072.9C2473.93 1072.65 2474.28 1072.31 2474.5 1071.87C2474.73 1071.42 2474.84 1070.91 2474.84 1070.34C2474.84 1069.81 2474.73 1069.3 2474.5 1068.83C2474.28 1068.36 2473.93 1067.97 2473.46 1067.68C2472.98 1067.4 2472.36 1067.25 2471.58 1067.25H2468.04V1081.97H2465.1V1064.91H2471.58C2472.9 1064.91 2474.02 1065.14 2474.94 1065.61C2475.87 1066.07 2476.58 1066.71 2477.07 1067.53C2477.55 1068.34 2477.79 1069.27 2477.79 1070.32C2477.79 1071.42 2477.55 1072.37 2477.07 1073.16C2476.58 1073.95 2475.87 1074.55 2474.94 1074.97C2474.02 1075.4 2472.9 1075.61 2471.58 1075.61ZM2496.82 1077.57C2496.82 1077.22 2496.77 1076.91 2496.66 1076.64C2496.56 1076.36 2496.37 1076.11 2496.11 1075.89C2495.84 1075.66 2495.47 1075.44 2494.98 1075.23C2494.51 1075.01 2493.9 1074.79 2493.15 1074.56C2492.34 1074.31 2491.59 1074.04 2490.9 1073.73C2490.22 1073.42 2489.63 1073.06 2489.12 1072.65C2488.62 1072.24 2488.22 1071.77 2487.94 1071.23C2487.66 1070.7 2487.52 1070.07 2487.52 1069.37C2487.52 1068.68 2487.66 1068.04 2487.95 1067.47C2488.25 1066.9 2488.67 1066.41 2489.21 1066C2489.75 1065.57 2490.4 1065.25 2491.14 1065.02C2491.88 1064.79 2492.7 1064.67 2493.6 1064.67C2494.87 1064.67 2495.96 1064.91 2496.87 1065.38C2497.79 1065.84 2498.5 1066.47 2498.99 1067.26C2499.49 1068.05 2499.74 1068.92 2499.74 1069.88H2496.82C2496.82 1069.31 2496.7 1068.82 2496.46 1068.39C2496.22 1067.95 2495.87 1067.61 2495.38 1067.36C2494.9 1067.11 2494.3 1066.98 2493.56 1066.98C2492.87 1066.98 2492.29 1067.09 2491.83 1067.3C2491.37 1067.51 2491.03 1067.79 2490.8 1068.15C2490.57 1068.51 2490.46 1068.92 2490.46 1069.37C2490.46 1069.69 2490.53 1069.98 2490.68 1070.25C2490.83 1070.51 2491.06 1070.75 2491.36 1070.98C2491.67 1071.2 2492.05 1071.4 2492.51 1071.6C2492.97 1071.79 2493.51 1071.98 2494.14 1072.16C2495.08 1072.44 2495.91 1072.75 2496.61 1073.1C2497.31 1073.43 2497.9 1073.82 2498.37 1074.25C2498.84 1074.68 2499.19 1075.16 2499.42 1075.71C2499.66 1076.25 2499.78 1076.86 2499.78 1077.55C2499.78 1078.27 2499.63 1078.92 2499.34 1079.5C2499.05 1080.07 2498.64 1080.56 2498.1 1080.96C2497.57 1081.36 2496.93 1081.67 2496.18 1081.89C2495.44 1082.1 2494.61 1082.2 2493.69 1082.2C2492.87 1082.2 2492.06 1082.09 2491.27 1081.88C2490.48 1081.66 2489.76 1081.32 2489.11 1080.88C2488.46 1080.43 2487.95 1079.86 2487.56 1079.19C2487.18 1078.51 2486.99 1077.72 2486.99 1076.81H2489.93C2489.93 1077.37 2490.03 1077.84 2490.21 1078.23C2490.41 1078.62 2490.68 1078.94 2491.02 1079.19C2491.37 1079.43 2491.76 1079.61 2492.22 1079.73C2492.68 1079.85 2493.17 1079.91 2493.69 1079.91C2494.38 1079.91 2494.96 1079.81 2495.42 1079.61C2495.89 1079.42 2496.24 1079.15 2496.47 1078.79C2496.71 1078.44 2496.82 1078.04 2496.82 1077.57ZM2506.04 1064.91V1081.97H2503.1V1064.91H2506.04ZM2516.29 1064.91L2509.38 1073.12L2505.44 1077.29L2504.93 1074.38L2507.74 1070.91L2512.71 1064.91H2516.29ZM2513.13 1081.97L2507.52 1073.88L2509.54 1071.88L2516.62 1081.97H2513.13ZM2522.12 1064.91V1081.97H2519.18V1064.91H2522.12ZM2537.19 1079.64V1081.97H2528.62V1079.64H2537.19ZM2529.44 1064.91V1081.97H2526.5V1064.91H2529.44ZM2550.87 1079.64V1081.97H2542.3V1079.64H2550.87ZM2543.12 1064.91V1081.97H2540.18V1064.91H2543.12ZM2562.84 1077.57C2562.84 1077.22 2562.78 1076.91 2562.67 1076.64C2562.57 1076.36 2562.39 1076.11 2562.12 1075.89C2561.86 1075.66 2561.48 1075.44 2561 1075.23C2560.52 1075.01 2559.91 1074.79 2559.17 1074.56C2558.36 1074.31 2557.61 1074.04 2556.92 1073.73C2556.24 1073.42 2555.65 1073.06 2555.14 1072.65C2554.63 1072.24 2554.24 1071.77 2553.95 1071.23C2553.67 1070.7 2553.53 1070.07 2553.53 1069.37C2553.53 1068.68 2553.68 1068.04 2553.97 1067.47C2554.26 1066.9 2554.68 1066.41 2555.22 1066C2555.77 1065.57 2556.41 1065.25 2557.15 1065.02C2557.9 1064.79 2558.72 1064.67 2559.61 1064.67C2560.88 1064.67 2561.97 1064.91 2562.88 1065.38C2563.81 1065.84 2564.51 1066.47 2565 1067.26C2565.5 1068.05 2565.75 1068.92 2565.75 1069.88H2562.84C2562.84 1069.31 2562.72 1068.82 2562.47 1068.39C2562.24 1067.95 2561.88 1067.61 2561.4 1067.36C2560.92 1067.11 2560.31 1066.98 2559.58 1066.98C2558.88 1066.98 2558.31 1067.09 2557.84 1067.3C2557.38 1067.51 2557.04 1067.79 2556.81 1068.15C2556.59 1068.51 2556.47 1068.92 2556.47 1069.37C2556.47 1069.69 2556.55 1069.98 2556.7 1070.25C2556.84 1070.51 2557.07 1070.75 2557.38 1070.98C2557.68 1071.2 2558.06 1071.4 2558.52 1071.6C2558.99 1071.79 2559.53 1071.98 2560.15 1072.16C2561.1 1072.44 2561.92 1072.75 2562.63 1073.1C2563.33 1073.43 2563.91 1073.82 2564.38 1074.25C2564.85 1074.68 2565.2 1075.16 2565.44 1075.71C2565.67 1076.25 2565.79 1076.86 2565.79 1077.55C2565.79 1078.27 2565.65 1078.92 2565.36 1079.5C2565.07 1080.07 2564.65 1080.56 2564.11 1080.96C2563.58 1081.36 2562.94 1081.67 2562.19 1081.89C2561.45 1082.1 2560.62 1082.2 2559.71 1082.2C2558.89 1082.2 2558.08 1082.09 2557.28 1081.88C2556.49 1081.66 2555.77 1081.32 2555.13 1080.88C2554.48 1080.43 2553.96 1079.86 2553.58 1079.19C2553.2 1078.51 2553 1077.72 2553 1076.81H2555.95C2555.95 1077.37 2556.04 1077.84 2556.23 1078.23C2556.42 1078.62 2556.69 1078.94 2557.04 1079.19C2557.38 1079.43 2557.78 1079.61 2558.23 1079.73C2558.69 1079.85 2559.18 1079.91 2559.71 1079.91C2560.4 1079.91 2560.97 1079.81 2561.43 1079.61C2561.9 1079.42 2562.25 1079.15 2562.49 1078.79C2562.72 1078.44 2562.84 1078.04 2562.84 1077.57Z" fill="#100D26"/>
<path d="M2252 1118.97H2687V1128.97H2252V1118.97Z" fill="#80823A"/>
</g>
<circle cx="2241.24" cy="1225.71" r="30" transform="rotate(105 2241.24 1225.71)" fill="#A89E9E"/>
<circle cx="2241.24" cy="1225.71" r="25" transform="rotate(105 2241.24 1225.71)" fill="#100D26"/>
<path d="M2247.71 1249.86C2252.49 1248.58 2256.78 1245.91 2260.04 1242.2C2263.3 1238.48 2265.38 1233.88 2266.03 1228.98C2266.67 1224.07 2265.85 1219.09 2263.66 1214.65C2261.47 1210.22 2258.02 1206.53 2253.74 1204.06C2249.46 1201.59 2244.54 1200.44 2239.6 1200.77C2234.67 1201.09 2229.94 1202.87 2226.02 1205.88C2222.1 1208.89 2219.15 1213 2217.57 1217.68C2215.98 1222.37 2215.81 1227.41 2217.09 1232.19C2218.81 1238.59 2223 1244.05 2228.74 1247.36C2234.48 1250.68 2241.31 1251.58 2247.71 1249.86V1249.86ZM2226.96 1225.36L2236.29 1222.86L2233.79 1213.52L2241.59 1211.44L2244.1 1220.77L2253.44 1218.27L2255.52 1226.07L2246.18 1228.58L2248.69 1237.92L2240.88 1240L2238.38 1230.66L2229.04 1233.17L2226.96 1225.36Z" fill="#96AAB9"/>
<circle cx="2706.5" cy="1225.71" r="30" fill="#A89E9E"/>
<circle cx="2706.5" cy="1225.71" r="25" fill="#100D26"/>
<path d="M2728.15 1213.21C2725.68 1208.93 2721.99 1205.48 2717.56 1203.29C2713.12 1201.1 2708.14 1200.28 2703.24 1200.93C2698.33 1201.57 2693.73 1203.66 2690.02 1206.92C2686.3 1210.18 2683.63 1214.47 2682.35 1219.24C2681.07 1224.02 2681.24 1229.07 2682.83 1233.75C2684.42 1238.43 2687.36 1242.54 2691.29 1245.55C2695.21 1248.56 2699.94 1250.34 2704.87 1250.66C2709.81 1250.98 2714.72 1249.83 2719.01 1247.36C2724.75 1244.04 2728.93 1238.58 2730.65 1232.18C2732.36 1225.78 2731.47 1218.95 2728.15 1213.21V1213.21ZM2709.86 1239.6L2705.02 1231.23L2696.65 1236.07L2692.62 1229.07L2700.99 1224.23L2696.15 1215.86L2703.15 1211.83L2707.99 1220.2L2716.36 1215.36L2720.39 1222.36L2712.02 1227.2L2716.86 1235.57L2709.86 1239.6Z" fill="#96AAB9"/>
</g>
<circle cx="100.742" cy="2093.22" r="30" transform="rotate(105 100.742 2093.22)" fill="#A89E9E"/>
<circle cx="100.741" cy="2093.22" r="25" transform="rotate(105 100.741 2093.22)" fill="#100D26"/>
<path d="M107.21 2117.37C111.986 2116.09 116.276 2113.43 119.537 2109.71C122.797 2105.99 124.882 2101.39 125.527 2096.49C126.173 2091.58 125.35 2086.6 123.162 2082.17C120.975 2077.73 117.521 2074.04 113.239 2071.57C108.956 2069.1 104.036 2067.95 99.1021 2068.28C94.1678 2068.6 89.4405 2070.38 85.518 2073.39C81.5955 2076.41 78.6541 2080.51 77.0658 2085.19C75.4775 2089.88 75.3136 2094.93 76.5949 2099.7C78.3124 2106.1 82.5024 2111.56 88.2434 2114.88C93.9845 2118.19 100.807 2119.09 107.21 2117.37V2117.37ZM86.4555 2092.88L95.7936 2090.37L93.2863 2081.03L101.091 2078.95L103.599 2088.29L112.937 2085.78L115.02 2093.58L105.682 2096.09L108.189 2105.43L100.384 2107.51L97.8767 2098.17L88.5386 2100.68L86.4555 2092.88Z" fill="#96AAB9"/>
<circle cx="2732" cy="2093.22" r="30" fill="#A89E9E"/>
<circle cx="2732" cy="2093.22" r="25" fill="#100D26"/>
<path d="M2753.65 2080.73C2751.18 2076.44 2747.49 2072.99 2743.06 2070.8C2738.62 2068.62 2733.64 2067.79 2728.74 2068.44C2723.83 2069.08 2719.23 2071.17 2715.52 2074.43C2711.8 2077.69 2709.13 2081.98 2707.85 2086.76C2706.57 2091.53 2706.74 2096.58 2708.33 2101.26C2709.92 2105.95 2712.86 2110.05 2716.79 2113.06C2720.71 2116.07 2725.44 2117.85 2730.37 2118.17C2735.31 2118.49 2740.22 2117.34 2744.51 2114.87C2750.25 2111.55 2754.43 2106.09 2756.15 2099.69C2757.86 2093.29 2756.97 2086.47 2753.65 2080.73V2080.73ZM2735.36 2107.11L2730.52 2098.74L2722.15 2103.58L2718.12 2096.58L2726.49 2091.74L2721.65 2083.37L2728.65 2079.34L2733.49 2087.71L2741.86 2082.87L2745.89 2089.87L2737.52 2094.71L2742.36 2103.08L2735.36 2107.11Z" fill="#96AAB9"/>
</g>
<defs>
<filter id="filter0_dddddd_3_173" x="210.143" y="461.792" width="1739.68" height="1376.01" filterUnits="userSpaceOnUse" color-interpolation-filters="sRGB">
<feFlood flood-opacity="0" result="BackgroundImageFix"/>
<feColorMatrix in="SourceAlpha" type="matrix" values="0 0 0 0 0 0 0 0 0 0 0 0 0 0 0 0 0 0 127 0" result="hardAlpha"/>
<feOffset/>
<feGaussianBlur stdDeviation="0.694868"/>
<feColorMatrix type="matrix" values="0 0 0 0 0.878431 0 0 0 0 1 0 0 0 0 0.878431 0 0 0 1 0"/>
<feBlend mode="normal" in2="BackgroundImageFix" result="effect1_dropShadow_3_173"/>
<feColorMatrix in="SourceAlpha" type="matrix" values="0 0 0 0 0 0 0 0 0 0 0 0 0 0 0 0 0 0 127 0" result="hardAlpha"/>
<feOffset/>
<feGaussianBlur stdDeviation="1.38974"/>
<feColorMatrix type="matrix" values="0 0 0 0 0.878431 0 0 0 0 1 0 0 0 0 0.878431 0 0 0 1 0"/>
<feBlend mode="normal" in2="effect1_dropShadow_3_173" result="effect2_dropShadow_3_173"/>
<feColorMatrix in="SourceAlpha" type="matrix" values="0 0 0 0 0 0 0 0 0 0 0 0 0 0 0 0 0 0 127 0" result="hardAlpha"/>
<feOffset/>
<feGaussianBlur stdDeviation="4.86408"/>
<feColorMatrix type="matrix" values="0 0 0 0 0.878431 0 0 0 0 1 0 0 0 0 0.878431 0 0 0 1 0"/>
<feBlend mode="normal" in2="effect2_dropShadow_3_173" result="effect3_dropShadow_3_173"/>
<feColorMatrix in="SourceAlpha" type="matrix" values="0 0 0 0 0 0 0 0 0 0 0 0 0 0 0 0 0 0 127 0" result="hardAlpha"/>
<feOffset/>
<feGaussianBlur stdDeviation="9.72816"/>
<feColorMatrix type="matrix" values="0 0 0 0 0.878431 0 0 0 0 1 0 0 0 0 0.878431 0 0 0 1 0"/>
<feBlend mode="normal" in2="effect3_dropShadow_3_173" result="effect4_dropShadow_3_173"/>
<feColorMatrix in="SourceAlpha" type="matrix" values="0 0 0 0 0 0 0 0 0 0 0 0 0 0 0 0 0 0 127 0" result="hardAlpha"/>
<feOffset/>
<feGaussianBlur stdDeviation="16.6768"/>
<feColorMatrix type="matrix" values="0 0 0 0 0.878431 0 0 0 0 1 0 0 0 0 0.878431 0 0 0 1 0"/>
<feBlend mode="normal" in2="effect4_dropShadow_3_173" result="effect5_dropShadow_3_173"/>
<feColorMatrix in="SourceAlpha" type="matrix" values="0 0 0 0 0 0 0 0 0 0 0 0 0 0 0 0 0 0 127 0" result="hardAlpha"/>
<feOffset/>
<feGaussianBlur stdDeviation="29.1845"/>
<feColorMatrix type="matrix" values="0 0 0 0 0.878431 0 0 0 0 1 0 0 0 0 0.878431 0 0 0 1 0"/>
<feBlend mode="normal" in2="effect5_dropShadow_3_173" result="effect6_dropShadow_3_173"/>
<feBlend mode="normal" in="SourceGraphic" in2="effect6_dropShadow_3_173" result="shape"/>
</filter>
<filter id="filter1_dddddd_3_173" x="2185.17" y="442.139" width="568.661" height="233.661" filterUnits="userSpaceOnUse" color-interpolation-filters="sRGB">
<feFlood flood-opacity="0" result="BackgroundImageFix"/>
<feColorMatrix in="SourceAlpha" type="matrix" values="0 0 0 0 0 0 0 0 0 0 0 0 0 0 0 0 0 0 127 0" result="hardAlpha"/>
<feOffset/>
<feGaussianBlur stdDeviation="0.7956"/>
<feColorMatrix type="matrix" values="0 0 0 0 0.623529 0 0 0 0 0.556863 0 0 0 0 0.556863 0 0 0 1 0"/>
<feBlend mode="normal" in2="BackgroundImageFix" result="effect1_dropShadow_3_173"/>
<feColorMatrix in="SourceAlpha" type="matrix" values="0 0 0 0 0 0 0 0 0 0 0 0 0 0 0 0 0 0 127 0" result="hardAlpha"/>
<feOffset/>
<feGaussianBlur stdDeviation="1.5912"/>
<feColorMatrix type="matrix" values="0 0 0 0 0.623529 0 0 0 0 0.556863 0 0 0 0 0.556863 0 0 0 1 0"/>
<feBlend mode="normal" in2="effect1_dropShadow_3_173" result="effect2_dropShadow_3_173"/>
<feColorMatrix in="SourceAlpha" type="matrix" values="0 0 0 0 0 0 0 0 0 0 0 0 0 0 0 0 0 0 127 0" result="hardAlpha"/>
<feOffset/>
<feGaussianBlur stdDeviation="5.5692"/>
<feColorMatrix type="matrix" values="0 0 0 0 0.623529 0 0 0 0 0.556863 0 0 0 0 0.556863 0 0 0 1 0"/>
<feBlend mode="normal" in2="effect2_dropShadow_3_173" result="effect3_dropShadow_3_173"/>
<feColorMatrix in="SourceAlpha" type="matrix" values="0 0 0 0 0 0 0 0 0 0 0 0 0 0 0 0 0 0 127 0" result="hardAlpha"/>
<feOffset/>
<feGaussianBlur stdDeviation="11.1384"/>
<feColorMatrix type="matrix" values="0 0 0 0 0.623529 0 0 0 0 0.556863 0 0 0 0 0.556863 0 0 0 1 0"/>
<feBlend mode="normal" in2="effect3_dropShadow_3_173" result="effect4_dropShadow_3_173"/>
<feColorMatrix in="SourceAlpha" type="matrix" values="0 0 0 0 0 0 0 0 0 0 0 0 0 0 0 0 0 0 127 0" result="hardAlpha"/>
<feOffset/>
<feGaussianBlur stdDeviation="19.0944"/>
<feColorMatrix type="matrix" values="0 0 0 0 0.623529 0 0 0 0 0.556863 0 0 0 0 0.556863 0 0 0 1 0"/>
<feBlend mode="normal" in2="effect4_dropShadow_3_173" result="effect5_dropShadow_3_173"/>
<feColorMatrix in="SourceAlpha" type="matrix" values="0 0 0 0 0 0 0 0 0 0 0 0 0 0 0 0 0 0 127 0" result="hardAlpha"/>
<feOffset/>
<feGaussianBlur stdDeviation="33.4152"/>
<feColorMatrix type="matrix" values="0 0 0 0 0.623529 0 0 0 0 0.556863 0 0 0 0 0.556863 0 0 0 1 0"/>
<feBlend mode="normal" in2="effect5_dropShadow_3_173" result="effect6_dropShadow_3_173"/>
<feBlend mode="normal" in="SourceGraphic" in2="effect6_dropShadow_3_173" result="shape"/>
</filter>
<filter id="filter2_dddddd_3_173" x="2185.17" y="572.139" width="569.661" height="233.661" filterUnits="userSpaceOnUse" color-interpolation-filters="sRGB">
<feFlood flood-opacity="0" result="BackgroundImageFix"/>
<feColorMatrix in="SourceAlpha" type="matrix" values="0 0 0 0 0 0 0 0 0 0 0 0 0 0 0 0 0 0 127 0" result="hardAlpha"/>
<feOffset/>
<feGaussianBlur stdDeviation="0.7956"/>
<feColorMatrix type="matrix" values="0 0 0 0 0.623529 0 0 0 0 0.556863 0 0 0 0 0.556863 0 0 0 1 0"/>
<feBlend mode="normal" in2="BackgroundImageFix" result="effect1_dropShadow_3_173"/>
<feColorMatrix in="SourceAlpha" type="matrix" values="0 0 0 0 0 0 0 0 0 0 0 0 0 0 0 0 0 0 127 0" result="hardAlpha"/>
<feOffset/>
<feGaussianBlur stdDeviation="1.5912"/>
<feColorMatrix type="matrix" values="0 0 0 0 0.623529 0 0 0 0 0.556863 0 0 0 0 0.556863 0 0 0 1 0"/>
<feBlend mode="normal" in2="effect1_dropShadow_3_173" result="effect2_dropShadow_3_173"/>
<feColorMatrix in="SourceAlpha" type="matrix" values="0 0 0 0 0 0 0 0 0 0 0 0 0 0 0 0 0 0 127 0" result="hardAlpha"/>
<feOffset/>
<feGaussianBlur stdDeviation="5.5692"/>
<feColorMatrix type="matrix" values="0 0 0 0 0.623529 0 0 0 0 0.556863 0 0 0 0 0.556863 0 0 0 1 0"/>
<feBlend mode="normal" in2="effect2_dropShadow_3_173" result="effect3_dropShadow_3_173"/>
<feColorMatrix in="SourceAlpha" type="matrix" values="0 0 0 0 0 0 0 0 0 0 0 0 0 0 0 0 0 0 127 0" result="hardAlpha"/>
<feOffset/>
<feGaussianBlur stdDeviation="11.1384"/>
<feColorMatrix type="matrix" values="0 0 0 0 0.623529 0 0 0 0 0.556863 0 0 0 0 0.556863 0 0 0 1 0"/>
<feBlend mode="normal" in2="effect3_dropShadow_3_173" result="effect4_dropShadow_3_173"/>
<feColorMatrix in="SourceAlpha" type="matrix" values="0 0 0 0 0 0 0 0 0 0 0 0 0 0 0 0 0 0 127 0" result="hardAlpha"/>
<feOffset/>
<feGaussianBlur stdDeviation="19.0944"/>
<feColorMatrix type="matrix" values="0 0 0 0 0.623529 0 0 0 0 0.556863 0 0 0 0 0.556863 0 0 0 1 0"/>
<feBlend mode="normal" in2="effect4_dropShadow_3_173" result="effect5_dropShadow_3_173"/>
<feColorMatrix in="SourceAlpha" type="matrix" values="0 0 0 0 0 0 0 0 0 0 0 0 0 0 0 0 0 0 127 0" result="hardAlpha"/>
<feOffset/>
<feGaussianBlur stdDeviation="33.4152"/>
<feColorMatrix type="matrix" values="0 0 0 0 0.623529 0 0 0 0 0.556863 0 0 0 0 0.556863 0 0 0 1 0"/>
<feBlend mode="normal" in2="effect5_dropShadow_3_173" result="effect6_dropShadow_3_173"/>
<feBlend mode="normal" in="SourceGraphic" in2="effect6_dropShadow_3_173" result="shape"/>
</filter>
<filter id="filter3_dddddd_3_173" x="2185.17" y="702.139" width="570.661" height="233.661" filterUnits="userSpaceOnUse" color-interpolation-filters="sRGB">
<feFlood flood-opacity="0" result="BackgroundImageFix"/>
<feColorMatrix in="SourceAlpha" type="matrix" values="0 0 0 0 0 0 0 0 0 0 0 0 0 0 0 0 0 0 127 0" result="hardAlpha"/>
<feOffset/>
<feGaussianBlur stdDeviation="0.7956"/>
<feColorMatrix type="matrix" values="0 0 0 0 0.623529 0 0 0 0 0.556863 0 0 0 0 0.556863 0 0 0 1 0"/>
<feBlend mode="normal" in2="BackgroundImageFix" result="effect1_dropShadow_3_173"/>
<feColorMatrix in="SourceAlpha" type="matrix" values="0 0 0 0 0 0 0 0 0 0 0 0 0 0 0 0 0 0 127 0" result="hardAlpha"/>
<feOffset/>
<feGaussianBlur stdDeviation="1.5912"/>
<feColorMatrix type="matrix" values="0 0 0 0 0.623529 0 0 0 0 0.556863 0 0 0 0 0.556863 0 0 0 1 0"/>
<feBlend mode="normal" in2="effect1_dropShadow_3_173" result="effect2_dropShadow_3_173"/>
<feColorMatrix in="SourceAlpha" type="matrix" values="0 0 0 0 0 0 0 0 0 0 0 0 0 0 0 0 0 0 127 0" result="hardAlpha"/>
<feOffset/>
<feGaussianBlur stdDeviation="5.5692"/>
<feColorMatrix type="matrix" values="0 0 0 0 0.623529 0 0 0 0 0.556863 0 0 0 0 0.556863 0 0 0 1 0"/>
<feBlend mode="normal" in2="effect2_dropShadow_3_173" result="effect3_dropShadow_3_173"/>
<feColorMatrix in="SourceAlpha" type="matrix" values="0 0 0 0 0 0 0 0 0 0 0 0 0 0 0 0 0 0 127 0" result="hardAlpha"/>
<feOffset/>
<feGaussianBlur stdDeviation="11.1384"/>
<feColorMatrix type="matrix" values="0 0 0 0 0.623529 0 0 0 0 0.556863 0 0 0 0 0.556863 0 0 0 1 0"/>
<feBlend mode="normal" in2="effect3_dropShadow_3_173" result="effect4_dropShadow_3_173"/>
<feColorMatrix in="SourceAlpha" type="matrix" values="0 0 0 0 0 0 0 0 0 0 0 0 0 0 0 0 0 0 127 0" result="hardAlpha"/>
<feOffset/>
<feGaussianBlur stdDeviation="19.0944"/>
<feColorMatrix type="matrix" values="0 0 0 0 0.623529 0 0 0 0 0.556863 0 0 0 0 0.556863 0 0 0 1 0"/>
<feBlend mode="normal" in2="effect4_dropShadow_3_173" result="effect5_dropShadow_3_173"/>
<feColorMatrix in="SourceAlpha" type="matrix" values="0 0 0 0 0 0 0 0 0 0 0 0 0 0 0 0 0 0 127 0" result="hardAlpha"/>
<feOffset/>
<feGaussianBlur stdDeviation="33.4152"/>
<feColorMatrix type="matrix" values="0 0 0 0 0.623529 0 0 0 0 0.556863 0 0 0 0 0.556863 0 0 0 1 0"/>
<feBlend mode="normal" in2="effect5_dropShadow_3_173" result="effect6_dropShadow_3_173"/>
<feBlend mode="normal" in="SourceGraphic" in2="effect6_dropShadow_3_173" result="shape"/>
</filter>
<filter id="filter4_dddddd_3_173" x="2185.17" y="832.139" width="569.661" height="233.661" filterUnits="userSpaceOnUse" color-interpolation-filters="sRGB">
<feFlood flood-opacity="0" result="BackgroundImageFix"/>
<feColorMatrix in="SourceAlpha" type="matrix" values="0 0 0 0 0 0 0 0 0 0 0 0 0 0 0 0 0 0 127 0" result="hardAlpha"/>
<feOffset/>
<feGaussianBlur stdDeviation="0.7956"/>
<feColorMatrix type="matrix" values="0 0 0 0 0.623529 0 0 0 0 0.556863 0 0 0 0 0.556863 0 0 0 1 0"/>
<feBlend mode="normal" in2="BackgroundImageFix" result="effect1_dropShadow_3_173"/>
<feColorMatrix in="SourceAlpha" type="matrix" values="0 0 0 0 0 0 0 0 0 0 0 0 0 0 0 0 0 0 127 0" result="hardAlpha"/>
<feOffset/>
<feGaussianBlur stdDeviation="1.5912"/>
<feColorMatrix type="matrix" values="0 0 0 0 0.623529 0 0 0 0 0.556863 0 0 0 0 0.556863 0 0 0 1 0"/>
<feBlend mode="normal" in2="effect1_dropShadow_3_173" result="effect2_dropShadow_3_173"/>
<feColorMatrix in="SourceAlpha" type="matrix" values="0 0 0 0 0 0 0 0 0 0 0 0 0 0 0 0 0 0 127 0" result="hardAlpha"/>
<feOffset/>
<feGaussianBlur stdDeviation="5.5692"/>
<feColorMatrix type="matrix" values="0 0 0 0 0.623529 0 0 0 0 0.556863 0 0 0 0 0.556863 0 0 0 1 0"/>
<feBlend mode="normal" in2="effect2_dropShadow_3_173" result="effect3_dropShadow_3_173"/>
<feColorMatrix in="SourceAlpha" type="matrix" values="0 0 0 0 0 0 0 0 0 0 0 0 0 0 0 0 0 0 127 0" result="hardAlpha"/>
<feOffset/>
<feGaussianBlur stdDeviation="11.1384"/>
<feColorMatrix type="matrix" values="0 0 0 0 0.623529 0 0 0 0 0.556863 0 0 0 0 0.556863 0 0 0 1 0"/>
<feBlend mode="normal" in2="effect3_dropShadow_3_173" result="effect4_dropShadow_3_173"/>
<feColorMatrix in="SourceAlpha" type="matrix" values="0 0 0 0 0 0 0 0 0 0 0 0 0 0 0 0 0 0 127 0" result="hardAlpha"/>
<feOffset/>
<feGaussianBlur stdDeviation="19.0944"/>
<feColorMatrix type="matrix" values="0 0 0 0 0.623529 0 0 0 0 0.556863 0 0 0 0 0.556863 0 0 0 1 0"/>
<feBlend mode="normal" in2="effect4_dropShadow_3_173" result="effect5_dropShadow_3_173"/>
<feColorMatrix in="SourceAlpha" type="matrix" values="0 0 0 0 0 0 0 0 0 0 0 0 0 0 0 0 0 0 127 0" result="hardAlpha"/>
<feOffset/>
<feGaussianBlur stdDeviation="33.4152"/>
<feColorMatrix type="matrix" values="0 0 0 0 0.623529 0 0 0 0 0.556863 0 0 0 0 0.556863 0 0 0 1 0"/>
<feBlend mode="normal" in2="effect5_dropShadow_3_173" result="effect6_dropShadow_3_173"/>
<feBlend mode="normal" in="SourceGraphic" in2="effect6_dropShadow_3_173" result="shape"/>
</filter>
<filter id="filter5_dddddd_3_173" x="2185.17" y="962.139" width="568.661" height="233.661" filterUnits="userSpaceOnUse" color-interpolation-filters="sRGB">
<feFlood flood-opacity="0" result="BackgroundImageFix"/>
<feColorMatrix in="SourceAlpha" type="matrix" values="0 0 0 0 0 0 0 0 0 0 0 0 0 0 0 0 0 0 127 0" result="hardAlpha"/>
<feOffset/>
<feGaussianBlur stdDeviation="0.7956"/>
<feColorMatrix type="matrix" values="0 0 0 0 0.623529 0 0 0 0 0.556863 0 0 0 0 0.556863 0 0 0 1 0"/>
<feBlend mode="normal" in2="BackgroundImageFix" result="effect1_dropShadow_3_173"/>
<feColorMatrix in="SourceAlpha" type="matrix" values="0 0 0 0 0 0 0 0 0 0 0 0 0 0 0 0 0 0 127 0" result="hardAlpha"/>
<feOffset/>
<feGaussianBlur stdDeviation="1.5912"/>
<feColorMatrix type="matrix" values="0 0 0 0 0.623529 0 0 0 0 0.556863 0 0 0 0 0.556863 0 0 0 1 0"/>
<feBlend mode="normal" in2="effect1_dropShadow_3_173" result="effect2_dropShadow_3_173"/>
<feColorMatrix in="SourceAlpha" type="matrix" values="0 0 0 0 0 0 0 0 0 0 0 0 0 0 0 0 0 0 127 0" result="hardAlpha"/>
<feOffset/>
<feGaussianBlur stdDeviation="5.5692"/>
<feColorMatrix type="matrix" values="0 0 0 0 0.623529 0 0 0 0 0.556863 0 0 0 0 0.556863 0 0 0 1 0"/>
<feBlend mode="normal" in2="effect2_dropShadow_3_173" result="effect3_dropShadow_3_173"/>
<feColorMatrix in="SourceAlpha" type="matrix" values="0 0 0 0 0 0 0 0 0 0 0 0 0 0 0 0 0 0 127 0" result="hardAlpha"/>
<feOffset/>
<feGaussianBlur stdDeviation="11.1384"/>
<feColorMatrix type="matrix" values="0 0 0 0 0.623529 0 0 0 0 0.556863 0 0 0 0 0.556863 0 0 0 1 0"/>
<feBlend mode="normal" in2="effect3_dropShadow_3_173" result="effect4_dropShadow_3_173"/>
<feColorMatrix in="SourceAlpha" type="matrix" values="0 0 0 0 0 0 0 0 0 0 0 0 0 0 0 0 0 0 127 0" result="hardAlpha"/>
<feOffset/>
<feGaussianBlur stdDeviation="19.0944"/>
<feColorMatrix type="matrix" values="0 0 0 0 0.623529 0 0 0 0 0.556863 0 0 0 0 0.556863 0 0 0 1 0"/>
<feBlend mode="normal" in2="effect4_dropShadow_3_173" result="effect5_dropShadow_3_173"/>
<feColorMatrix in="SourceAlpha" type="matrix" values="0 0 0 0 0 0 0 0 0 0 0 0 0 0 0 0 0 0 127 0" result="hardAlpha"/>
<feOffset/>
<feGaussianBlur stdDeviation="33.4152"/>
<feColorMatrix type="matrix" values="0 0 0 0 0.623529 0 0 0 0 0.556863 0 0 0 0 0.556863 0 0 0 1 0"/>
<feBlend mode="normal" in2="effect5_dropShadow_3_173" result="effect6_dropShadow_3_173"/>
<feBlend mode="normal" in="SourceGraphic" in2="effect6_dropShadow_3_173" result="shape"/>
</filter>
<linearGradient id="paint0_linear_3_173" x1="1939.03" y1="1919.57" x2="1939.03" y2="405.203" gradientUnits="userSpaceOnUse">
<stop stop-color="#938E8E"/>
<stop offset="0.531482" stop-color="#BBB2B2"/>
<stop offset="1" stop-color="#938E8E"/>
</linearGradient>
<linearGradient id="paint1_linear_3_173" x1="237.77" y1="1919.57" x2="226.546" y2="433.247" gradientUnits="userSpaceOnUse">
<stop stop-color="#989090"/>
<stop offset="0.53125" stop-color="#DCDCDC"/>
<stop offset="1" stop-color="#989090"/>
</linearGradient>
<linearGradient id="paint2_linear_3_173" x1="1911.01" y1="503.357" x2="184.517" y2="528.566" gradientUnits="userSpaceOnUse">
<stop stop-color="#4A4949"/>
<stop offset="0.479244" stop-color="#887F7F"/>
<stop offset="1" stop-color="#4A4949"/>
</linearGradient>
<clipPath id="clip0_3_173">
<rect width="2826" height="2194" fill="white"/>
</clipPath>
<clipPath id="clip1_3_173">
<rect x="64" y="329.485" width="2046" height="1663" fill="white"/>
</clipPath>
<clipPath id="clip2_3_173">
<rect width="583" height="990" fill="white" transform="translate(2179 329.485)"/>
</clipPath>
</defs>
</svg>
