<svg width="532" height="74" viewBox="0 0 532 74" fill="none" xmlns="http://www.w3.org/2000/svg">
<circle cx="36.7423" cy="36.7423" r="30" transform="rotate(105 36.7423 36.7423)" fill="#A89E9E"/>
<circle cx="36.741" cy="36.7429" r="25" transform="rotate(105 36.741 36.7429)" fill="#100D26"/>
<path d="M43.2095 60.8916C47.9861 59.6121 52.2759 56.9449 55.5364 53.2272C58.797 49.5095 60.8818 44.9084 61.5272 40.0057C62.1725 35.1031 61.3495 30.1192 59.1621 25.6843C56.9748 21.2495 53.5213 17.5629 49.2386 15.0909C44.9559 12.6189 40.0363 11.4725 35.102 11.7967C30.1677 12.1209 25.4404 13.9011 21.5179 16.9122C17.5955 19.9233 14.6541 24.03 13.0657 28.7129C11.4774 33.3958 11.3135 38.4446 12.5948 43.2206C14.3124 49.623 18.5023 55.0812 24.2434 58.3949C29.9844 61.7087 36.8065 62.6067 43.2095 60.8916ZM22.4555 36.395L31.7935 33.8878L29.2863 24.5497L37.0914 22.4665L39.5986 31.8046L48.9367 29.2974L51.0198 37.1025L41.6818 39.6097L44.189 48.9478L36.3839 51.0309L33.8767 41.6929L24.5386 44.2001L22.4555 36.395Z" fill="#96AAB9"/>
<circle cx="502" cy="36.7423" r="30" fill="#A89E9E"/>
<circle cx="502" cy="36.7423" r="25" fill="#100D26"/>
<path d="M523.652 24.2441C521.179 19.9615 517.493 16.5081 513.058 14.3209C508.623 12.1337 503.639 11.3108 498.736 11.9563C493.834 12.6018 489.233 14.6867 485.515 17.9474C481.798 21.208 479.13 25.4979 477.851 30.2745C476.572 35.0511 476.738 40.0998 478.328 44.782C479.918 49.4643 482.861 53.5698 486.785 56.5793C490.709 59.5888 495.437 61.367 500.371 61.6892C505.306 62.0114 510.225 60.863 514.506 58.3892C520.246 55.0731 524.434 49.6133 526.149 43.2102C527.864 36.8071 526.966 29.985 523.652 24.2441ZM505.361 50.6312L500.523 42.2602L492.152 47.0989L488.119 40.0989L496.49 35.2602L491.652 26.8893L498.652 22.857L503.49 31.228L511.861 26.3892L515.894 33.3892L507.523 38.228L512.361 46.5989L505.361 50.6312Z" fill="#96AAB9"/>
</svg>
