<svg xmlns="http://www.w3.org/2000/svg" width="532" height="74" fill="none" viewBox="0 0 532 74"><circle cx="36.742" cy="36.742" r="30" fill="#a89e9e" transform="rotate(105 36.742 36.742)"/><circle cx="36.741" cy="36.743" r="25" fill="#100d26" transform="rotate(105 36.741 36.743)"/><path fill="#96aab9" d="M43.21 60.892a25 25 0 1 0-12.937-48.297A25 25 0 0 0 43.21 60.892M22.456 36.395l9.338-2.507-2.508-9.338 7.806-2.083 2.507 9.338 9.338-2.508 2.083 7.806-9.338 2.507 2.507 9.338-7.805 2.083-2.507-9.338-9.338 2.507z"/><circle cx="502" cy="36.742" r="30" fill="#a89e9e"/><circle cx="502" cy="36.742" r="25" fill="#100d26"/><path fill="#96aab9" d="M523.652 24.244a25.01 25.01 0 0 0-24.916-12.288 25 25 0 0 0-20.885 18.318 25.005 25.005 0 0 0 8.934 26.305 25.002 25.002 0 0 0 39.364-13.369 25 25 0 0 0-2.497-18.966M505.361 50.63l-4.838-8.37-8.371 4.838-4.033-7 8.371-4.839-4.838-8.37 7-4.033 4.838 8.37 8.371-4.838 4.033 7-8.371 4.839 4.838 8.37z"/></svg>