<svg width="1920" height="1080" viewBox="0 0 1920 1080" fill="none" xmlns="http://www.w3.org/2000/svg">
<g clip-path="url(#clip0_5191_3018)">
<rect width="1920" height="1080" fill="#01061E"/>
<g opacity="0.5">
<line x1="1706.72" y1="590.269" x2="1689.42" y2="617.425" stroke="white"/>
<line x1="1495.25" y1="186.78" x2="1466.5" y2="201.269" stroke="white"/>
<circle cx="1878" cy="653" r="5" fill="#D9D9D9"/>
<circle cx="1403.5" cy="372.5" r="2.5" fill="#D9D9D9"/>
<circle cx="1488.5" cy="404.5" r="2.5" fill="#D9D9D9"/>
<circle cx="1527.5" cy="636.5" r="2.5" fill="#D9D9D9"/>
<circle cx="1747.5" cy="552.5" r="2.5" fill="#D9D9D9"/>
<circle cx="1836.5" cy="464.5" r="1.5" fill="#D9D9D9"/>
<circle cx="1578.08" cy="340.741" r="2.5" transform="rotate(60.8708 1578.08 340.741)" fill="#D9D9D9"/>
<circle cx="1698.28" cy="375.646" r="1.5" transform="rotate(60.8708 1698.28 375.646)" fill="#D9D9D9"/>
<circle cx="1743.04" cy="313.04" r="1.5" transform="rotate(60.8708 1743.04 313.04)" fill="#D9D9D9"/>
<circle cx="1659.04" cy="227.04" r="1.5" transform="rotate(60.8708 1659.04 227.04)" fill="#D9D9D9"/>
<circle cx="1566.5" cy="463.5" r="8" stroke="white"/>
<circle cx="1790.5" cy="899.5" r="8" stroke="white"/>
<circle cx="1633" cy="280" r="4.5" stroke="white"/>
<circle cx="1830.5" cy="295.5" r="2" stroke="white"/>
<circle cx="1752.5" cy="159.5" r="2" stroke="white"/>
<circle cx="1811.5" cy="164.5" r="2" stroke="white"/>
<circle cx="1757.5" cy="401.5" r="2" stroke="white"/>
<circle cx="1381.5" cy="930.5" r="2.5" fill="#D9D9D9"/>
<circle cx="1729.5" cy="990.5" r="1.5" fill="#D9D9D9"/>
<circle cx="1471.08" cy="866.741" r="2.5" transform="rotate(60.8708 1471.08 866.741)" fill="#D9D9D9"/>
<circle cx="1591.28" cy="901.646" r="1.5" transform="rotate(60.8708 1591.28 901.646)" fill="#D9D9D9"/>
<circle cx="1636.04" cy="839.04" r="1.5" transform="rotate(60.8708 1636.04 839.04)" fill="#D9D9D9"/>
<circle cx="1459.5" cy="989.5" r="8" stroke="white"/>
<circle cx="1526" cy="806" r="4.5" stroke="white"/>
<circle cx="1723.5" cy="821.5" r="2" stroke="white"/>
<circle cx="1650.5" cy="927.5" r="2" stroke="white"/>
<path d="M1198.72 653.409L1198.74 653.772L1202.87 654.878L1199.22 656.279L1198.88 656.409L1198.9 656.772L1199.1 660.676L1196.64 657.638L1196.42 657.356L1196.08 657.486L1192.43 658.886L1194.56 655.608L1194.75 655.303L1194.52 655.021L1192.06 651.982L1196.19 653.088L1196.39 652.784L1198.52 649.504L1198.72 653.409Z" stroke="white"/>
<path d="M1671.12 98.8917L1671.28 99.2212L1675.52 98.7047L1672.66 101.368L1672.39 101.616L1672.54 101.945L1674.19 105.49L1670.77 103.591L1670.46 103.415L1670.19 103.662L1667.33 106.326L1668.08 102.489L1668.15 102.132L1667.83 101.956L1664.41 100.057L1668.66 99.5404L1668.72 99.1837L1669.47 95.3462L1671.12 98.8917Z" stroke="white"/>
<path d="M1788.29 227.058L1788.44 227.387L1792.68 226.871L1789.82 229.534L1789.56 229.782L1789.71 230.111L1791.36 233.656L1787.94 231.757L1787.62 231.582L1787.36 231.828L1784.49 234.492L1785.24 230.655L1785.31 230.298L1785 230.122L1781.58 228.223L1785.82 227.706L1785.89 227.35L1786.64 223.512L1788.29 227.058Z" stroke="white"/>
<path d="M1871.79 118.747L1871.94 119.077L1879.79 118.121L1874.26 123.26L1874 123.507L1874.15 123.836L1877.33 130.675L1870.74 127.012L1870.42 126.836L1870.16 127.083L1864.63 132.221L1866.08 124.819L1866.15 124.462L1865.83 124.287L1859.24 120.623L1867.09 119.668L1867.16 119.311L1868.6 111.907L1871.79 118.747Z" stroke="white"/>
<path d="M1412.04 584.922L1412.2 585.251L1414.63 584.954L1413.1 586.381L1412.84 586.628L1412.99 586.958L1413.87 588.855L1412.04 587.839L1411.72 587.663L1411.46 587.91L1409.92 589.336L1410.33 587.282L1410.4 586.925L1410.08 586.749L1408.25 585.732L1410.69 585.435L1410.76 585.078L1411.16 583.022L1412.04 584.922Z" stroke="white"/>
<circle cx="1326.19" cy="683.166" r="5" fill="#D9D9D9"/>
<circle cx="851.689" cy="402.666" r="2.5" fill="#D9D9D9"/>
<circle cx="936.689" cy="434.666" r="2.5" fill="#D9D9D9"/>
<circle cx="975.689" cy="666.666" r="2.5" fill="#D9D9D9"/>
<circle cx="1195.69" cy="582.666" r="2.5" fill="#D9D9D9"/>
<circle cx="1284.69" cy="494.666" r="1.5" fill="#D9D9D9"/>
<circle cx="1026.27" cy="370.907" r="2.5" transform="rotate(60.8708 1026.27 370.907)" fill="#D9D9D9"/>
<circle cx="1146.47" cy="405.812" r="1.5" transform="rotate(60.8708 1146.47 405.812)" fill="#D9D9D9"/>
<circle cx="1191.23" cy="343.206" r="1.5" transform="rotate(60.8708 1191.23 343.206)" fill="#D9D9D9"/>
<circle cx="1107.23" cy="257.206" r="1.5" transform="rotate(60.8708 1107.23 257.206)" fill="#D9D9D9"/>
<circle cx="1014.69" cy="493.666" r="8" stroke="white"/>
<circle cx="1238.69" cy="929.666" r="8" stroke="white"/>
<circle cx="1278.69" cy="325.666" r="2" stroke="white"/>
<circle cx="1200.69" cy="189.666" r="2" stroke="white"/>
<circle cx="1259.69" cy="194.666" r="2" stroke="white"/>
<circle cx="1205.69" cy="431.666" r="2" stroke="white"/>
<circle cx="829.689" cy="960.666" r="2.5" fill="#D9D9D9"/>
<circle cx="1177.69" cy="1020.67" r="1.5" fill="#D9D9D9"/>
<circle cx="919.273" cy="896.907" r="2.5" transform="rotate(60.8708 919.273 896.907)" fill="#D9D9D9"/>
<circle cx="1039.47" cy="931.812" r="1.5" transform="rotate(60.8708 1039.47 931.812)" fill="#D9D9D9"/>
<circle cx="1084.23" cy="869.206" r="1.5" transform="rotate(60.8708 1084.23 869.206)" fill="#D9D9D9"/>
<circle cx="907.689" cy="1019.67" r="8" stroke="white"/>
<circle cx="974.189" cy="836.166" r="4.5" stroke="white"/>
<circle cx="1171.69" cy="851.666" r="2" stroke="white"/>
<circle cx="1098.69" cy="957.666" r="2" stroke="white"/>
<path d="M1119.31 129.058L1119.47 129.387L1123.71 128.871L1120.85 131.534L1120.58 131.782L1120.73 132.111L1122.38 135.656L1118.96 133.757L1118.65 133.582L1118.38 133.828L1115.52 136.492L1116.27 132.655L1116.34 132.298L1116.02 132.122L1112.6 130.223L1116.84 129.706L1116.91 129.35L1117.66 125.512L1119.31 129.058Z" stroke="white"/>
<path d="M860.232 615.088L860.385 615.417L862.823 615.12L861.291 616.547L861.025 616.794L861.178 617.124L862.061 619.022L860.231 618.005L859.913 617.829L859.647 618.076L858.114 619.502L858.516 617.448L858.586 617.091L858.268 616.915L856.439 615.898L858.877 615.601L858.946 615.244L859.348 613.188L860.232 615.088Z" stroke="white"/>
<line x1="763.717" y1="621.269" x2="746.423" y2="648.425" stroke="white"/>
<line x1="427.438" y1="125.947" x2="398.687" y2="140.435" stroke="white"/>
<circle cx="255.189" cy="484.166" r="5" fill="#D9D9D9"/>
<circle cx="335.689" cy="311.666" r="2.5" fill="#D9D9D9"/>
<circle cx="420.689" cy="343.666" r="2.5" fill="#D9D9D9"/>
<circle cx="459.689" cy="575.666" r="2.5" fill="#D9D9D9"/>
<circle cx="679.689" cy="491.666" r="2.5" fill="#D9D9D9"/>
<circle cx="768.689" cy="403.666" r="1.5" fill="#D9D9D9"/>
<circle cx="510.273" cy="279.907" r="2.5" transform="rotate(60.8708 510.273 279.907)" fill="#D9D9D9"/>
<circle cx="630.467" cy="314.812" r="1.5" transform="rotate(60.8708 630.467 314.812)" fill="#D9D9D9"/>
<circle cx="675.23" cy="252.206" r="1.5" transform="rotate(60.8708 675.23 252.206)" fill="#D9D9D9"/>
<circle cx="591.23" cy="166.206" r="1.5" transform="rotate(60.8708 591.23 166.206)" fill="#D9D9D9"/>
<circle cx="498.689" cy="402.666" r="8" stroke="white"/>
<circle cx="195.5" cy="362.5" r="8" stroke="white"/>
<circle cx="565.189" cy="219.166" r="4.5" stroke="white"/>
<circle cx="762.689" cy="234.666" r="2" stroke="white"/>
<circle cx="684.689" cy="98.666" r="2" stroke="white"/>
<circle cx="743.689" cy="103.666" r="2" stroke="white"/>
<circle cx="689.689" cy="340.666" r="2" stroke="white"/>
<circle cx="313.689" cy="869.666" r="2.5" fill="#D9D9D9"/>
<circle cx="661.689" cy="929.666" r="1.5" fill="#D9D9D9"/>
<circle cx="403.273" cy="805.907" r="2.5" transform="rotate(60.8708 403.273 805.907)" fill="#D9D9D9"/>
<circle cx="523.467" cy="840.812" r="1.5" transform="rotate(60.8708 523.467 840.812)" fill="#D9D9D9"/>
<circle cx="568.23" cy="778.206" r="1.5" transform="rotate(60.8708 568.23 778.206)" fill="#D9D9D9"/>
<circle cx="391.689" cy="928.666" r="8" stroke="white"/>
<circle cx="458.189" cy="745.166" r="4.5" stroke="white"/>
<circle cx="655.689" cy="760.666" r="2" stroke="white"/>
<circle cx="582.689" cy="866.666" r="2" stroke="white"/>
<path d="M130.913 592.575L130.932 592.938L135.06 594.044L131.41 595.445L131.07 595.575L131.089 595.938L131.294 599.842L128.833 596.804L128.605 596.522L128.265 596.652L124.615 598.052L126.745 594.774L126.942 594.469L126.714 594.187L124.253 591.148L128.381 592.254L128.579 591.95L130.708 588.67L130.913 592.575Z" stroke="white"/>
<path d="M603.313 38.0577L603.466 38.3873L607.708 37.8707L604.846 40.534L604.58 40.7819L604.733 41.1115L606.382 44.656L602.964 42.7573L602.647 42.5815L602.381 42.8284L599.517 45.4918L600.268 41.6552L600.338 41.2984L600.02 41.1217L596.603 39.223L600.845 38.7065L600.914 38.3497L601.664 34.5122L603.313 38.0577Z" stroke="white"/>
<path d="M720.479 166.224L720.632 166.553L724.874 166.037L722.012 168.7L721.746 168.948L721.899 169.277L723.548 172.822L720.13 170.923L719.813 170.748L719.547 170.994L716.684 173.658L717.434 169.821L717.504 169.464L717.186 169.288L713.769 167.389L718.011 166.872L718.08 166.516L718.83 162.678L720.479 166.224Z" stroke="white"/>
<path d="M803.975 57.9133L804.128 58.2429L811.975 57.2873L806.454 62.4259L806.188 62.6728L806.341 63.0024L809.521 69.841L802.929 66.1784L802.611 66.0016L802.345 66.2495L796.823 71.3873L798.27 63.9852L798.34 63.6285L798.022 63.4527L791.43 59.7892L799.277 58.8336L799.347 58.4768L800.793 51.0729L803.975 57.9133Z" stroke="white"/>
<path d="M344.232 524.088L344.385 524.417L346.823 524.12L345.291 525.547L345.025 525.794L345.178 526.124L346.061 528.022L344.231 527.005L343.913 526.829L343.647 527.076L342.114 528.502L342.516 526.448L342.586 526.091L342.268 525.915L340.439 524.898L342.877 524.601L342.946 524.244L343.348 522.188L344.232 524.088Z" stroke="white"/>
</g>
</g>
<defs>
<clipPath id="clip0_5191_3018">
<rect width="1920" height="1080" fill="white"/>
</clipPath>
</defs>
</svg>
