<svg width="1830" height="1540" viewBox="0 0 1830 1540" fill="none" xmlns="http://www.w3.org/2000/svg">
<g clip-path="url(#clip0_5176_5771)">
<rect width="1830" height="1540" fill="#01061E"/>
<g opacity="0.5">
<line x1="284.224" y1="744.447" x2="228.224" y2="772.447" stroke="white"/>
<line x1="1730.72" y1="1112.27" x2="1713.42" y2="1139.42" stroke="white"/>
<line x1="1519.25" y1="708.78" x2="1490.5" y2="723.269" stroke="white"/>
<circle cx="1427.5" cy="894.5" r="2.5" fill="#D9D9D9"/>
<circle cx="1512.5" cy="926.5" r="2.5" fill="#D9D9D9"/>
<circle cx="1551.5" cy="1158.5" r="2.5" fill="#D9D9D9"/>
<circle cx="1771.5" cy="1074.5" r="2.5" fill="#D9D9D9"/>
<circle cx="1602.08" cy="862.741" r="2.5" transform="rotate(60.8708 1602.08 862.741)" fill="#D9D9D9"/>
<circle cx="1722.28" cy="897.646" r="1.5" transform="rotate(60.8708 1722.28 897.646)" fill="#D9D9D9"/>
<circle cx="1767.04" cy="835.04" r="1.5" transform="rotate(60.8708 1767.04 835.04)" fill="#D9D9D9"/>
<circle cx="1683.04" cy="749.04" r="1.5" transform="rotate(60.8708 1683.04 749.04)" fill="#D9D9D9"/>
<circle cx="1590.5" cy="985.5" r="8" stroke="white"/>
<circle cx="1814.5" cy="1421.5" r="8" stroke="white"/>
<circle cx="1657" cy="802" r="4.5" stroke="white"/>
<circle cx="1776.5" cy="681.5" r="2" stroke="white"/>
<circle cx="1781.5" cy="923.5" r="2" stroke="white"/>
<circle cx="1405.5" cy="1452.5" r="2.5" fill="#D9D9D9"/>
<circle cx="1753.5" cy="1512.5" r="1.5" fill="#D9D9D9"/>
<circle cx="1495.08" cy="1388.74" r="2.5" transform="rotate(60.8708 1495.08 1388.74)" fill="#D9D9D9"/>
<circle cx="1615.28" cy="1423.65" r="1.5" transform="rotate(60.8708 1615.28 1423.65)" fill="#D9D9D9"/>
<circle cx="1660.04" cy="1361.04" r="1.5" transform="rotate(60.8708 1660.04 1361.04)" fill="#D9D9D9"/>
<circle cx="1483.5" cy="1511.5" r="8" stroke="white"/>
<circle cx="1550" cy="1328" r="4.5" stroke="white"/>
<circle cx="1747.5" cy="1343.5" r="2" stroke="white"/>
<circle cx="1674.5" cy="1449.5" r="2" stroke="white"/>
<path d="M1222.73 1175.41L1222.74 1175.77L1226.87 1176.88L1223.22 1178.28L1222.88 1178.41L1222.9 1178.77L1223.11 1182.68L1220.65 1179.64L1220.42 1179.36L1220.08 1179.49L1216.43 1180.89L1218.56 1177.61L1218.75 1177.3L1218.53 1177.02L1216.07 1173.98L1220.19 1175.09L1220.39 1174.78L1222.52 1171.5L1222.73 1175.41Z" stroke="white"/>
<path d="M1695.13 620.892L1695.28 621.221L1699.52 620.705L1696.66 623.368L1696.39 623.616L1696.55 623.945L1698.19 627.49L1694.78 625.591L1694.46 625.415L1694.19 625.662L1691.33 628.326L1692.08 624.489L1692.15 624.132L1691.83 623.956L1688.42 622.057L1692.66 621.54L1692.73 621.184L1693.48 617.346L1695.13 620.892Z" stroke="white"/>
<path d="M1812.29 749.058L1812.44 749.387L1816.68 748.871L1813.82 751.534L1813.56 751.782L1813.71 752.111L1815.36 755.656L1811.94 753.757L1811.62 753.582L1811.36 753.828L1808.49 756.492L1809.24 752.655L1809.31 752.298L1809 752.122L1805.58 750.223L1809.82 749.706L1809.89 749.35L1810.64 745.512L1812.29 749.058Z" stroke="white"/>
<path d="M1436.04 1106.92L1436.2 1107.25L1438.63 1106.95L1437.1 1108.38L1436.84 1108.63L1436.99 1108.96L1437.87 1110.86L1436.04 1109.84L1435.72 1109.66L1435.46 1109.91L1433.92 1111.34L1434.33 1109.28L1434.4 1108.93L1434.08 1108.75L1432.25 1107.73L1434.69 1107.44L1434.76 1107.08L1435.16 1105.02L1436.04 1106.92Z" stroke="white"/>
<line x1="1355.72" y1="1527.27" x2="1338.42" y2="1554.42" stroke="white"/>
<circle cx="1350.19" cy="1205.17" r="5" fill="#D9D9D9"/>
<circle cx="875.688" cy="924.666" r="2.5" fill="#D9D9D9"/>
<circle cx="960.688" cy="956.666" r="2.5" fill="#D9D9D9"/>
<circle cx="999.688" cy="1188.67" r="2.5" fill="#D9D9D9"/>
<circle cx="1219.69" cy="1104.67" r="2.5" fill="#D9D9D9"/>
<circle cx="1308.69" cy="1016.67" r="1.5" fill="#D9D9D9"/>
<circle cx="1050.28" cy="892.907" r="2.5" transform="rotate(60.8708 1050.28 892.907)" fill="#D9D9D9"/>
<circle cx="1170.47" cy="927.812" r="1.5" transform="rotate(60.8708 1170.47 927.812)" fill="#D9D9D9"/>
<circle cx="1215.23" cy="865.206" r="1.5" transform="rotate(60.8708 1215.23 865.206)" fill="#D9D9D9"/>
<circle cx="1131.23" cy="779.206" r="1.5" transform="rotate(60.8708 1131.23 779.206)" fill="#D9D9D9"/>
<circle cx="1038.69" cy="1015.67" r="8" stroke="white"/>
<circle cx="1262.69" cy="1451.67" r="8" stroke="white"/>
<circle cx="1302.69" cy="847.666" r="2" stroke="white"/>
<circle cx="1224.69" cy="711.666" r="2" stroke="white"/>
<circle cx="1283.69" cy="716.666" r="2" stroke="white"/>
<circle cx="1229.69" cy="953.666" r="2" stroke="white"/>
<circle cx="853.688" cy="1482.67" r="2.5" fill="#D9D9D9"/>
<circle cx="943.275" cy="1418.91" r="2.5" transform="rotate(60.8708 943.275 1418.91)" fill="#D9D9D9"/>
<circle cx="1063.47" cy="1453.81" r="1.5" transform="rotate(60.8708 1063.47 1453.81)" fill="#D9D9D9"/>
<circle cx="1108.23" cy="1391.21" r="1.5" transform="rotate(60.8708 1108.23 1391.21)" fill="#D9D9D9"/>
<circle cx="931.688" cy="1541.67" r="8" stroke="white"/>
<circle cx="998.188" cy="1358.17" r="4.5" stroke="white"/>
<circle cx="1195.69" cy="1373.67" r="2" stroke="white"/>
<circle cx="1122.69" cy="1479.67" r="2" stroke="white"/>
<path d="M1143.31 651.058L1143.47 651.387L1147.71 650.871L1144.85 653.534L1144.58 653.782L1144.73 654.111L1146.38 657.656L1142.96 655.757L1142.65 655.582L1142.38 655.828L1139.52 658.492L1140.27 654.655L1140.34 654.298L1140.02 654.122L1136.6 652.223L1140.84 651.706L1140.91 651.35L1141.66 647.512L1143.31 651.058Z" stroke="white"/>
<path d="M884.23 1137.09L884.383 1137.42L886.821 1137.12L885.289 1138.55L885.023 1138.79L885.176 1139.12L886.059 1141.02L884.229 1140L883.911 1139.83L883.645 1140.08L882.112 1141.5L882.514 1139.45L882.584 1139.09L882.266 1138.91L880.437 1137.9L882.875 1137.6L882.944 1137.24L883.346 1135.19L884.23 1137.09Z" stroke="white"/>
<line x1="389.182" y1="1237.3" x2="335.723" y2="1269.89" stroke="white"/>
<line x1="787.719" y1="1143.27" x2="770.425" y2="1170.42" stroke="white"/>
<line x1="451.436" y1="647.947" x2="422.685" y2="662.435" stroke="white"/>
<circle cx="279.188" cy="1006.17" r="5" fill="#D9D9D9"/>
<circle cx="359.688" cy="833.666" r="2.5" fill="#D9D9D9"/>
<circle cx="444.688" cy="865.666" r="2.5" fill="#D9D9D9"/>
<circle cx="483.688" cy="1097.67" r="2.5" fill="#D9D9D9"/>
<circle cx="703.688" cy="1013.67" r="2.5" fill="#D9D9D9"/>
<circle cx="792.688" cy="925.666" r="1.5" fill="#D9D9D9"/>
<circle cx="534.275" cy="801.907" r="2.5" transform="rotate(60.8708 534.275 801.907)" fill="#D9D9D9"/>
<circle cx="654.467" cy="836.812" r="1.5" transform="rotate(60.8708 654.467 836.812)" fill="#D9D9D9"/>
<circle cx="699.232" cy="774.206" r="1.5" transform="rotate(60.8708 699.232 774.206)" fill="#D9D9D9"/>
<circle cx="615.232" cy="688.206" r="1.5" transform="rotate(60.8708 615.232 688.206)" fill="#D9D9D9"/>
<circle cx="522.688" cy="924.666" r="8" stroke="white"/>
<circle cx="219.5" cy="884.5" r="8" stroke="white"/>
<circle cx="589.188" cy="741.166" r="4.5" stroke="white"/>
<circle cx="786.688" cy="756.666" r="2" stroke="white"/>
<circle cx="708.688" cy="620.666" r="2" stroke="white"/>
<circle cx="767.688" cy="625.666" r="2" stroke="white"/>
<circle cx="713.688" cy="862.666" r="2" stroke="white"/>
<circle cx="337.688" cy="1391.67" r="2.5" fill="#D9D9D9"/>
<circle cx="685.688" cy="1451.67" r="1.5" fill="#D9D9D9"/>
<circle cx="427.275" cy="1327.91" r="2.5" transform="rotate(60.8708 427.275 1327.91)" fill="#D9D9D9"/>
<circle cx="547.467" cy="1362.81" r="1.5" transform="rotate(60.8708 547.467 1362.81)" fill="#D9D9D9"/>
<circle cx="592.232" cy="1300.21" r="1.5" transform="rotate(60.8708 592.232 1300.21)" fill="#D9D9D9"/>
<circle cx="415.688" cy="1450.67" r="8" stroke="white"/>
<circle cx="482.188" cy="1267.17" r="4.5" stroke="white"/>
<circle cx="679.688" cy="1282.67" r="2" stroke="white"/>
<circle cx="606.688" cy="1388.67" r="2" stroke="white"/>
<path d="M154.913 1114.57L154.932 1114.94L159.06 1116.04L155.41 1117.44L155.07 1117.58L155.089 1117.94L155.294 1121.84L152.833 1118.8L152.605 1118.52L152.265 1118.65L148.615 1120.05L150.745 1116.77L150.942 1116.47L150.714 1116.19L148.253 1113.15L152.381 1114.25L152.579 1113.95L154.708 1110.67L154.913 1114.57Z" stroke="white"/>
<path d="M627.313 560.058L627.466 560.387L631.708 559.871L628.846 562.534L628.58 562.782L628.733 563.111L630.382 566.656L626.964 564.757L626.647 564.582L626.381 564.828L623.517 567.492L624.268 563.655L624.338 563.298L624.02 563.122L620.603 561.223L624.845 560.706L624.914 560.35L625.664 556.512L627.313 560.058Z" stroke="white"/>
<path d="M744.477 688.224L744.63 688.553L748.872 688.037L746.01 690.7L745.744 690.948L745.897 691.277L747.546 694.822L744.128 692.923L743.811 692.748L743.545 692.994L740.682 695.658L741.432 691.821L741.502 691.464L741.184 691.288L737.767 689.389L742.009 688.872L742.078 688.516L742.828 684.678L744.477 688.224Z" stroke="white"/>
<path d="M827.973 579.913L828.126 580.243L835.973 579.287L830.452 584.426L830.186 584.673L830.339 585.002L833.519 591.841L826.927 588.178L826.609 588.002L826.343 588.249L820.821 593.387L822.268 585.985L822.338 585.628L822.02 585.453L815.428 581.789L823.275 580.834L823.345 580.477L824.791 573.073L827.973 579.913Z" stroke="white"/>
<path d="M368.23 1046.09L368.383 1046.42L370.821 1046.12L369.289 1047.55L369.023 1047.79L369.176 1048.12L370.059 1050.02L368.229 1049L367.911 1048.83L367.645 1049.08L366.112 1050.5L366.514 1048.45L366.584 1048.09L366.266 1047.91L364.437 1046.9L366.875 1046.6L366.944 1046.24L367.346 1044.19L368.23 1046.09Z" stroke="white"/>
</g>
<path d="M1147.06 509.906C1072.55 433.418 958.889 459.236 915.343 491.695C906.237 498.497 893.864 489.873 901.256 476.215C1004.15 286.013 1228.74 357.787 1228.74 357.787C1228.74 357.787 1220.81 367.161 1187.33 420.885C1153.86 474.555 1147.06 509.906 1147.06 509.906Z" fill="#383E3E" stroke="#E67B7D" stroke-width="5" stroke-miterlimit="10" stroke-linecap="round" stroke-linejoin="round"/>
<path d="M1300.55 713.95C1362.42 800.936 1316.67 908.169 1276.93 945.181C1268.63 952.947 1274.84 966.659 1289.62 961.839C1495.2 894.724 1464.83 660.869 1464.83 660.869C1464.83 660.869 1454.17 667.029 1395.36 690.329C1336.54 713.629 1300.55 713.95 1300.55 713.95Z" fill="#383E3E" stroke="#E67B7D" stroke-width="5" stroke-miterlimit="10" stroke-linecap="round" stroke-linejoin="round"/>
<path d="M1718.95 209.937C1687.19 171.907 1510 199.974 1510 199.974C1510 199.974 1551.5 222.5 1592.5 261.5C1653.8 319.808 1687.24 412.458 1687.24 412.458C1687.29 412.458 1750.71 247.967 1718.95 209.937Z" fill="#383E3E" stroke="#E67B7D" stroke-width="5" stroke-miterlimit="10" stroke-linecap="round" stroke-linejoin="round"/>
<path d="M1168.53 768.532L1066.22 645.927L1115.34 580.955L1241.27 731.895L1168.53 768.532Z" fill="#383E3E" stroke="#E67B7D" stroke-width="5" stroke-miterlimit="10" stroke-linecap="round" stroke-linejoin="round"/>
<path d="M1167.93 769.056L1065.63 646.396L1046.88 657.27L1153.84 785.553L1167.93 769.056Z" fill="#383E3E" stroke="#E67B7D" stroke-width="5" stroke-miterlimit="10" stroke-linecap="round" stroke-linejoin="round"/>
<path d="M1685.63 413.463C1685.63 413.463 1680.27 359.794 1620.23 287.805C1560.18 215.817 1508.33 200.926 1508.33 200.926C1314.86 247.097 1213.31 305.963 1115.29 580.901L1241.27 731.948C1541.76 656.532 1609.25 600.023 1685.63 413.463Z" fill="#383E3E" stroke="#E67B7D" stroke-width="5" stroke-miterlimit="10" stroke-linecap="round" stroke-linejoin="round"/>
<path d="M1578.83 322.404C1531.05 265.091 1445.83 257.379 1388.57 305.21C1331.31 352.988 1323.6 438.153 1371.38 495.466C1419.16 552.778 1504.38 560.491 1561.63 512.659C1618.89 464.827 1626.61 379.662 1578.83 322.404ZM1392.59 477.682C1354.56 432.1 1360.72 364.397 1406.25 326.367C1451.78 288.391 1519.53 294.498 1557.51 340.08C1595.54 385.608 1589.38 453.365 1543.85 491.341C1498.32 529.371 1430.62 523.264 1392.59 477.682Z" fill="#383E3E" stroke="#E67B7D" stroke-width="5" stroke-miterlimit="10" stroke-linecap="round" stroke-linejoin="round"/>
<path d="M1543.92 491.396C1498.33 529.425 1430.63 523.265 1392.6 477.737C1354.57 432.155 1360.73 364.451 1406.26 326.422C1451.79 288.446 1519.54 294.552 1557.52 340.134C1595.6 385.663 1589.44 453.366 1543.92 491.396Z" fill="#383E3E" stroke="#E67B7D" stroke-width="5" stroke-miterlimit="10" stroke-linecap="round" stroke-linejoin="round"/>
<path d="M1278.58 336.15C1263.7 347.398 1232.94 378.931 1221.93 402.884C1220.29 406.989 1219.09 408.592 1217.67 411.022C1216.25 413.451 1214.64 416.658 1211.78 424.82" stroke="#E67B7D" stroke-width="5" stroke-linecap="round"/>
<path d="M1234.85 368.945C1228.81 379.403 1215.88 399.652 1208.15 409.806C1200.61 419.723 1195.18 433.686 1191.14 442.602C1189.92 444.643 1188.72 446.246 1187.9 448.074C1187.08 449.902 1186.68 451.906 1185.05 455.186" stroke="#E67B7D" stroke-width="5" stroke-linecap="round"/>
<path d="M1205.7 451.543C1204.9 452.345 1202.08 457.969 1197.63 467.267C1193.99 474.16 1190.73 480.257 1187.1 486.519C1185.07 489.574 1182.67 492.38 1180.19 496.485" stroke="#E67B7D" stroke-width="5" stroke-linecap="round"/>
<path d="M1548.23 385.953C1548.23 387.556 1545.03 400.408 1540.17 421.233C1538.52 430.033 1538.52 435.244 1537.91 436.726C1537.31 438.208 1536.11 435.803 1534.87 430.895" stroke="#E67B7D" stroke-width="5" stroke-linecap="round"/>
<path d="M1534.87 393.24C1534.87 394.844 1534.07 400.48 1532.86 411.375C1532.44 417.46 1532.44 424.676 1531.84 429.795C1531.24 434.915 1530.04 437.721 1528.8 441.826" stroke="#E67B7D" stroke-width="5" stroke-linecap="round"/>
<path d="M1523.94 379.879C1523.94 380.28 1523.94 380.681 1523.94 386.499C1523.94 392.317 1523.94 403.54 1523.54 410.525C1523.14 417.509 1522.34 419.914 1521.51 426.036" stroke="#E67B7D" stroke-width="5" stroke-linecap="round"/>
<path d="M1476.57 634.955C1467.33 640.98 1447.88 653.151 1439.95 657.614C1436.12 658.835 1432.45 660.451 1428.82 662.874C1426.79 664.095 1424.39 665.297 1419.48 666.536" stroke="#E67B7D" stroke-width="5" stroke-linecap="round"/>
<path d="M1435.27 644.674C1428.84 648.294 1411.85 656.383 1403.11 662.068C1394.94 667.38 1383.91 669.744 1371.75 674.621C1368.5 675.441 1364.89 675.842 1360.83 676.048C1356.76 676.255 1352.36 676.255 1347.81 676.255" stroke="#E67B7D" stroke-width="5" stroke-linecap="round"/>
<path d="M1334.46 695.689C1333.66 695.689 1322.02 695.689 1303.81 695.89C1296.83 696.09 1294.42 696.491 1291.98 696.698C1289.54 696.904 1287.13 696.904 1284.66 696.904" stroke="#E67B7D" stroke-width="5" stroke-linecap="round"/>
<path d="M1114.6 605.805C1111.79 611.429 1102.89 625.992 1096.61 636.122C1094.39 640.155 1091.18 646.569 1088.73 650.674C1086.27 654.78 1084.67 656.383 1083.02 658.035" stroke="#E67B7D" stroke-width="5" stroke-linecap="round"/>
<path d="M1118.24 630.098C1118.24 630.899 1115.04 635.722 1109.58 643.404C1107.32 646.678 1106.12 648.682 1104.7 650.316C1103.28 651.949 1101.68 653.152 1100.02 656.82" stroke="#E67B7D" stroke-width="5" stroke-linecap="round"/>
<path d="M1126.75 644.674C1125.14 645.476 1122.71 647.893 1118.48 652.933C1115.85 655.97 1112.24 659.979 1109.58 662.845C1106.92 665.712 1105.32 667.315 1103.67 670.182" stroke="#E67B7D" stroke-width="5" stroke-linecap="round"/>
<path d="M1129.18 661.68C1127.57 663.283 1124.74 666.915 1120.5 671.968C1118.27 674.215 1115.86 675.818 1113.42 677.045C1110.98 678.272 1108.58 679.074 1103.67 679.9" stroke="#E67B7D" stroke-width="5" stroke-linecap="round"/>
<path d="M1155.9 667.752C1155.09 667.752 1150.27 672.161 1142.59 679.643C1137.31 684.32 1130.44 690.381 1122.15 697.663C1118.67 700.535 1116.66 701.738 1114.6 702.977" stroke="#E67B7D" stroke-width="5" stroke-linecap="round"/>
<path d="M1154.68 682.328C1153.07 684.332 1148.24 690.806 1140.34 698.896C1138.5 700.937 1136.9 702.54 1134.07 704.769C1131.24 706.998 1127.23 709.804 1118.24 715.124" stroke="#E67B7D" stroke-width="5" stroke-linecap="round"/>
<path d="M1158.33 698.121C1155.92 698.923 1151.88 701.741 1146.83 705.986C1142.98 709.029 1139.72 711.871 1136.29 715.102C1134.46 716.73 1132.46 718.333 1134.04 716.341" stroke="#E67B7D" stroke-width="5" stroke-linecap="round"/>
<path d="M1185.05 699.334C1184.25 699.334 1181.83 700.536 1177.99 702.96C1174.56 705.383 1171.3 708.225 1165.27 712.859C1160.83 715.89 1153.62 720.299 1141.32 726.056" stroke="#E67B7D" stroke-width="5" stroke-linecap="round"/>
<path d="M1195.98 706.621C1188.32 714.286 1177.01 722.387 1165.25 728.26C1162.8 729.687 1161.2 730.89 1159.17 731.509C1157.14 732.129 1154.74 732.129 1149.83 736.988" stroke="#E67B7D" stroke-width="5" stroke-linecap="round"/>
<path d="M1214.2 717.553C1209.39 722.375 1194.82 732.906 1186.5 741.208C1183.06 744.251 1179.4 746.292 1175.37 748.308C1173.33 749.523 1171.33 751.126 1168.05 752.778" stroke="#E67B7D" stroke-width="5" stroke-linecap="round"/>
<path d="M1212.99 738.203C1212.18 738.203 1211.38 738.203 1210.37 739.005C1209.35 739.806 1208.15 741.41 1206.73 743.438C1205.31 745.467 1203.71 747.872 1202.05 750.35" stroke="#E67B7D" stroke-width="5" stroke-linecap="round"/>
<path d="M1387.9 439.398C1389.1 442.216 1394.75 450.282 1400.23 457.995C1406.22 466.431 1414.96 473.773 1423.5 478.863C1427.93 479.482 1432.01 480.685 1435.85 482.907C1438.08 483.928 1440.88 484.729 1448.63 485.555" stroke="#E67B7D" stroke-width="5" stroke-linecap="round"/>
<path d="M1429.2 487.984C1432.82 488.385 1442.51 490.802 1452.84 492.23C1455.09 492.831 1456.7 494.033 1462.53 494.653C1468.37 495.272 1478.39 495.272 1488.71 495.272" stroke="#E67B7D" stroke-width="5" stroke-linecap="round"/>
<path d="M1712.21 207.256C1711.41 208.859 1703.38 215.698 1690.84 226.01C1685.92 230.31 1683.91 232.715 1682.08 234.555C1680.24 236.395 1678.64 237.598 1678.2 236.408" stroke="#E67B7D" stroke-width="5" stroke-linecap="round"/>
<path d="M1708.56 201.186C1707.76 201.186 1703.34 201.586 1695.86 202.795C1689.59 204.805 1684.7 207.247 1679.66 209.069C1676.62 209.688 1672.61 209.688 1668.48 209.688" stroke="#E67B7D" stroke-width="5" stroke-linecap="round"/>
<path d="M1680.63 192.68C1679.02 192.68 1669.78 192.68 1656.03 193.081C1648.68 194.283 1641.01 195.911 1631.7 197.727C1628.01 198.741 1626.41 199.943 1624.75 201.182" stroke="#E67B7D" stroke-width="5" stroke-linecap="round"/>
<path d="M1720.72 218.188C1719.91 219.791 1717.9 224.224 1714.47 231.895C1712.64 235.958 1710.63 240.367 1709.2 243.841C1707.77 247.315 1706.97 249.72 1706.14 253.413" stroke="#E67B7D" stroke-width="5" stroke-linecap="round"/>
<path d="M1728 261.914C1727.2 261.914 1725.98 264.319 1723.77 268.965C1720.35 273.21 1717.08 276.879 1714.46 280.11C1713.04 281.737 1711.43 283.341 1708.57 287.422" stroke="#E67B7D" stroke-width="5" stroke-linecap="round"/>
<path d="M1047.92 667C1046.81 668.112 1031.38 680.569 1000.23 701.717C969.068 722.865 907.898 764.017 869.99 788.274C820.21 820.129 798.33 827.732 777.359 836.393C764.172 842.274 745.821 851.172 734.977 856.311C724.134 861.451 721.353 862.563 718.488 863.709" stroke="#F5F6AF" stroke-width="5" stroke-linecap="round"/>
<path d="M1144.83 784.508C1143.16 785.064 1141.49 785.62 1115.33 802.033C1089.17 818.446 1038.56 850.7 1009.71 869.818C959.298 903.225 934.824 925.419 922.994 934.738C908.092 946.477 885.988 952.415 872.432 955.819C868.497 959.155 864.554 963.671 860.071 967.876C857.813 969.856 855.589 971.524 853.297 973.243" stroke="#F5F6AF" stroke-width="5" stroke-linecap="round"/>
<path d="M853.297 973.244C872.255 977.693 907.154 990.062 918.419 1003.24C928.115 1014.58 941.935 1041.56 950.175 1063.62C957.611 1083.52 957.775 1104.01 946.038 1141.61C930.847 1163.63 909.614 1181.53 886.789 1191.45C882.534 1192.31 879.753 1192.31 876.889 1192.31" stroke="#F5F6AF" stroke-width="5" stroke-linecap="round"/>
<path d="M718.424 863.977C711.833 845.514 677.581 795.533 643.08 771.834C629.127 762.25 614.204 761.05 571.023 759.845C549.559 759.247 535.415 767.96 518.231 783.047C504.355 795.229 493.207 803.456 486.309 805.795C460.694 814.477 438.351 788.378 412.837 778.213C398.093 772.338 377.936 769.74 352.913 777.55C342.386 784.783 330.703 795.271 319.344 805.158C314.576 808.709 311.829 809.285 309 809.878" stroke="#F5F6AF" stroke-width="5" stroke-linecap="round"/>
<path d="M878.576 1189.78C887.473 1209.82 908.875 1257.09 913.391 1291.02C918.78 1331.5 905.032 1354.22 890.717 1370.33C869.628 1381.32 855.051 1386.91 838.765 1391.43C833.701 1392 827.584 1392 821.281 1392" stroke="#F5F6AF" stroke-width="5" stroke-linecap="round"/>
<path d="M1132.66 773.223C1122.86 778.235 1108.64 786.038 1101.63 789.596C1098.21 791.335 1086.01 798.366 1069.64 808.789C1061.8 813.776 1050.48 821.508 1034.8 832.845C1020.79 842.976 1011.01 845.853 1004.12 850.095C997.921 853.43 986.989 858.435 979.021 863.275C977.529 864.197 975.714 865.104 971.781 866.727" stroke="#F5F6AF" stroke-width="7" stroke-linecap="round"/>
<path d="M1120.29 752.598C1119.38 753.505 1104.16 764.183 1078.98 781.354C1056.34 796.796 1045.88 802.059 1038.26 805.984C1034.94 807.697 1032.3 810.57 1020.48 817.164C1010.08 822.963 990.508 833.286 979.662 839.343C963.126 848.578 956.227 855.686 945.464 864.978C939.479 868.556 935.581 870.158 933.408 871.643C932.37 872.448 931.463 873.355 927.777 874.29" stroke="#F5F6AF" stroke-width="7" stroke-linecap="round"/>
<path d="M1105.16 738.16C1092.21 746.796 1067.38 762.897 1062.55 767.363C1058.58 771.043 1052.94 772.977 1045.17 778.803C1033.02 787.915 1016.55 795.878 1002.59 802.509C983.787 811.447 973.927 821.736 961.507 829.468C954.575 833.782 948.447 838.746 943.266 844.133C936.638 851.025 929.402 856.168 918.656 863.376C914.744 866.247 906.989 871.727 896.569 878.258C892.503 880.479 848.885 895.433 865.904 886.667" stroke="#F5F6AF" stroke-width="7" stroke-linecap="round"/>
<path d="M1088.66 723.721C1087.3 724.174 1076.38 729.853 1057.17 739.805C1040.93 748.218 1030.02 753.037 1023.85 756.581C1017.42 760.271 1005.55 766.299 991.812 774.086C983.743 778.659 972.547 784.175 957.562 793.777C944.599 802.083 933.571 815.547 923.035 827.001C916.278 834.346 905.403 842.141 896.173 848.036C892.972 849.525 890.428 850.907 888.373 852.052C887.225 852.516 859.738 861.68 857.648 861.914" stroke="#F5F6AF" stroke-width="7" stroke-linecap="round"/>
<path d="M1071.47 706.533C1069.2 707.441 1052.6 715.395 1028.21 727.08C1019.28 731.357 1017.2 731.958 1008.66 736.846C984.924 750.433 968.128 760.841 964.814 762.667C960.896 764.825 952.369 771.8 941.259 779.473C928.506 788.28 910.162 796.806 905.219 799.456C900.708 801.875 891.86 812.33 884.94 823.149C881.973 828.625 879.203 833.025 876.917 835.201C875.765 836.016 824.786 856.524 823.617 856.758" stroke="#F5F6AF" stroke-width="7" stroke-linecap="round"/>
<path d="M1052.22 689.344C1050.86 689.344 1034.5 701.142 1009.87 719.471C996.331 729.551 985.157 737.87 977.068 742.617C974.102 744.552 970.65 746.175 966.425 746.862C964.016 747.096 961.066 747.096 958.027 748.471" stroke="#F5F6AF" stroke-width="7" stroke-linecap="round"/>
<path d="M1097.6 729.908C1088.74 734.446 1070.36 745.02 1061.31 749.599C1052.87 753.87 1045.84 757.162 1038.38 760.72C1032.27 763.634 1021.81 773.621 1015.8 778.826C1010.1 783.76 1000.47 789.256 994.948 793.03C988.53 796.592 978.265 801.604 967.729 807.558C963.772 809.882 962.638 810.789 959.406 813.099" stroke="#F5F6AF" stroke-width="4" stroke-linecap="round"/>
<path d="M1109.28 748.473C1104.28 750.968 1094.18 757.397 1085.6 763.571C1083.4 765.413 1081.59 767.228 1080.2 768.731C1078.81 770.233 1077.9 771.367 1074.91 773.224" stroke="#F5F6AF" stroke-width="4" stroke-linecap="round"/>
<path d="M1041.22 817.225C1034.85 819.04 1020.64 824.994 1015 827.758C1008.24 831.07 1002.73 836.915 998.725 840.587C993.122 844.939 986.233 849.071 983.603 850.446C982.334 850.914 981.2 850.914 980.031 850.914" stroke="#F5F6AF" stroke-width="4" stroke-linecap="round"/>
<path d="M986.214 870.852C981.67 872.44 972.024 877.026 958.198 884.001C946.516 889.894 933.316 895.589 927.108 898.686C921.463 901.502 916.334 905.902 912.549 909.91C911.514 910.948 910.38 911.856 909.115 913.004C907.85 914.152 906.488 915.513 904.398 916.916" stroke="#F5F6AF" stroke-width="4" stroke-linecap="round"/>
<path d="M916.776 880.479C911.991 884.349 903.74 889.87 898.237 895.006C890.997 901.762 885.864 902.933 880.701 905.45C877.394 905.917 873.936 906.371 870.168 907.058C867.989 907.292 865.266 907.292 862.461 907.292" stroke="#F5F6AF" stroke-width="4" stroke-linecap="round"/>
<path d="M867.529 997.014C866.622 1002.47 864.779 1013.49 866.831 1018.65C868.154 1021.98 869.585 1024.73 871.183 1026.45C875.061 1030.61 883.762 1030.02 889.833 1029.33C892.134 1029.08 892.5 1027.29 892.734 1025.46C893.253 1021.38 892.287 1017.88 890.689 1015.93C884.745 1014.2 878.083 1014.43 875.91 1015.11C874.872 1015.57 873.964 1016.25 874.405 1019.7" stroke="#F5F6AF" stroke-width="4" stroke-linecap="round"/>
<path d="M931.217 774.598C923.234 775.959 912 778.723 906.276 778.269C903.919 778.082 902.822 776.908 902.01 775.76C901.199 774.612 900.745 773.25 900.738 771.868C900.731 770.486 901.185 769.125 902.667 768.424C906.317 766.696 910.35 767.496 912.069 768.4C912.653 769.531 912.653 772.026 912.086 773.312C911.519 774.598 910.384 774.598 909.216 774.598" stroke="#F5F6AF" stroke-width="4" stroke-linecap="round"/>
<path d="M815.94 834.068C807.992 836.11 790.075 841.164 783.42 846.647C776.996 851.939 778.126 858.572 778.693 861.662C779.652 866.885 790.687 865.007 797.332 864.44C799.725 864.236 799.893 862.738 800.01 860.679C800.127 858.62 800.127 855.671 799.446 853.924C798.765 852.178 797.404 851.724 796.136 851.49C794.867 851.257 793.733 851.257 791.876 852.632" stroke="#F5F6AF" stroke-width="4" stroke-linecap="round"/>
<path d="M1021.97 736.098C1017.2 739.274 1007.09 747.538 1000.34 753.145C998.09 755.015 995.662 757.59 994.377 759.783C993.091 761.976 993.091 763.791 993.545 765.067C993.998 766.342 994.906 767.023 996.508 767.373C1003.72 768.952 1009.78 762.471 1015.53 758.913C1016.73 758.171 1017.59 757.425 1018.06 756.28C1018.53 755.135 1018.53 753.547 1017.85 752.502C1017.17 751.457 1015.81 751.003 1014.54 750.543C1013.27 750.082 1012.14 749.628 1010.97 749.161" stroke="#F5F6AF" stroke-width="4" stroke-linecap="round"/>
<path d="M771.704 874.976C760.772 878.152 723.357 884.601 691.352 876.619C679.121 867.207 676.385 860.785 673.181 856.901C671.792 854.831 670.884 852.562 667.199 850.225" stroke="#F5F6AF" stroke-width="4" stroke-linecap="round"/>
<path d="M778.585 895.606C766.292 898.328 744.264 906.579 726.862 912.773C718.529 915.74 705.79 914.857 691.826 914.176C675.951 907.101 666.765 898.37 663.335 895.399C661.719 893.791 660.358 891.976 661.705 890.105" stroke="#F5F6AF" stroke-width="4" stroke-linecap="round"/>
<path d="M805.569 893.885C795.559 901.613 746.105 934.545 720.927 947.12C708.341 953.406 699.325 956.078 688.105 960.671C677.31 965.731 669.074 967.092 662.212 969.155C658.981 969.856 656.258 969.856 653.453 967.106" stroke="#F5F6AF" stroke-width="4" stroke-linecap="round"/>
<path d="M834.444 887.697C821.243 899.523 742.914 961.991 726.413 975.742C692.987 1003.6 681.972 1019.28 671.356 1028.73C669.514 1030.35 667.698 1031.71 665.402 1032.41C663.106 1033.11 660.383 1033.11 660.328 1030.36" stroke="#F5F6AF" stroke-width="4" stroke-linecap="round"/>
<path d="M829.285 910.387C818.835 916.739 761.199 962.488 753.856 970.512C746.06 987.198 739.638 1009.21 738.476 1024.12C738.249 1027.58 737.796 1030.31 740.078 1030.36" stroke="#F5F6AF" stroke-width="4" stroke-linecap="round"/>
<path d="M840.632 941.324C832.464 944.954 803.43 972.539 788.084 983.986C782.268 988.627 780.453 990.896 779.518 999.325C778.583 1007.75 778.583 1022.27 782.708 1037.24" stroke="#F5F6AF" stroke-width="4" stroke-linecap="round"/>
<path d="M840.462 976.732C839.1 984.006 836.336 1002.34 840.668 1019.28C850.953 1044.06 862.903 1056.47 866.56 1059.22C868.403 1060.6 870.218 1061.96 876.213 1063.36" stroke="#F5F6AF" stroke-width="4" stroke-linecap="round"/>
<path d="M0 858.555C39.4399 840.574 87.3665 821.789 106.174 814.102C130.543 804.143 148.863 800.395 166.318 796.02C203.722 786.645 270.422 800.275 294.426 820.675C315.02 838.176 322.449 865.098 330.351 883.923C335.876 897.085 339.586 915.311 339.268 968.755C339.218 977.062 336.224 973.029 335.517 969.327C334.2 962.432 338.889 954.927 345.694 947.251C360.133 930.965 380.501 931.486 403.061 925.807C425.032 920.275 451.551 920.769 476.508 917.438C497.24 914.671 527.315 914.749 548.972 918.411C564.75 921.08 584.794 929.439 599.205 936.463C614.676 944.004 628.58 954.164 641.228 970.541C647.448 978.595 651.17 986.957 653.22 996.952C658.214 1021.31 638.296 1040.38 630.671 1052.86C618.636 1072.56 670.89 1068.56 695.837 1081.59C713.307 1090.72 722.219 1106.03 727.334 1115.37C732.305 1124.45 734.539 1156.64 733.535 1198.11C733.147 1214.11 714.142 1217.75 693.961 1229.45C689.277 1232.17 686.1 1235.13 687.063 1237.16C695.165 1254.2 727.59 1257.21 754.925 1287.55C775.153 1310.01 791.895 1329.44 802.452 1348.75C831.687 1402.24 819.302 1443.77 812.466 1461.24C805.877 1478.08 799.5 1492.02 782.445 1523.37C775.598 1539.42 770.781 1549.57 767.368 1555.24C765.984 1558.26 765.308 1561.57 760.511 1569" stroke="#4D88FF" stroke-opacity="0.5" stroke-width="10" stroke-linecap="round"/>
<path d="M412 954.333C413.76 954.333 441.507 947.733 485.473 937.733C518.456 930.231 539.413 933 554.407 937.2C565.632 940.344 571.947 954.733 581.08 969.606C590.627 986.706 599.547 1004.52 600.88 1012.49C601.333 1016.95 601.333 1022.23 601.333 1027.67" stroke="#4D88FF" stroke-opacity="0.5" stroke-width="5" stroke-linecap="round"/>
<path d="M430.668 966.334C448.335 964.134 501.468 959.667 530.161 965.854C548.32 969.769 550.641 990.281 557.975 1000.07C559.548 1002.75 560.428 1005.83 560.881 1009.39C561.335 1012.96 561.335 1016.92 561.335 1021" stroke="#4D88FF" stroke-opacity="0.5" stroke-width="5" stroke-linecap="round"/>
<path d="M434.668 994.334C453.175 995.654 489.735 999.214 502.841 1005.19C507.521 1009.4 511.535 1013.43 516.188 1016.97C518.641 1018.76 521.281 1020.52 526.668 1027.67" stroke="#4D88FF" stroke-opacity="0.5" stroke-width="5" stroke-linecap="round"/>
<path d="M318.667 925C307.2 909.56 281.413 878.414 270.48 869.247C261.241 861.501 239.707 854.387 220.293 850.56C186.931 843.984 149.893 861.4 124.993 873.394C90.4079 890.052 64.5333 903.187 38.98 917.394C33.8 920.107 31.6 920.547 28.7067 921.654C25.8134 922.76 22.2934 924.52 16 929" stroke="#4D88FF" stroke-opacity="0.5" stroke-width="5" stroke-linecap="round"/>
<path d="M281.333 929C252.2 920.626 207.6 906.333 192.087 904.12C158.595 899.341 143.173 912.066 133.807 916.32C132.013 917.426 130.693 919.186 129.133 920.753C127.573 922.32 125.813 923.64 120 925" stroke="#4D88FF" stroke-opacity="0.5" stroke-width="5" stroke-linecap="round"/>
<path d="M316.001 995.666C304.974 986.852 283.601 970.786 269.168 963.472C259.231 958.438 229.574 956.999 207.828 960.312C191.673 962.774 183.601 980.066 179.568 988.746C177.726 992.71 173.361 996.092 170.461 998.099C172.401 997.026 176.428 992.586 179.974 987.259C181.761 985.012 183.521 983.692 185.334 982.332" stroke="#4D88FF" stroke-opacity="0.5" stroke-width="5" stroke-linecap="round"/>
<path d="M318.668 995.667C318.668 997.427 319.988 1000.09 323.308 1002.98C327.004 1006.19 335.068 1001.48 347.728 997.233C358.847 993.504 367.948 990.787 389.695 990.993C394.641 991.653 397.281 992.973 399.961 993.873C402.641 994.773 405.281 995.213 410.668 998.333" stroke="#4D88FF" stroke-opacity="0.5" stroke-width="5" stroke-linecap="round"/>
<path d="M596 1075.67C612.76 1076.99 643.947 1082.31 655.953 1090.08C674.67 1102.2 693.307 1123.19 700.86 1130.31C706.653 1138.31 711.973 1148.07 713.12 1158.96C712.027 1161.43 709.387 1163.19 706.667 1167.67" stroke="#4D88FF" stroke-opacity="0.5" stroke-width="5" stroke-linecap="round"/>
<path d="M676.001 1165C668.081 1187.95 649.361 1227.16 641.375 1234.53C626.695 1240.11 619.135 1242.32 614.481 1244.32C612.028 1245 609.388 1245 606.668 1245" stroke="#4D88FF" stroke-opacity="0.5" stroke-width="5" stroke-linecap="round"/>
<path d="M678.668 1287.67C695.841 1303.96 731.521 1339.61 747.495 1356.71C752.855 1362.73 755.988 1367.64 758.868 1372.52C760.428 1374.76 762.188 1376.52 764.001 1379.67" stroke="#4D88FF" stroke-opacity="0.5" stroke-width="5" stroke-linecap="round"/>
<path d="M783.999 1378.33C783.999 1380.97 781.359 1404.77 777.359 1441.85C774.001 1472.98 767.572 1485.4 758.925 1493.86C748.479 1499.21 739.132 1501.88 733.599 1503.21C730.265 1503.67 725.865 1503.67 721.332 1503.67" stroke="#4D88FF" stroke-opacity="0.5" stroke-width="5" stroke-linecap="round"/>
<path d="M738.668 1403.67C728.521 1391.75 707.175 1372.15 690.735 1357.51C681.868 1349.96 673.375 1344.13 661.655 1340.8C653.895 1339.67 642.455 1339.67 630.668 1339.67" stroke="#4D88FF" stroke-opacity="0.5" stroke-width="5" stroke-linecap="round"/>
<path d="M572 1117C579.947 1115.68 607.387 1113 631.927 1121.18C645.307 1135.61 650.667 1164.81 652.88 1184.29C653.333 1187.2 653.333 1189.4 653.333 1191.67" stroke="#4D88FF" stroke-opacity="0.5" stroke-width="5" stroke-linecap="round"/>
</g>
<defs>
<clipPath id="clip0_5176_5771">
<rect width="1830" height="1540" fill="white"/>
</clipPath>
</defs>
</svg>
