<svg width="488" height="500" viewBox="0 0 488 500" fill="none" xmlns="http://www.w3.org/2000/svg">
<path d="M475.916 198.837C464.615 148.66 440.38 102.677 403.796 66.3639C371.833 34.634 331.054 11.8364 286.624 3.52531C240.253 -5.17419 193.415 2.67109 150.734 22.1673C104.634 43.2558 63.9709 77.5873 36.4743 120.269C8.2397 164.155 -4.92591 216.197 1.67639 268.161C8.47288 321.562 34.144 373.138 68.5148 414.111C100.827 452.637 144.519 483.513 193.998 495.009C219.281 500.873 245.263 501.533 270.817 497.183C296.256 492.833 320.451 482.736 343.326 471.007C385.464 449.452 423.797 419.082 450.711 379.818C479.295 338.184 491.218 287.152 486.558 237.053C485.897 230.023 484.964 223.032 483.799 216.08C482.595 208.857 477.353 204.157 472.498 199.031C471.721 198.177 470.363 198.682 470.052 199.691C469.12 202.604 468.11 205.478 467.1 208.352C465.586 212.508 465.508 215.809 466.168 220.159C467.139 226.489 467.799 232.858 468.227 239.227C469.081 252.043 468.925 264.899 467.605 277.676C465.313 299.735 458.944 321.756 449.351 341.33C429.933 380.944 398.708 412.674 361.968 436.364C322.937 461.531 278.584 480.872 231.397 479.163C185.57 477.493 142.033 456.21 108.051 425.218C71.5827 391.973 44.7469 348.321 29.9888 301.328C15.153 254.141 18.2212 204.119 36.8241 158.369C54.495 114.793 87.4288 76.1505 127.043 50.9452C164.986 26.7886 210.076 11.6033 255.36 13.118C297.304 14.5161 338.355 29.6625 372.454 53.8969C410.747 81.1605 439.215 120.852 455.876 164.583C460.42 176.544 464.149 188.817 467.1 201.284C468.459 206.993 477.237 204.546 475.916 198.837Z" fill="#F2EC2F" fill-opacity="0.7"/>
<path d="M472.449 220.958C469.42 224.726 468.138 229.968 466.429 234.474C464.371 239.95 462.197 245.309 460.255 250.824C456.527 261.427 452.255 271.796 447.788 282.127C443.4 292.224 438.389 301.934 433.34 311.721C428.02 322.012 421.806 332.266 417.495 343.023C416.796 344.771 419.321 345.936 420.486 344.771C428.758 336.809 435.593 326.284 441.496 316.497C447.438 306.672 452.565 296.263 457.342 285.855C461.925 275.835 465.769 265.466 469.265 255.019C471.129 249.504 472.527 243.95 473.77 238.241C474.896 233.075 476.8 227.172 475.945 221.89C475.751 220.376 473.382 219.754 472.449 220.958Z" fill="#F2EC2F" fill-opacity="0.7"/>
<path d="M461.244 227.178C458.137 230.169 456.894 235.023 455.107 238.868C452.971 243.49 450.797 248.034 448.583 252.617C444.272 261.588 439.65 270.365 434.834 279.064C425.125 296.541 413.94 313.63 406.133 332.077C405.434 333.708 407.416 335.767 408.814 334.175C421.98 318.95 432.543 301.007 442.33 283.492C447.184 274.831 451.845 266.054 456.156 257.083C458.292 252.694 460.234 248.267 462.059 243.762C463.846 239.373 466.914 234.247 466.603 229.431C466.486 226.712 463.302 225.198 461.244 227.178Z" fill="#F2EC2F" fill-opacity="0.7"/>
<path d="M464.881 200.405C461.152 200.832 459.91 203.589 458.201 206.618C456.414 209.803 454.666 213.027 452.958 216.25C449.229 223.241 445.579 230.27 442.006 237.339C434.938 251.32 427.481 265.107 419.636 278.661C418.199 281.108 421.617 283.865 423.597 281.729C434.433 270.156 442.122 256.446 449.424 242.465C452.997 235.63 456.298 228.639 459.754 221.726C461.502 218.27 463.25 214.774 465.075 211.357C466.745 208.172 468.92 205.376 467.289 201.764C466.94 200.987 465.774 200.327 464.881 200.405Z" fill="#F2EC2F" fill-opacity="0.7"/>
<path d="M473.772 249.231C471.714 271.873 460.14 293.117 448.178 311.953C442.159 321.429 435.44 330.4 428.682 339.41C422.585 347.566 414.546 356.343 411.478 366.208C410.973 367.839 412.992 369.509 414.468 368.499C423.323 362.596 430.041 352.304 436.294 343.838C443.44 334.206 450.159 324.186 456.257 313.856C467.908 294.088 475.791 272.416 474.121 249.192C474.082 248.998 473.772 248.998 473.772 249.231Z" fill="#F2EC2F" fill-opacity="0.7"/>
<path d="M468.22 296.306C459.132 309.355 451.869 323.608 443.13 336.929C438.858 343.454 433.927 349.396 429.15 355.571C424.295 361.785 418.275 367.688 414.625 374.718C413.615 376.66 415.324 379.495 417.654 378.679C425.499 375.922 432.023 369.669 437.771 363.844C443.675 357.824 448.646 350.639 453.228 343.609C462.2 329.822 469.462 313.511 470.511 296.966C470.588 295.607 468.841 295.374 468.22 296.306Z" fill="#F2EC2F" fill-opacity="0.7"/>
<path d="M409.473 373.311C407.453 374.593 405.356 375.719 403.336 377.039C401.161 378.476 399.181 380.185 397.084 381.739C392.579 385.04 388.268 388.496 383.569 391.526C374.209 397.584 365.082 404.109 355.916 410.478C353.975 411.837 355.102 415.333 357.626 414.517C368.656 410.905 380.151 407.138 389.977 400.808C394.831 397.701 400.114 394.361 404.114 390.205C408.269 385.855 411.143 381.622 412.619 375.758C413.046 373.971 411.104 372.301 409.473 373.311Z" fill="#F2EC2F" fill-opacity="0.7"/>
<path d="M337.593 429.31C341.166 434.203 350.797 430.63 355.302 428.999C362.41 426.436 369.284 423.096 376.003 419.678C382.838 416.222 389.44 412.377 396.043 408.532C402.412 404.843 409.363 401.464 414.218 395.832C415.15 394.745 414.219 393.308 412.859 393.502C406.063 394.551 400.237 398.59 394.489 402.163C388.159 406.085 381.79 409.891 375.226 413.387C368.741 416.804 362.215 419.639 355.108 421.542C351.768 422.436 348.39 423.329 344.972 423.989C342.331 424.533 338.796 425.154 337.515 427.873C337.359 428.339 337.282 428.883 337.593 429.31Z" fill="#F2EC2F" fill-opacity="0.7"/>
<path d="M308.771 448.717C316.228 449.261 324.268 446.62 331.336 444.445C339.375 441.959 347.221 439.552 354.794 435.862C362.289 432.211 369.629 428.25 376.814 424.055C380.309 421.997 383.921 420.055 387.378 417.881C390.213 416.055 393.398 414.424 393.747 410.812C393.825 410.036 393.242 409.103 392.582 408.754C389.514 407.162 386.679 408.87 383.766 410.269C380.31 411.9 377.008 413.881 373.668 415.745C366.406 419.784 359.182 423.978 351.881 427.939C344.89 431.745 338.054 436.212 330.792 439.435C323.49 442.659 315.723 444.329 308.46 447.474C307.8 447.785 308.228 448.679 308.771 448.717Z" fill="#F2EC2F" fill-opacity="0.7"/>
<path d="M275.049 462.474C279.982 466.28 286.506 465.464 292.409 465.154C299.05 464.843 305.614 463.872 312.139 462.513C318.547 461.192 324.877 459.523 331.13 457.581C335.596 456.221 344.529 454.512 345.694 449.036C345.849 448.337 345.577 447.794 345.034 447.367C340.762 444.104 332.606 448.26 328.256 449.58C322.43 451.367 316.528 452.92 310.547 454.163C304.566 455.406 298.507 456.416 292.409 457.115C286.545 457.814 280.176 457.115 275.049 460.416C274.234 460.998 274.35 461.931 275.049 462.474Z" fill="#F2EC2F" fill-opacity="0.7"/>
<path d="M257.028 471.097C258.31 473.971 262.465 475.252 265.3 475.952C269.3 476.922 273.379 477.35 277.495 477.544C281.457 477.699 285.457 477.544 289.418 477.078C293.186 476.612 298.312 476.029 300.953 472.961C302.235 471.485 301.924 468.767 299.71 468.301C296.176 467.563 292.214 468.922 288.719 469.427C285.029 470.01 281.224 470.126 277.495 470.087C273.845 470.009 270.155 469.699 266.543 469.388C263.669 469.116 259.825 468.495 257.3 470.165C256.912 470.32 256.834 470.709 257.028 471.097Z" fill="#F2EC2F" fill-opacity="0.7"/>
<path d="M250 478.564C250.427 480.312 252.137 481.477 253.496 482.487C254.389 483.147 255.36 483.885 256.448 484.274C257.419 484.623 258.467 484.856 259.477 485.05C260.564 485.283 261.651 485.439 262.739 485.594C264.137 485.788 265.341 485.71 266.739 485.4C268.875 484.934 271.127 484.817 273.341 484.351C276.099 483.768 275.516 479.186 272.681 479.38C270.778 479.497 268.603 479.73 266.778 479.264C264.72 478.759 262.661 478.758 260.564 478.525C260.136 478.487 260.059 478.448 260.331 478.487C260.098 478.448 259.826 478.409 259.593 478.37C259.127 478.293 258.622 478.176 258.156 478.098C257.185 477.943 256.214 478.021 255.243 477.982C253.651 477.904 251.942 477.438 250.428 477.865C250.078 477.943 249.922 478.292 250 478.564Z" fill="#F2EC2F" fill-opacity="0.7"/>
<path d="M88.8192 71.6817C70.0609 86.3233 58.0602 110.091 49.9433 132.073C41.4379 155.142 37.4769 179.26 36.6613 203.805C36.5836 206.446 40.5452 206.407 40.7394 203.805C42.5259 180.231 47.1476 156.579 55.381 134.364C59.4201 123.529 64.3137 112.926 70.0615 102.868C76.0813 92.3427 83.227 82.5559 89.1691 71.9534C89.3633 71.7204 89.0522 71.4876 88.8192 71.6817Z" fill="#F2EC2F" fill-opacity="0.7"/>
<path d="M107.78 58.8615C99.2356 62.0461 94.3032 69.1535 90.1864 76.9986C85.2541 86.3583 82.1085 96.3782 79.6617 106.592C74.9236 126.438 73.1373 146.983 72.0498 167.334C71.9333 169.431 75.3119 169.935 75.7392 167.838C79.4675 148.963 81.9531 129.894 86.4193 111.175C88.7496 101.388 91.623 91.5624 95.5844 82.3192C98.9632 74.3576 103.701 66.7843 108.245 59.4441C108.401 59.1723 108.09 58.745 107.78 58.8615Z" fill="#F2EC2F" fill-opacity="0.7"/>
<path d="M136.782 34.6707C129.636 34.9814 125.907 41.5837 122.761 47.2539C118.8 54.5164 115.888 62.4001 113.441 70.284C108.742 85.2363 106.334 100.849 104.004 116.306C103.499 119.685 108.042 121.083 109.207 117.743C114.062 103.84 117.208 89.3142 121.286 75.1775C123.461 67.682 125.869 60.1868 129.365 53.1961C132.2 47.5647 136.549 43.0596 138.646 37.1175C139.073 35.9912 137.986 34.6319 136.782 34.6707Z" fill="#F2EC2F" fill-opacity="0.7"/>
<path d="M171.232 18.8263C165.989 19.4477 162.688 23.7199 159.698 27.6424C156.435 31.9533 153.678 36.6529 151.309 41.5464C146.066 52.4208 142.842 64.3049 140.162 76.0337C135.075 98.1708 133.754 120.929 131.463 143.455C131.269 145.241 134.026 145.474 134.492 143.882C140.59 123.337 143.93 101.938 149.056 81.16C151.814 69.9749 154.959 58.9454 159.581 48.3817C161.639 43.6825 163.892 39.0608 166.727 34.7499C169.174 31.0215 173.368 27.5262 174.456 23.0988C174.961 21.1569 173.523 18.5545 171.232 18.8263Z" fill="#F2EC2F" fill-opacity="0.7"/>
<path d="M197.404 11.4478C190.801 9.15638 184.627 22.5162 182.568 26.866C178.219 36.0315 175.384 45.8186 172.859 55.6055C168.238 73.7036 165.752 92.2676 163.888 110.832C163.655 113.007 166.722 113.007 167.421 111.298C173.946 95.1027 176.898 77.2376 181.092 60.3435C183.422 50.9449 186.102 41.5462 189.675 32.536C191.073 29.0019 192.705 25.5065 194.802 22.3219C196.316 20.0305 199.734 17.2345 199.656 14.3605C199.579 12.9624 198.724 11.875 197.404 11.4478Z" fill="#F2EC2F" fill-opacity="0.7"/>
<path d="M221.374 7.02502C215.664 14.6759 212.207 24.0746 210.032 33.3178C207.858 42.5998 206.305 52.2701 205.878 61.8241C205.761 64.1931 209.606 65.4357 210.577 63.1055C217.684 46.2891 217.606 26.4437 228.131 11.0253C229.335 9.27768 228.441 6.71442 226.733 5.66581C224.752 4.42303 222.616 5.35502 221.374 7.02502Z" fill="#F2EC2F" fill-opacity="0.7"/>
<path d="M243.195 8.54295C246.186 21.9806 248.788 35.2236 250.225 48.9331C251.623 62.2542 251.351 75.7309 253.254 88.9744C253.682 92.0037 258.42 91.693 259.08 88.9744C262.342 75.1872 261.332 60.7398 259.662 46.7585C257.992 33.0102 254.73 18.7567 248.711 6.21235C247.157 3.02771 242.457 5.35831 243.195 8.54295Z" fill="#F2EC2F" fill-opacity="0.7"/>
<path d="M265.342 7.98534C271.284 24.6464 278.625 40.8027 283.052 58.0075C287.557 75.6007 289.81 93.8926 290.237 112.068C290.315 114.748 294.121 115.292 294.897 112.69C300.451 94.1258 298.121 74.5906 292.528 56.2596C287.13 38.5499 279.479 20.8405 266.857 7.09217C266.275 6.47077 265.031 7.13093 265.342 7.98534Z" fill="#F2EC2F" fill-opacity="0.7"/>
<path d="M287.885 10.87C288.817 16.3848 291.381 21.3561 293.555 26.4825C295.925 32.0751 297.984 37.7453 300.081 43.4543C304.353 55.0666 307.926 66.9508 310.8 78.9903C316.276 102.137 319.227 125.711 323.111 149.13C323.46 151.305 327.188 151.305 327.538 149.13C331.383 124.74 327.888 99.7293 321.597 76.0387C318.373 63.805 314.411 51.7266 309.635 39.9978C307.343 34.3664 304.663 28.8904 301.906 23.492C299.149 18.1325 296.352 12.6562 291.769 8.65599C289.905 7.10251 287.497 8.61742 287.885 10.87Z" fill="#F2EC2F" fill-opacity="0.7"/>
<path d="M319.175 23.9526C321.66 27.0207 325.039 29.2345 327.641 32.2638C330.243 35.2931 332.535 38.5943 334.515 42.0508C339.253 50.3619 342.166 59.6048 344.38 68.848C349.157 88.9268 350.322 109.239 352.458 129.667C353.002 134.832 353.468 140.036 354.323 145.202C354.983 149.241 355.293 154.173 356.808 157.979C357.701 160.232 360.886 160.504 361.701 157.979C362.827 154.406 362.673 150.289 363.177 146.561C363.838 141.668 363.993 136.736 364.032 131.803C364.148 120.89 363.333 110.093 362.051 99.2966C359.565 78.1304 355.565 55.9931 344.38 37.4289C339.603 29.5062 331.525 19.1369 321.544 18.2437C318.321 17.933 317.544 21.9331 319.175 23.9526Z" fill="#F2EC2F" fill-opacity="0.7"/>
<path d="M356.643 41.1193C357.225 45.4302 360.877 49.5857 363.246 53.1198C366.43 57.858 369.265 62.79 371.867 67.8776C377.654 79.1015 382.897 90.7141 387.208 102.598C391.519 114.482 395.364 126.677 398.043 139.066C399.247 144.542 400.295 150.096 401.266 155.611C401.965 159.689 402.004 166.252 404.335 169.67C406.354 172.66 410.005 172.427 412.102 169.67C414.937 165.98 414.394 158.368 414.199 153.863C413.889 147.649 412.918 141.435 411.559 135.338C408.724 122.483 404.684 109.9 399.635 97.7436C394.548 85.4322 388.839 73.4316 381.382 62.3631C377.965 57.3143 374.313 52.3819 370.313 47.7214C367.362 44.3038 363.323 39.7211 358.662 39.1386C357.691 38.9444 356.487 40.1095 356.643 41.1193Z" fill="#F2EC2F" fill-opacity="0.7"/>
<path d="M396.292 69.3145C396.603 73.1594 400.486 76.7713 402.467 80.0336C405.03 84.3057 407.283 88.7332 409.263 93.2772C413.535 103.025 416.254 113.706 418.546 124.075C420.915 134.678 422.546 145.552 423.128 156.387C423.4 161.436 423.284 166.485 423.439 171.573C423.595 176.855 424.099 182.136 423.866 187.418C423.711 191.302 429.575 192.04 430.585 188.311C432.061 182.913 433.498 177.825 434.197 172.272C434.857 166.757 434.663 161.203 434.352 155.65C433.692 143.999 431.944 132.464 428.837 121.201C425.886 110.482 421.536 100.501 416.332 90.7138C413.769 85.9368 410.934 81.2766 407.749 76.888C405.496 73.8199 402.544 68.3825 398.661 67.4504C397.573 67.2562 396.215 68.0717 396.292 69.3145Z" fill="#F2EC2F" fill-opacity="0.7"/>
<path d="M30.953 151.842C25.71 155.376 24.3507 163.105 23.2633 168.969C21.7875 177.047 21.3214 185.281 21.2437 193.436C21.0883 209.942 22.9134 226.292 23.8843 242.759C23.962 244.119 25.9429 244.119 26.0206 242.759C26.8362 227.225 25.5152 211.651 25.5152 196.116C25.5152 188.038 25.7877 179.882 27.1081 171.882C28.1956 165.318 31.38 158.871 31.7295 152.308C31.7295 151.919 31.2637 151.647 30.953 151.842Z" fill="#F2EC2F" fill-opacity="0.7"/>
<path d="M78.0298 79.7148C71.7771 85.6958 69.5633 94.0847 67.3108 102.202C64.6698 111.717 62.5733 121.426 61.1752 131.174C59.8159 140.65 58.6117 150.126 58.068 159.68C57.5243 168.768 56.204 178.361 57.2526 187.449C57.4468 189.274 59.8152 189.701 60.4754 187.876C63.3493 179.759 63.9328 170.671 65.2532 162.205C66.729 152.651 67.8935 143.019 69.4081 133.465C70.8839 124.183 72.36 114.94 74.5738 105.774C76.6321 97.3856 80.0109 89.3076 80.3604 80.6469C80.3216 79.4818 78.8454 78.9769 78.0298 79.7148Z" fill="#F2EC2F" fill-opacity="0.7"/>
<path d="M110.179 52.81C105.596 58.1307 104.276 65.7429 102.489 72.384C100.586 79.3747 98.7996 86.4045 97.5956 93.5505C95.11 108.076 93.712 122.523 92.8576 137.203C92.7799 138.485 94.8386 138.757 95.1105 137.514C98.1786 123.494 101.208 109.435 104.548 95.4535C106.218 88.424 107.655 81.3165 109.441 74.287C111.072 67.8401 114.141 60.9658 113.636 54.247C113.558 52.6546 111.46 51.373 110.179 52.81Z" fill="#F2EC2F" fill-opacity="0.7"/>
<path d="M148.435 32.806C142.416 30.6699 137.716 40.4177 135.619 44.6121C132.085 51.6028 129.91 59.4091 127.929 66.9823C124.279 81.119 121.327 96.1879 120.822 110.791C120.744 112.849 123.812 113.742 124.783 111.878C127.813 106.091 129.25 99.5666 130.842 93.2362C132.823 85.2746 134.531 77.2741 136.551 69.3513C138.454 61.8946 140.707 54.5159 143.814 47.4087C144.707 45.3115 152.63 34.2818 148.435 32.806Z" fill="#F2EC2F" fill-opacity="0.7"/>
<path d="M181.327 17.8551C177.25 20.03 175.152 23.3315 173.132 27.4482C171.035 31.7591 169.327 36.2251 167.812 40.769C164.744 49.9346 163.423 59.4496 161.442 68.887C160.976 71.1784 164.045 71.9552 164.899 69.858C168.395 61.3138 171.308 52.5755 173.988 43.7207C175.308 39.4486 176.745 35.1765 178.57 31.0987C180.357 27.1761 182.26 23.6808 183.347 19.4864C183.658 18.2436 182.376 17.2725 181.327 17.8551Z" fill="#F2EC2F" fill-opacity="0.7"/>
<path d="M213.955 8.29495C211.625 7.47937 208.519 9.88753 207.004 11.4799C204.946 13.6159 203.47 16.5675 202.15 19.2084C199.12 25.3835 197.139 31.9858 195.469 38.6269C192.245 51.4432 190.614 64.5309 188.672 77.5801C188.323 79.9104 191.352 81.6194 192.712 79.2892C199.275 67.9876 200.44 53.7731 203.275 41.2287C204.751 34.7429 206.46 28.1021 209.412 22.1212C210.577 19.7521 218.616 9.92611 213.955 8.29495Z" fill="#F2EC2F" fill-opacity="0.7"/>
<path d="M234.502 7.74902C233.997 19.672 233.764 31.6337 232.948 43.5567C232.133 55.4408 230.502 67.4807 230.812 79.4037C230.851 80.763 232.909 81.5395 233.57 80.1414C238.541 69.3058 239.356 56.7229 239.201 44.9552C239.045 32.5274 238.152 20.138 237.609 7.74902C237.531 5.72949 234.579 5.72949 234.502 7.74902Z" fill="#F2EC2F" fill-opacity="0.7"/>
<path d="M253.191 7.58863C251.288 13.686 254.667 21.065 256.259 26.9294C258.24 34.0754 259.793 41.3378 261.424 48.6003C263.056 55.8629 264.221 63.2809 265.23 70.66C266.201 77.8837 265.968 85.8451 268.182 92.7969C268.959 95.2437 272.726 96.1367 274.008 93.5735C277.425 86.6993 277.502 78.0389 277.192 70.5434C276.881 62.4652 275.483 54.6591 273.502 46.814C271.522 39.1631 268.57 31.9002 265.424 24.6766C262.861 18.851 260.026 10.3458 253.928 7.3165C253.618 7.16115 253.307 7.27793 253.191 7.58863Z" fill="#F2EC2F" fill-opacity="0.7"/>
<path d="M275.25 9.61922C279.289 20.2606 285.076 30.164 289.504 40.6889C291.795 46.1649 294.047 51.7187 296.028 57.3501C297.853 62.5931 299.485 68.4575 302.941 72.8461C304.417 74.7103 307.834 73.6229 308.261 71.448C309.426 65.7389 307.485 59.4863 305.582 54.1268C303.523 48.2624 301.154 42.5144 298.396 36.9607C293.192 26.5135 287.483 15.7168 279.211 7.32796C277.658 5.73564 274.395 7.36667 275.25 9.61922Z" fill="#F2EC2F" fill-opacity="0.7"/>
<path d="M303.817 15.6275C304.322 18.9287 306.264 21.997 307.74 24.9874C309.449 28.4827 311.119 32.0946 312.634 35.6676C315.896 43.2797 318.963 51.0859 321.682 58.931C324.362 66.6984 326.576 74.5821 328.634 82.5049C330.498 89.6897 331.547 97.6905 335.275 104.176C337.644 108.293 343.004 106.001 343.509 101.962C344.441 94.4279 341.8 86.078 340.014 78.7767C337.917 70.1937 335.469 61.6493 332.557 53.2993C329.683 45.027 326.381 37.1433 321.643 29.7254C318.07 24.1329 312.517 15.5501 305.565 13.9189C304.4 13.6859 303.662 14.6178 303.817 15.6275Z" fill="#F2EC2F" fill-opacity="0.7"/>
<path d="M342.195 30.3938C355.749 44.0256 363.051 62.1623 368.876 80.2216C372.177 90.3969 374.973 100.766 377.42 111.175C379.323 119.369 381.731 127.331 383.867 135.487C384.76 138.982 389.809 138.089 389.964 134.671C390.896 114.165 384.295 93.6979 376.877 74.7843C372.838 64.4925 368.371 54.2783 362.08 45.1905C357.458 38.5105 351.671 30.5099 343.515 28.0632C342.195 27.6748 341.224 29.4229 342.195 30.3938Z" fill="#F2EC2F" fill-opacity="0.7"/>
<path d="M381.345 54.462C382.511 61.5691 386.783 67.9771 389.191 74.6959C392.103 82.8517 395.211 90.9688 398.318 99.0857C401.425 107.241 403.948 115.475 406.123 123.942C407.055 127.631 407.949 131.282 408.765 134.971C409.386 137.962 410.24 142.467 411.987 144.991C412.958 146.428 415.445 147.244 416.726 145.612C421.426 139.709 419.483 129.845 418.241 123.087C416.571 113.844 412.881 104.756 409.269 96.0952C405.657 87.3957 401.23 79.0456 396.026 71.2394C392.026 65.2196 388.569 57.8797 382.589 53.5688C381.889 53.0639 381.229 53.8406 381.345 54.462Z" fill="#F2EC2F" fill-opacity="0.7"/>
<path d="M421.613 97.8263C423.866 102.487 425.38 107.885 426.817 112.856C429.108 120.74 431.322 128.624 433.225 136.586C435.128 144.547 436.643 152.625 438.468 160.587C439.672 165.868 440.954 171.5 443.75 176.199C444.915 178.18 447.672 177.598 448.372 175.578C450.313 170.102 449.07 163.5 448.022 157.946C446.468 149.635 444.061 141.401 441.808 133.246C439.556 125.168 437.226 117.05 434.119 109.244C432.06 104.079 430.157 98.2924 425.885 94.5252C423.516 92.4668 420.254 95.03 421.613 97.8263Z" fill="#F2EC2F" fill-opacity="0.7"/>
</svg>
